<?xml version="1.0" encoding="UTF-8"?>
<!--Generator: Apple Native CoreSVG 149-->
<!DOCTYPE svg
PUBLIC "-//W3C//DTD SVG 1.1//EN"
       "http://www.w3.org/Graphics/SVG/1.1/DTD/svg11.dtd">
<svg version="1.1" xmlns="http://www.w3.org/2000/svg" xmlns:xlink="http://www.w3.org/1999/xlink" width="3300" height="2200">
 <!--glyph: "uni10064A.medium", point size: 100.000000, font version: "Version 16.0d12e3", template writer version: "8"-->
 <g id="Notes">
  <rect height="2200" id="artboard" style="fill:white;opacity:1" width="3300" x="0" y="0"/>
  <line id="" style="fill:none;stroke:black;opacity:1;stroke-width:0.5;" x1="263" x2="3036" y1="292" y2="292"/>
  <text style="stroke:none;fill:black;font-family:-apple-system,&quot;SF Pro Display&quot;,&quot;SF Pro Text&quot;,Helvetica,sans-serif;font-weight:bold;" transform="matrix(1 0 0 1 263 322)">Weight/Scale Variations</text>
  <text style="stroke:none;fill:black;font-family:-apple-system,&quot;SF Pro Display&quot;,&quot;SF Pro Text&quot;,Helvetica,sans-serif;text-anchor:middle;" transform="matrix(1 0 0 1 559.711 322)">Ultralight</text>
  <text style="stroke:none;fill:black;font-family:-apple-system,&quot;SF Pro Display&quot;,&quot;SF Pro Text&quot;,Helvetica,sans-serif;text-anchor:middle;" transform="matrix(1 0 0 1 856.422 322)">Thin</text>
  <text style="stroke:none;fill:black;font-family:-apple-system,&quot;SF Pro Display&quot;,&quot;SF Pro Text&quot;,Helvetica,sans-serif;text-anchor:middle;" transform="matrix(1 0 0 1 1153.13 322)">Light</text>
  <text style="stroke:none;fill:black;font-family:-apple-system,&quot;SF Pro Display&quot;,&quot;SF Pro Text&quot;,Helvetica,sans-serif;text-anchor:middle;" transform="matrix(1 0 0 1 1449.84 322)">Regular</text>
  <text style="stroke:none;fill:black;font-family:-apple-system,&quot;SF Pro Display&quot;,&quot;SF Pro Text&quot;,Helvetica,sans-serif;text-anchor:middle;" transform="matrix(1 0 0 1 1746.56 322)">Medium</text>
  <text style="stroke:none;fill:black;font-family:-apple-system,&quot;SF Pro Display&quot;,&quot;SF Pro Text&quot;,Helvetica,sans-serif;text-anchor:middle;" transform="matrix(1 0 0 1 2043.27 322)">Semibold</text>
  <text style="stroke:none;fill:black;font-family:-apple-system,&quot;SF Pro Display&quot;,&quot;SF Pro Text&quot;,Helvetica,sans-serif;text-anchor:middle;" transform="matrix(1 0 0 1 2339.98 322)">Bold</text>
  <text style="stroke:none;fill:black;font-family:-apple-system,&quot;SF Pro Display&quot;,&quot;SF Pro Text&quot;,Helvetica,sans-serif;text-anchor:middle;" transform="matrix(1 0 0 1 2636.69 322)">Heavy</text>
  <text style="stroke:none;fill:black;font-family:-apple-system,&quot;SF Pro Display&quot;,&quot;SF Pro Text&quot;,Helvetica,sans-serif;text-anchor:middle;" transform="matrix(1 0 0 1 2933.4 322)">Black</text>
  <line id="" style="fill:none;stroke:black;opacity:1;stroke-width:0.5;" x1="263" x2="3036" y1="1903" y2="1903"/>
  <g id="" transform="matrix(1 0 0 1 263 1933)">
   <path d="M9.24805 0.830078C13.5547 0.830078 17.1387-2.74414 17.1387-7.05078C17.1387-11.3574 13.5449-14.9316 9.23828-14.9316C4.94141-14.9316 1.36719-11.3574 1.36719-7.05078C1.36719-2.74414 4.95117 0.830078 9.24805 0.830078ZM9.24805-0.654297C5.70312-0.654297 2.87109-3.49609 2.87109-7.05078C2.87109-10.6055 5.69336-13.4473 9.23828-13.4473C12.793-13.4473 15.6348-10.6055 15.6445-7.05078C15.6543-3.49609 12.8027-0.654297 9.24805-0.654297ZM9.22852-3.62305C9.69727-3.62305 9.9707-3.93555 9.9707-4.45312L9.9707-6.31836L12.002-6.31836C12.5-6.31836 12.832-6.57227 12.832-7.04102C12.832-7.51953 12.5195-7.7832 12.002-7.7832L9.9707-7.7832L9.9707-9.81445C9.9707-10.332 9.69727-10.6543 9.22852-10.6543C8.75977-10.6543 8.50586-10.3125 8.50586-9.81445L8.50586-7.7832L6.49414-7.7832C5.97656-7.7832 5.64453-7.51953 5.64453-7.04102C5.64453-6.57227 5.99609-6.31836 6.49414-6.31836L8.50586-6.31836L8.50586-4.45312C8.50586-3.95508 8.75977-3.62305 9.22852-3.62305Z"/>
  </g>
  <g id="" transform="matrix(1 0 0 1 281.506 1933)">
   <path d="M11.709 2.91016C17.1582 2.91016 21.6699-1.61133 21.6699-7.05078C21.6699-12.5 17.1484-17.0117 11.6992-17.0117C6.25977-17.0117 1.74805-12.5 1.74805-7.05078C1.74805-1.61133 6.26953 2.91016 11.709 2.91016ZM11.709 1.25C7.09961 1.25 3.41797-2.44141 3.41797-7.05078C3.41797-11.6602 7.08984-15.3516 11.6992-15.3516C16.3086-15.3516 20-11.6602 20.0098-7.05078C20.0195-2.44141 16.3184 1.25 11.709 1.25ZM11.6797-2.66602C12.207-2.66602 12.5098-3.01758 12.5098-3.59375L12.5098-6.23047L15.3223-6.23047C15.8691-6.23047 16.25-6.51367 16.25-7.03125C16.25-7.55859 15.8887-7.86133 15.3223-7.86133L12.5098-7.86133L12.5098-10.6836C12.5098-11.25 12.207-11.6113 11.6797-11.6113C11.1621-11.6113 10.8789-11.2305 10.8789-10.6836L10.8789-7.86133L8.07617-7.86133C7.50977-7.86133 7.13867-7.55859 7.13867-7.03125C7.13867-6.51367 7.5293-6.23047 8.07617-6.23047L10.8789-6.23047L10.8789-3.59375C10.8789-3.03711 11.1621-2.66602 11.6797-2.66602Z"/>
  </g>
  <g id="" transform="matrix(1 0 0 1 304.924 1933)">
   <path d="M14.9707 5.66406C21.9336 5.66406 27.6953-0.0976562 27.6953-7.05078C27.6953-14.0137 21.9238-19.7754 14.9609-19.7754C8.00781-19.7754 2.25586-14.0137 2.25586-7.05078C2.25586-0.0976562 8.01758 5.66406 14.9707 5.66406ZM14.9707 3.84766C8.93555 3.84766 4.08203-1.01562 4.08203-7.05078C4.08203-13.0957 8.92578-17.9492 14.9609-17.9492C21.0059-17.9492 25.8594-13.0957 25.8691-7.05078C25.8789-1.01562 21.0156 3.84766 14.9707 3.84766ZM14.9414-1.38672C15.5176-1.38672 15.8594-1.77734 15.8594-2.38281L15.8594-6.13281L19.7754-6.13281C20.3711-6.13281 20.7812-6.46484 20.7812-7.02148C20.7812-7.59766 20.3906-7.93945 19.7754-7.93945L15.8594-7.93945L15.8594-11.8652C15.8594-12.4805 15.5176-12.8711 14.9414-12.8711C14.375-12.8711 14.0527-12.4609 14.0527-11.8652L14.0527-7.93945L10.1465-7.93945C9.53125-7.93945 9.13086-7.59766 9.13086-7.02148C9.13086-6.46484 9.55078-6.13281 10.1465-6.13281L14.0527-6.13281L14.0527-2.38281C14.0527-1.79688 14.375-1.38672 14.9414-1.38672Z"/>
  </g>
  <text style="stroke:none;fill:black;font-family:-apple-system,&quot;SF Pro Display&quot;,&quot;SF Pro Text&quot;,Helvetica,sans-serif;font-weight:bold;" transform="matrix(1 0 0 1 263 1953)">Design Variations</text>
  <text style="stroke:none;fill:black;font-family:-apple-system,&quot;SF Pro Display&quot;,&quot;SF Pro Text&quot;,Helvetica,sans-serif;" transform="matrix(1 0 0 1 263 1971)">Symbols are supported in up to nine weights and three scales.</text>
  <text style="stroke:none;fill:black;font-family:-apple-system,&quot;SF Pro Display&quot;,&quot;SF Pro Text&quot;,Helvetica,sans-serif;" transform="matrix(1 0 0 1 263 1989)">For optimal layout with text and other symbols, vertically align</text>
  <text style="stroke:none;fill:black;font-family:-apple-system,&quot;SF Pro Display&quot;,&quot;SF Pro Text&quot;,Helvetica,sans-serif;" transform="matrix(1 0 0 1 263 2007)">symbols with the adjacent text.</text>
  <line id="" style="fill:none;stroke:#00AEEF;stroke-width:0.5;opacity:1.0;" x1="776" x2="776" y1="1919" y2="1933"/>
  <g id="" transform="matrix(1 0 0 1 776 1933)">
   <path d="M3.31055 0.126953C3.82812 0.126953 4.08203-0.0683594 4.26758-0.605469L5.52734-4.0625L11.2891-4.0625L12.5488-0.605469C12.7344-0.0683594 12.9883 0.126953 13.4961 0.126953C14.0137 0.126953 14.3457-0.185547 14.3457-0.673828C14.3457-0.839844 14.3164-0.986328 14.2383-1.20117L9.6582-13.3887C9.43359-13.9941 9.0332-14.2871 8.4082-14.2871C7.80273-14.2871 7.39258-13.9941 7.17773-13.3984L2.59766-1.19141C2.51953-0.976562 2.49023-0.830078 2.49023-0.664062C2.49023-0.175781 2.80273 0.126953 3.31055 0.126953ZM6.00586-5.53711L8.37891-12.1094L8.42773-12.1094L10.8008-5.53711Z"/>
  </g>
  <line id="" style="fill:none;stroke:#00AEEF;stroke-width:0.5;opacity:1.0;" x1="792.836" x2="792.836" y1="1919" y2="1933"/>
  <text style="stroke:none;fill:black;font-family:-apple-system,&quot;SF Pro Display&quot;,&quot;SF Pro Text&quot;,Helvetica,sans-serif;font-weight:bold;" transform="matrix(1 0 0 1 776 1953)">Margins</text>
  <text style="stroke:none;fill:black;font-family:-apple-system,&quot;SF Pro Display&quot;,&quot;SF Pro Text&quot;,Helvetica,sans-serif;" transform="matrix(1 0 0 1 776 1971)">Leading and trailing margins on the left and right side of each symbol</text>
  <text style="stroke:none;fill:black;font-family:-apple-system,&quot;SF Pro Display&quot;,&quot;SF Pro Text&quot;,Helvetica,sans-serif;" transform="matrix(1 0 0 1 776 1989)">can be adjusted by modifying the x-location of the margin guidelines.</text>
  <text style="stroke:none;fill:black;font-family:-apple-system,&quot;SF Pro Display&quot;,&quot;SF Pro Text&quot;,Helvetica,sans-serif;" transform="matrix(1 0 0 1 776 2007)">Modifications are automatically applied proportionally to all</text>
  <text style="stroke:none;fill:black;font-family:-apple-system,&quot;SF Pro Display&quot;,&quot;SF Pro Text&quot;,Helvetica,sans-serif;" transform="matrix(1 0 0 1 776 2025)">scales and weights.</text>
  <g id="" transform="matrix(1 0 0 1 1289 1933)">
   <path d="M2.8418 1.86523L4.54102 3.57422C5.40039 4.44336 6.38672 4.38477 7.31445 3.35938L17.4902-7.85156C17.7539-7.76367 18.0273-7.7832 18.3398-7.8418L19.4043-8.03711L20.0684-7.36328L20.0293-6.80664C19.9902-6.30859 20.1172-5.92773 20.6055-5.44922L21.3672-4.70703C21.8457-4.22852 22.4609-4.19922 22.9297-4.66797L25.8398-7.58789C26.3086-8.05664 26.2891-8.65234 25.8105-9.13086L25.0391-9.89258C24.5605-10.3711 24.1895-10.5273 23.7109-10.4883L23.1348-10.4395L22.4902-11.0742L22.7344-12.1973C22.8613-12.7637 22.7051-13.2031 22.1191-13.7891L19.9219-15.9766C16.582-19.2969 12.1484-19.2188 9.25781-16.3281C8.83789-15.918 8.80859-15.3418 9.04297-14.9512C9.27734-14.5898 9.73633-14.3555 10.3809-14.5215C11.8457-14.8633 13.3691-14.9219 14.7949-13.9844L14.209-12.5293C14.0137-12.0508 13.9844-11.6504 14.1113-11.2891L3.04688-0.898438C2.06055 0.0195312 1.98242 0.996094 2.8418 1.86523ZM10.752-15.957C13.1836-17.7344 16.4746-17.4316 18.7012-15.2051L21.1328-12.793C21.3672-12.5586 21.4062-12.373 21.3379-12.0312L21.0156-10.5469L22.5195-9.0625L23.5059-9.12109C23.7598-9.13086 23.8379-9.11133 24.0332-8.91602L24.6094-8.33984L22.168-5.89844L21.5918-6.47461C21.3965-6.66992 21.3672-6.74805 21.377-7.01172L21.4453-7.98828L19.9512-9.47266L18.4277-9.21875C18.1055-9.15039 17.959-9.17969 17.7148-9.41406L15.7129-11.416C15.459-11.6504 15.4297-11.8164 15.5859-12.1875L16.4648-14.2773C14.9023-15.7324 12.8711-16.3574 10.8398-15.7617C10.6836-15.7227 10.625-15.8496 10.752-15.957ZM5.27344 2.30469L4.10156 1.14258C3.63281 0.683594 3.74023 0.341797 4.14062-0.0195312L14.9512-10.1953L16.416-8.71094L6.42578 2.27539C6.07422 2.67578 5.74219 2.77344 5.27344 2.30469Z"/>
  </g>
  <text style="stroke:none;fill:black;font-family:-apple-system,&quot;SF Pro Display&quot;,&quot;SF Pro Text&quot;,Helvetica,sans-serif;font-weight:bold;" transform="matrix(1 0 0 1 1289 1953)">Exporting</text>
  <text style="stroke:none;fill:black;font-family:-apple-system,&quot;SF Pro Display&quot;,&quot;SF Pro Text&quot;,Helvetica,sans-serif;" transform="matrix(1 0 0 1 1289 1971)">Symbols should be outlined when exporting to ensure the</text>
  <text style="stroke:none;fill:black;font-family:-apple-system,&quot;SF Pro Display&quot;,&quot;SF Pro Text&quot;,Helvetica,sans-serif;" transform="matrix(1 0 0 1 1289 1989)">design is preserved when submitting to Xcode.</text>
  <text id="template-version" style="stroke:none;fill:black;font-family:-apple-system,&quot;SF Pro Display&quot;,&quot;SF Pro Text&quot;,Helvetica,sans-serif;text-anchor:end;" transform="matrix(1 0 0 1 3036 1933)">Template v.2.0</text>
  <text style="stroke:none;fill:black;font-family:-apple-system,&quot;SF Pro Display&quot;,&quot;SF Pro Text&quot;,Helvetica,sans-serif;text-anchor:end;" transform="matrix(1 0 0 1 3036 1951)">Requires Xcode 12 or greater</text>
  <text style="stroke:none;fill:black;font-family:-apple-system,&quot;SF Pro Display&quot;,&quot;SF Pro Text&quot;,Helvetica,sans-serif;text-anchor:end;" transform="matrix(1 0 0 1 3036 1969)">Generated from map</text>
  <text style="stroke:none;fill:black;font-family:-apple-system,&quot;SF Pro Display&quot;,&quot;SF Pro Text&quot;,Helvetica,sans-serif;text-anchor:end;" transform="matrix(1 0 0 1 3036 1987)">Typeset at 100 points</text>
  <text style="stroke:none;fill:black;font-family:-apple-system,&quot;SF Pro Display&quot;,&quot;SF Pro Text&quot;,Helvetica,sans-serif;" transform="matrix(1 0 0 1 263 726)">Small</text>
  <text style="stroke:none;fill:black;font-family:-apple-system,&quot;SF Pro Display&quot;,&quot;SF Pro Text&quot;,Helvetica,sans-serif;" transform="matrix(1 0 0 1 263 1156)">Medium</text>
  <text style="stroke:none;fill:black;font-family:-apple-system,&quot;SF Pro Display&quot;,&quot;SF Pro Text&quot;,Helvetica,sans-serif;" transform="matrix(1 0 0 1 263 1586)">Large</text>
 </g>
 <g id="Guides">
  <g id="H-reference" style="fill:#27AAE1;stroke:none;" transform="matrix(1 0 0 1 339 696)">
   <path d="M0.976562 0L3.66211 0L12.9883-24.4629L45.752-24.4629L55.127 0L57.7637 0L30.6152-70.459L28.125-70.459ZM29.3457-67.1387L29.4434-67.1387L44.873-26.709L13.8672-26.709Z"/>
  </g>
  <line id="Baseline-S" style="fill:none;stroke:#27AAE1;opacity:1;stroke-width:0.5;" x1="263" x2="3036" y1="696" y2="696"/>
  <line id="Capline-S" style="fill:none;stroke:#27AAE1;opacity:1;stroke-width:0.5;" x1="263" x2="3036" y1="625.541" y2="625.541"/>
  <g id="H-reference" style="fill:#27AAE1;stroke:none;" transform="matrix(1 0 0 1 339 1126)">
   <path d="M0.976562 0L3.66211 0L12.9883-24.4629L45.752-24.4629L55.127 0L57.7637 0L30.6152-70.459L28.125-70.459ZM29.3457-67.1387L29.4434-67.1387L44.873-26.709L13.8672-26.709Z"/>
  </g>
  <line id="Baseline-M" style="fill:none;stroke:#27AAE1;opacity:1;stroke-width:0.5;" x1="263" x2="3036" y1="1126" y2="1126"/>
  <line id="Capline-M" style="fill:none;stroke:#27AAE1;opacity:1;stroke-width:0.5;" x1="263" x2="3036" y1="1055.54" y2="1055.54"/>
  <g id="H-reference" style="fill:#27AAE1;stroke:none;" transform="matrix(1 0 0 1 339 1556)">
   <path d="M0.976562 0L3.66211 0L12.9883-24.4629L45.752-24.4629L55.127 0L57.7637 0L30.6152-70.459L28.125-70.459ZM29.3457-67.1387L29.4434-67.1387L44.873-26.709L13.8672-26.709Z"/>
  </g>
  <line id="Baseline-L" style="fill:none;stroke:#27AAE1;opacity:1;stroke-width:0.5;" x1="263" x2="3036" y1="1556" y2="1556"/>
  <line id="Capline-L" style="fill:none;stroke:#27AAE1;opacity:1;stroke-width:0.5;" x1="263" x2="3036" y1="1485.54" y2="1485.54"/>
  <line id="left-margin" style="fill:none;stroke:#00AEEF;stroke-width:0.5;opacity:1.0;" x1="1386.61" x2="1386.61" y1="1030.79" y2="1150.12"/>
  <line id="right-margin" style="fill:none;stroke:#00AEEF;stroke-width:0.5;opacity:1.0;" x1="1513.08" x2="1513.08" y1="1030.79" y2="1150.12"/>
 </g>
 <g id="Symbols">
  <g id="Black-L" transform="matrix(1 0 0 1 2848.76 1556)">
   <path d="M29.0527 30.2246C32.666 30.2246 35.4492 28.9551 39.4531 26.7578L65.7715 12.4512L95.166 28.6133C98.877 30.6641 102.686 31.6406 106.445 31.6406C110.303 31.6406 114.16 30.6152 117.822 28.5645L144.238 13.916C150.586 10.4004 153.223 5.51758 153.223-1.17188L153.223-84.9609C153.223-92.4805 148.047-97.5098 140.186-97.5098C136.621-97.5098 133.887-95.9473 129.834-93.75L102.832-78.7598L73.1445-95.752C69.5312-97.7539 65.6738-98.6816 61.7676-98.6816C58.2031-98.6816 54.7363-97.8516 51.6113-96.0938L25.0488-81.3477C18.7012-77.832 16.0645-73.3887 16.0645-66.6992L16.0645 17.9199C16.0645 25.3906 21.2402 30.2246 29.0527 30.2246ZM55.1758-3.02734L37.1582 6.88477C36.4258 7.27539 35.791 7.42188 35.3516 7.42188C34.0332 7.42188 33.3984 6.34766 33.3984 4.83398L33.3984-60.9375C33.3984-63.5742 34.1309-64.6484 36.4258-65.918L53.7109-75.5859C54.1992-75.9277 54.6387-76.123 55.1758-76.4648ZM73.1934-4.78516L73.1934-74.2188C73.8281-73.877 74.5117-73.4863 75.1465-73.1445L96.0938-61.1816L96.0938 7.86133C95.4102 7.4707 94.6777 7.08008 93.9941 6.73828ZM114.111 8.20312L114.111-63.916L132.08-73.7305C132.568-74.0234 133.057-74.1699 133.545-74.1699C134.912-74.1699 135.889-73.0957 135.889-71.7773L135.889-7.37305C135.889-4.73633 135.059-3.61328 132.861-2.39258L117.139 6.49414C116.162 7.08008 115.088 7.61719 114.111 8.20312Z"/>
  </g>
  <g id="Heavy-L" transform="matrix(1 0 0 1 2553.1 1556)">
   <path d="M27.4902 28.7109C30.5664 28.7109 33.1055 27.5879 36.5723 25.6836L64.3066 10.5957L94.873 27.6367C98.2422 29.4922 101.709 30.3711 105.078 30.3711C108.545 30.3711 112.012 29.4434 115.234 27.6367L143.115 12.0117C148.779 8.88672 151.123 4.54102 151.123-1.51367L151.123-85.5469C151.123-92.2852 146.631-96.7285 139.697-96.7285C136.621-96.7285 134.18-95.4102 130.664-93.457L102.148-77.6855L71.4844-95.5566C68.2617-97.3633 64.7949-98.2422 61.2793-98.2422C58.0566-98.2422 54.834-97.4121 52.002-95.8008L24.0723-80.127C18.457-77.002 16.0645-72.9492 16.0645-66.9434L16.0645 17.7246C16.0645 24.4629 20.5566 28.7109 27.4902 28.7109ZM55.3711-3.22266L34.668 8.1543C34.0332 8.49609 33.4961 8.69141 33.0566 8.69141C31.9336 8.69141 31.3477 7.76367 31.3477 6.44531L31.3477-62.0605C31.3477-64.4043 32.0312-65.4785 34.1309-66.6992L53.7109-77.832C54.2969-78.1738 54.7852-78.4668 55.3711-78.7598ZM71.1914-4.3457L71.1914-76.8066C71.8262-76.5137 72.5098-76.0742 73.1445-75.7324L96.0449-62.3535L96.0449 9.47266C95.3125 9.08203 94.5801 8.74023 93.8477 8.30078ZM111.865 9.96094L111.865-64.5996L132.52-75.8789C132.959-76.123 133.398-76.3184 133.838-76.3184C135.01-76.3184 135.889-75.3906 135.889-74.2188L135.889-6.73828C135.889-4.39453 135.107-3.27148 133.057-2.09961L114.795 8.34961C113.818 8.88672 112.793 9.42383 111.865 9.96094Z"/>
  </g>
  <g id="Bold-L" transform="matrix(1 0 0 1 2257.53 1556)">
   <path d="M25.7812 26.9531C28.2715 26.9531 30.4199 26.0742 33.3496 24.4629L62.6465 8.49609L94.5801 26.5137C97.5586 28.125 100.586 28.9551 103.564 28.9551C106.592 28.9551 109.521 28.1738 112.305 26.5625L141.895 9.86328C146.729 7.12891 148.828 3.41797 148.828-1.9043L148.828-86.2305C148.828-92.0898 145.068-95.8008 139.111-95.8008C136.621-95.8008 134.473-94.7754 131.543-93.1641L101.416-76.4648L69.6289-95.3125C66.7969-96.9238 63.7695-97.7051 60.7422-97.7051C57.8613-97.7051 54.9805-96.9727 52.4414-95.5078L22.998-78.7598C18.1641-76.0742 16.0645-72.5098 16.0645-67.2363L16.0645 17.4805C16.0645 23.3398 19.8242 26.9531 25.7812 26.9531ZM55.5664-3.41797L31.8848 9.61914C31.3477 9.91211 30.8594 10.0586 30.5176 10.0586C29.541 10.0586 29.0527 9.32617 29.0527 8.20312L29.0527-63.2812C29.0527-65.3809 29.6875-66.4551 31.5918-67.5293L53.7598-80.3711C54.3945-80.7129 54.9316-81.0059 55.5664-81.3477ZM68.8965-3.90625L68.8965-79.7363C69.5312-79.3945 70.2637-79.0039 70.8984-78.6621L95.9961-63.7207L95.9961 11.3281C95.2148 10.9375 94.4336 10.5469 93.6523 10.1074ZM109.326 11.9629L109.326-65.332L133.008-78.2715C133.398-78.5156 133.838-78.6621 134.18-78.6621C135.156-78.6621 135.84-77.9297 135.84-76.9043L135.84-6.05469C135.84-3.95508 135.156-2.88086 133.301-1.80664L112.158 10.4004C111.23 10.9375 110.254 11.4746 109.326 11.9629Z"/>
  </g>
  <g id="Semibold-L" transform="matrix(1 0 0 1 1961.63 1556)">
   <path d="M24.5605 25.7812C26.709 25.7812 28.6133 25 31.1035 23.6328L61.4746 7.08008L94.3848 25.7324C97.0703 27.2461 99.8535 27.9785 102.539 27.9785C105.225 27.9785 107.861 27.2461 110.303 25.8301L141.016 8.39844C145.361 5.95703 147.217 2.63672 147.217-2.19727L147.217-86.6699C147.217-91.9434 143.994-95.2148 138.721-95.2148C136.621-95.2148 134.717-94.3848 132.178-92.9688L100.879-75.6348L68.3105-95.166C65.8203-96.6309 63.0859-97.3145 60.4004-97.3145C57.7148-97.3145 55.0781-96.6309 52.7344-95.2637L22.2656-77.832C17.9199-75.4395 16.0645-72.2168 16.0645-67.4316L16.0645 17.2852C16.0645 22.6074 19.3359 25.7812 24.5605 25.7812ZM55.7129-3.61328L29.9316 10.6445C29.4922 10.8887 29.0527 11.0352 28.7109 11.0352C27.9297 11.0352 27.4902 10.4004 27.4902 9.42383L27.4902-64.1602C27.4902-66.0156 28.0762-67.1387 29.834-68.1152L53.7598-82.0801C54.4434-82.4707 55.0781-82.8125 55.7129-83.1543ZM67.334-3.61328L67.334-81.7383C68.0176-81.3965 68.7012-81.0059 69.3359-80.6641L95.9473-64.6973L95.9473 12.5977C95.166 12.207 94.3359 11.7676 93.5059 11.3281ZM107.568 13.3301L107.568-65.8691L133.35-79.9316C133.74-80.127 134.082-80.2734 134.424-80.2734C135.254-80.2734 135.84-79.6387 135.84-78.7598L135.84-5.56641C135.84-3.71094 135.205-2.58789 133.496-1.61133L110.352 11.8164C109.424 12.3535 108.496 12.8418 107.568 13.3301Z"/>
  </g>
  <g id="Medium-L" transform="matrix(1 0 0 1 1665.5 1556)">
   <path d="M23.6328 24.9023C25.4883 24.9023 27.2461 24.2188 29.4434 22.998L60.5957 6.00586L94.2383 25.1465C96.7285 26.5625 99.2676 27.1973 101.758 27.1973C104.15 27.1973 106.592 26.5625 108.789 25.293L140.381 7.27539C144.287 5.07812 146.045 2.05078 146.045-2.39258L146.045-87.0117C146.045-91.8457 143.164-94.7266 138.428-94.7266C136.621-94.7266 134.863-94.043 132.666-92.8223L100.488-75L67.334-95.0684C65.0879-96.3867 62.5977-97.0703 60.1074-97.0703C57.6172-97.0703 55.1758-96.3867 52.9785-95.1172L21.7285-77.1484C17.7734-74.9512 16.0645-71.9727 16.0645-67.5781L16.0645 17.1875C16.0645 22.0215 18.9453 24.9023 23.6328 24.9023ZM55.8594-3.71094L28.4668 11.377C28.0762 11.6211 27.6855 11.7188 27.3926 11.7188C26.709 11.7188 26.2695 11.1816 26.2695 10.3516L26.2695-64.7949C26.2695-66.5527 26.8555-67.627 28.4668-68.6035L53.8086-83.3984C54.4922-83.7891 55.127-84.1309 55.8594-84.4727ZM66.1621-3.36914L66.1621-83.252C66.7969-82.9102 67.5293-82.5684 68.1641-82.1777L95.8984-65.3809L95.8984 13.5254C95.1172 13.1348 94.2383 12.7441 93.4082 12.2559ZM106.25 14.3555L106.25-66.2598L133.594-81.2012C133.936-81.3965 134.326-81.4941 134.619-81.4941C135.352-81.4941 135.791-80.957 135.791-80.1758L135.791-5.22461C135.791-3.4668 135.205-2.39258 133.594-1.41602L108.984 12.8906C108.057 13.4277 107.178 13.916 106.25 14.3555Z"/>
  </g>
  <g id="Regular-L" transform="matrix(1 0 0 1 1369.6 1556)">
   <path d="M22.4609 23.7305C23.9258 23.7305 25.3906 23.1934 27.2461 22.168L59.4727 4.58984L94.043 24.3652C96.2402 25.6348 98.5352 26.2695 100.732 26.2695C102.832 26.2695 104.883 25.6836 106.787 24.5605L139.502 5.81055C142.92 3.90625 144.434 1.26953 144.434-2.63672L144.434-87.4512C144.434-91.6992 142.09-94.1406 138.037-94.1406C136.572-94.1406 135.107-93.6035 133.252-92.627L99.9512-74.1699L66.0645-94.9219C64.0625-96.0938 61.9141-96.6797 59.7168-96.6797C57.5195-96.6797 55.2734-96.0938 53.2715-94.9219L20.9961-76.2207C17.5781-74.2676 16.0645-71.6797 16.0645-67.7246L16.0645 16.9922C16.0645 21.2891 18.4082 23.7305 22.4609 23.7305ZM56.0059-3.85742L26.5625 12.4023C26.2695 12.5488 25.9277 12.6953 25.6348 12.6953C25.0977 12.6953 24.707 12.2559 24.707 11.5723L24.707-65.6738C24.707-67.1875 25.2441-68.2617 26.7578-69.1406L53.8086-85.1074C54.541-85.5469 55.2246-85.8887 56.0059-86.2793ZM64.6484-3.02734L64.6484-85.2051C65.2832-84.9121 66.0156-84.5215 66.6016-84.1797L95.8496-66.3086L95.8496 14.7949C95.0195 14.4043 94.1406 13.9648 93.3105 13.4766ZM104.541 15.7227L104.541-66.7969L133.936-82.8125C134.277-83.0078 134.57-83.1055 134.863-83.1055C135.449-83.1055 135.791-82.7148 135.791-82.0312L135.791-4.73633C135.791-3.22266 135.254-2.09961 133.789-1.2207L107.178 14.3066C106.299 14.8438 105.42 15.2832 104.541 15.7227Z"/>
  </g>
  <g id="Light-L" transform="matrix(1 0 0 1 1074.69 1556)">
   <path d="M21.4844 22.6562C22.7539 22.6562 24.0723 22.168 25.6348 21.3379L58.1055 3.32031L92.2852 23.4375C94.3848 24.707 96.4355 25.293 98.4375 25.293C100.342 25.293 102.295 24.707 104.248 23.584L136.572 4.78516C139.551 3.07617 140.82 1.02539 140.82-2.49023L140.82-87.2559C140.82-91.0156 138.77-93.1152 135.4-93.1152C134.131-93.1152 132.812-92.627 131.25-91.7969L98.0957-73.5352L64.6484-93.9453C62.5977-95.166 60.4492-95.752 58.3496-95.752C56.1523-95.752 54.0039-95.166 51.9531-93.9453L20.3125-75.1953C17.334-73.5352 16.0645-71.4844 16.0645-67.9199L16.0645 16.748C16.0645 20.5078 18.1152 22.6562 21.4844 22.6562ZM55.4199-2.97852L24.707 14.1602C24.3652 14.3066 24.0234 14.4043 23.7305 14.4043C23.1445 14.4043 22.7051 13.9648 22.7051 13.1836L22.7051-66.4062C22.7051-67.9199 23.1934-68.9941 24.6582-69.9219L53.3691-87.0117C54.0527-87.4023 54.7363-87.7441 55.4199-88.0371ZM62.0605-2.44141L62.0605-87.4023C62.6953-87.1094 63.4277-86.7676 64.0137-86.4258L94.8242-67.627L94.8242 16.748C94.0918 16.4062 93.2617 16.0156 92.5293 15.625ZM101.465 17.334L101.465-67.9199L132.227-84.6191C132.52-84.7656 132.861-84.9121 133.154-84.9121C133.789-84.9121 134.229-84.4238 134.229-83.6426L134.229-4.05273C134.229-2.49023 133.691-1.41602 132.227-0.537109L103.857 16.1621C103.076 16.6016 102.246 17.041 101.465 17.334Z"/>
  </g>
  <g id="Thin-L" transform="matrix(1 0 0 1 780.372 1556)">
   <path d="M20.166 21.2891C21.2402 21.2891 22.3145 20.8008 23.4863 20.2148L56.3477 1.66016L89.9414 22.2168C91.8945 23.4375 93.7012 24.0234 95.4102 24.0234C97.1191 24.0234 98.8281 23.4375 100.83 22.2656L132.715 3.36914C135.059 2.00195 136.035 0.683594 136.035-2.34375L136.035-86.9629C136.035-90.0391 134.375-91.748 131.934-91.748C130.859-91.748 129.785-91.3574 128.613-90.7227L95.6055-72.7051L62.793-92.627C60.6445-93.8965 58.5449-94.5312 56.543-94.5312C54.3945-94.5312 52.2949-93.8965 50.2441-92.627L19.3848-73.877C17.041-72.5098 16.0645-71.1914 16.0645-68.1641L16.0645 16.4551C16.0645 19.5312 17.7246 21.2891 20.166 21.2891ZM54.6875-1.80664L22.2168 16.4551C21.875 16.6504 21.5332 16.6992 21.2402 16.6992C20.5078 16.6992 19.9707 16.1621 19.9707 15.332L19.9707-67.4316C19.9707-68.9453 20.4102-69.9707 21.9238-70.8984L52.7344-89.5508C53.3691-89.8438 54.0527-90.1855 54.6875-90.3809ZM58.6426-1.61133L58.6426-90.2344C59.2773-90.0391 60.0098-89.7461 60.5469-89.4043L93.457-69.3359L93.457 19.2871C92.8223 19.0918 92.041 18.75 91.4551 18.4082ZM97.4121 19.4824L97.4121-69.3848L129.883-87.0117C130.225-87.1582 130.566-87.2559 130.859-87.2559C131.543-87.2559 132.08-86.7188 132.08-85.8398L132.08-3.125C132.08-1.5625 131.689-0.537109 130.176 0.341797L99.4141 18.6035C98.7305 18.9453 98.0957 19.2871 97.4121 19.4824Z"/>
  </g>
  <g id="Ultralight-L" transform="matrix(1 0 0 1 484.882 1556)">
   <path d="M19.5312 20.6055C20.4102 20.6055 21.4355 20.1172 22.3633 19.6289L55.4199 0.830078L88.7695 21.6309C90.625 22.8027 92.2852 23.3398 93.8965 23.3398C95.459 23.3398 97.0703 22.8027 99.1211 21.582L130.762 2.68555C132.764 1.46484 133.594 0.537109 133.594-2.24609L133.594-86.8164C133.594-89.5508 132.178-91.0645 130.127-91.0645C129.199-91.0645 128.223-90.6738 127.295-90.1855L94.3359-72.3145L61.8652-91.9434C59.668-93.2617 57.5684-93.8965 55.5664-93.8965C53.5156-93.8965 51.416-93.2617 49.3164-91.9434L18.8965-73.2422C16.8945-72.0215 16.0645-71.0938 16.0645-68.3105L16.0645 16.2598C16.0645 18.9941 17.4805 20.6055 19.5312 20.6055ZM56.8848-1.2207L56.8848-91.6992C57.5195-91.5527 58.252-91.2598 58.7891-90.918L92.7734-70.2148L92.7734 20.6055C92.1387 20.459 91.4551 20.166 90.918 19.873ZM54.3457-1.2207L20.8984 17.6758C20.6055 17.8223 20.2637 17.8711 19.9219 17.8711C19.1895 17.8711 18.6035 17.334 18.6035 16.4062L18.6035-67.9199C18.6035-69.4336 18.9941-70.5078 20.5566-71.3867L52.4414-90.8203C53.0762-91.1133 53.7109-91.4551 54.3457-91.6016ZM95.3125 20.6055L95.3125-70.1172L128.711-88.2324C129.053-88.3789 129.395-88.4277 129.688-88.4277C130.42-88.4277 131.006-87.8418 131.006-86.9629L131.006-2.63672C131.006-1.12305 130.664-0.0488281 129.102 0.830078L97.168 19.873C96.5332 20.166 95.9473 20.459 95.3125 20.6055Z"/>
  </g>
  <g id="Black-M" transform="matrix(1 0 0 1 2867.38 1126)">
   <path d="M24.1211 17.041C27.4414 17.041 29.9805 15.8203 33.5938 13.8184L52.2461 3.51562L73.1934 15.0879C76.4648 16.9434 79.7852 17.8223 83.1055 17.8223C86.5723 17.8223 90.0391 16.8457 93.457 14.9902L111.719 4.83398C117.334 1.75781 119.58-2.44141 119.58-8.30078L119.58-72.9004C119.58-79.4434 114.844-84.0332 107.959-84.0332C104.59-84.0332 102.148-82.5195 98.4863-80.5176L79.6387-70.0684L58.2031-81.8359C54.834-83.6914 51.3184-84.5703 47.8027-84.5703C44.6289-84.5703 41.5527-83.8379 38.7695-82.2266L20.3125-72.0703C14.6973-68.9941 12.4512-65.2344 12.4512-59.375L12.4512 6.15234C12.4512 12.6953 17.1875 17.041 24.1211 17.041ZM42.1875-9.52148L31.1523-3.41797C30.4688-3.02734 29.8828-2.92969 29.4434-2.92969C28.1738-2.92969 27.5391-4.00391 27.5391-5.46875L27.5391-54.0527C27.5391-56.4453 28.1738-57.2754 30.1758-58.3984L41.3574-64.502C41.6504-64.6973 41.8945-64.7949 42.1875-64.9902ZM89.8438-3.125L89.8438-57.1289L100.83-63.1348C101.27-63.3789 101.709-63.5254 102.148-63.5254C103.467-63.5254 104.492-62.4512 104.492-61.1816L104.492-14.1113C104.492-11.7188 103.809-10.8398 101.855-9.76562L92.1387-4.39453C91.4062-3.95508 90.5762-3.51562 89.8438-3.125ZM58.0566-11.8652L58.0566-63.1348C58.5449-62.8906 59.0332-62.5488 59.5703-62.3047L73.9746-54.3945L73.9746-3.02734C73.5352-3.27148 73.0469-3.51562 72.6562-3.75977Z"/>
  </g>
  <g id="Heavy-M" transform="matrix(1 0 0 1 2571.33 1126)">
   <path d="M22.6562 15.625C25.4883 15.625 27.7344 14.5996 30.8594 12.8418L50.9766 1.85547L73.3398 14.2578C76.2695 15.8691 79.248 16.6504 82.2266 16.6504C85.3027 16.6504 88.3301 15.8203 91.3086 14.209L111.279 3.02734C116.26 0.292969 118.262-3.4668 118.262-8.69141L118.262-73.584C118.262-79.4434 114.16-83.4473 108.057-83.4473C105.225-83.4473 103.027-82.1777 99.8535-80.4199L79.3457-69.043L56.7383-81.8848C53.8086-83.4961 50.7324-84.2773 47.6074-84.2773C44.7754-84.2773 42.041-83.5938 39.5508-82.1777L19.4336-70.9961C14.502-68.2617 12.4512-64.8438 12.4512-59.5703L12.4512 5.95703C12.4512 11.8164 16.5527 15.625 22.6562 15.625ZM42.5293-9.96094L28.9062-2.44141C28.3203-2.14844 27.832-2.00195 27.4414-2.00195C26.3672-2.00195 25.8301-2.88086 25.8301-4.15039L25.8301-55.0781C25.8301-57.1777 26.416-58.0078 28.2227-59.0332L41.5039-66.4551C41.8457-66.6992 42.1875-66.8457 42.5293-67.0898ZM56.543-11.5723L56.543-65.3809C57.0312-65.1367 57.5195-64.8438 58.0078-64.5508L74.2188-55.3711L74.2188-1.70898C73.7305-2.00195 73.1445-2.24609 72.6562-2.53906ZM88.1836-1.5625L88.1836-57.5684L101.758-65.0391C102.148-65.2344 102.539-65.3809 102.93-65.3809C104.053-65.3809 104.883-64.4531 104.883-63.3789L104.883-13.623C104.883-11.5234 104.248-10.6445 102.49-9.66797L90.4785-2.88086C89.6973-2.44141 88.916-2.00195 88.1836-1.5625Z"/>
  </g>
  <g id="Bold-M" transform="matrix(1 0 0 1 2275.35 1126)">
   <path d="M21.0449 14.0137C23.3398 14.0137 25.1953 13.2324 27.832 11.7676L49.5605-0.0488281L73.5352 13.2812C76.0254 14.6973 78.6621 15.3809 81.25 15.3809C83.8379 15.3809 86.4258 14.6973 88.8672 13.3301L110.742 1.02539C114.99-1.31836 116.797-4.58984 116.797-9.17969L116.797-74.3652C116.797-79.4434 113.428-82.7637 108.203-82.7637C105.908-82.7637 104.053-81.7871 101.465-80.3223L79.0527-67.9199L55.0781-81.9336C52.6855-83.3008 50.0488-83.9844 47.4121-83.9844C44.9707-83.9844 42.5293-83.3984 40.3809-82.1289L18.5059-69.8242C14.2578-67.4316 12.4512-64.4043 12.4512-59.8633L12.4512 5.76172C12.4512 10.8398 15.8203 14.0137 21.0449 14.0137ZM42.9688-10.498L26.416-1.36719C25.9277-1.12305 25.5371-0.976562 25.1953-0.976562C24.3652-0.976562 23.9258-1.70898 23.9258-2.63672L23.9258-56.2012C23.9258-58.0078 24.4629-58.8379 26.0254-59.7656L41.6504-68.6523C42.0898-68.9453 42.4805-69.1406 42.9688-69.3848ZM54.834-11.2305L54.834-67.9199C55.3223-67.6758 55.8594-67.3828 56.3477-67.0898L74.4629-56.4941L74.4629-0.292969C73.877-0.585938 73.291-0.878906 72.7051-1.2207ZM86.2793 0.0976562L86.2793-58.1055L102.832-67.1387C103.174-67.334 103.516-67.4316 103.809-67.4316C104.688-67.4316 105.322-66.748 105.322-65.8691L105.322-13.0371C105.322-11.2793 104.736-10.4004 103.223-9.52148L88.5742-1.12305C87.8418-0.683594 87.0605-0.292969 86.2793 0.0976562Z"/>
  </g>
  <g id="Semibold-M" transform="matrix(1 0 0 1 1979.16 1126)">
   <path d="M19.9219 12.9395C21.8262 12.9395 23.4863 12.2559 25.7324 11.0352L48.584-1.36719L73.6328 12.6465C75.9277 13.916 78.2715 14.502 80.5664 14.502C82.8125 14.502 85.1074 13.916 87.1582 12.7441L110.4-0.390625C114.16-2.49023 115.771-5.41992 115.771-9.47266L115.771-74.9023C115.771-79.4434 112.891-82.2754 108.301-82.2754C106.396-82.2754 104.785-81.4941 102.539-80.2734L78.8574-67.1387L53.9551-81.9824C51.9043-83.1543 49.6094-83.7402 47.3145-83.7402C45.1172-83.7402 42.9199-83.2031 41.0156-82.0801L17.8223-68.9941C14.0625-66.8945 12.4512-64.1113 12.4512-60.0098L12.4512 5.61523C12.4512 10.1562 15.332 12.9395 19.9219 12.9395ZM43.2129-10.8398L24.707-0.634766C24.3164-0.439453 23.9258-0.292969 23.6816-0.292969C22.998-0.292969 22.6074-0.830078 22.6074-1.66016L22.6074-56.9824C22.6074-58.5938 23.1445-59.4238 24.5605-60.2539L41.748-70.166C42.2852-70.459 42.7246-70.7031 43.2129-70.9961ZM53.6133-11.0352L53.6133-69.6777C54.1504-69.4336 54.6875-69.0918 55.1758-68.8477L74.6094-57.2266L74.6094 0.683594C73.9746 0.390625 73.3398 0.0488281 72.7051-0.292969ZM85.0098 1.26953L85.0098-58.4473L103.516-68.5547C103.857-68.75 104.15-68.8477 104.443-68.8477C105.127-68.8477 105.615-68.3105 105.615-67.5781L105.615-12.6465C105.615-11.084 105.078-10.2539 103.711-9.42383L87.2559 0.0488281C86.5234 0.488281 85.7422 0.878906 85.0098 1.26953Z"/>
  </g>
  <g id="Medium-M" transform="matrix(1 0 0 1 1682.83 1126)">
   <path d="M19.0918 12.1094C20.7031 12.1094 22.168 11.5723 24.1211 10.4492L47.8516-2.34375L73.7305 12.1582C75.7812 13.2812 77.9297 13.8184 80.0293 13.8184C82.0801 13.8184 84.082 13.3301 85.8887 12.2559L110.156-1.41602C113.525-3.32031 114.99-6.00586 114.99-9.7168L114.99-75.293C114.99-79.4434 112.5-81.9336 108.398-81.9336C106.787-81.9336 105.322-81.2988 103.32-80.2246L78.7109-66.5527L53.125-81.9824C51.2695-83.0566 49.2676-83.5938 47.2168-83.5938C45.2148-83.5938 43.2129-83.1055 41.4551-82.0801L17.334-68.3594C13.9648-66.4551 12.4512-63.8672 12.4512-60.1562L12.4512 5.51758C12.4512 9.66797 14.9414 12.1094 19.0918 12.1094ZM43.457-11.084L23.3887-0.0488281C23.0469 0.0976562 22.7539 0.244141 22.5098 0.244141C21.9238 0.244141 21.6309-0.195312 21.6309-0.878906L21.6309-57.6172C21.6309-58.9844 22.1191-59.8633 23.3887-60.5957L41.8457-71.2891C42.3828-71.6309 42.8711-71.875 43.457-72.168ZM52.7344-10.8398L52.7344-70.9961C53.2227-70.752 53.7598-70.459 54.248-70.166L74.707-57.8125L74.707 1.46484C74.0723 1.12305 73.4375 0.78125 72.7539 0.390625ZM84.0332 2.14844L84.0332-58.7402L104.102-69.6777C104.346-69.8242 104.639-69.9219 104.883-69.9219C105.469-69.9219 105.859-69.4824 105.859-68.8477L105.859-12.4023C105.859-10.9863 105.371-10.1074 104.053-9.375L86.2793 0.927734C85.5469 1.36719 84.7656 1.80664 84.0332 2.14844Z"/>
  </g>
  <g id="Regular-M" transform="matrix(1 0 0 1 1386.61 1126)">
   <path d="M17.9688 11.0352C19.1895 11.0352 20.459 10.5957 22.0215 9.7168L46.875-3.66211L73.877 11.4746C75.6348 12.4512 77.5391 12.9395 79.3457 12.9395C81.0547 12.9395 82.7637 12.5 84.2285 11.6699L109.766-2.83203C112.695-4.44336 114.014-6.78711 114.014-10.0586L114.014-75.8301C114.014-79.4434 112.012-81.4453 108.496-81.4453C107.275-81.4453 106.006-81.0547 104.395-80.1758L78.5156-65.7715L52.002-82.0312C50.4883-82.9102 48.7793-83.3984 47.0703-83.3984C45.3125-83.3984 43.5547-82.9102 42.041-82.0312L16.6504-67.5781C13.7695-65.918 12.4512-63.5742 12.4512-60.3027L12.4512 5.37109C12.4512 8.98438 14.4531 11.0352 17.9688 11.0352ZM43.7012-11.4258L21.6797 0.683594C21.4355 0.78125 21.1914 0.927734 20.9473 0.927734C20.5566 0.927734 20.3125 0.634766 20.3125 0.146484L20.3125-58.3984C20.3125-59.5703 20.752-60.4004 21.9238-61.084L41.9434-72.8027C42.5781-73.1445 43.1152-73.4375 43.7012-73.7793ZM51.5625-10.6445L51.5625-72.7539C52.0508-72.4609 52.6367-72.168 53.125-71.875L74.9023-58.5938L74.9023 2.44141C74.2188 2.05078 73.4863 1.70898 72.7539 1.31836ZM82.7637 3.32031L82.7637-59.082L104.785-71.0938C105.029-71.2402 105.273-71.3379 105.469-71.3379C105.908-71.3379 106.152-71.0449 106.152-70.5566L106.152-12.0117C106.152-10.791 105.664-9.96094 104.541-9.27734L84.9609 2.09961C84.2285 2.53906 83.4961 2.97852 82.7637 3.32031Z"/>
  </g>
  <g id="Light-M" transform="matrix(1 0 0 1 1091.54 1126)">
   <path d="M17.0898 10.1074C18.1641 10.1074 19.2383 9.7168 20.6055 8.98438L45.6543-4.78516L72.3145 10.6445C73.9746 11.6211 75.6836 12.1094 77.2949 12.1094C78.8574 12.1094 80.4199 11.6699 81.9336 10.791L107.178-3.75977C109.668-5.17578 110.742-7.03125 110.742-9.91211L110.742-75.6348C110.742-78.7598 109.033-80.5176 106.104-80.5176C105.029-80.5176 103.955-80.1758 102.637-79.4434L76.8555-65.2344L50.7324-81.1523C49.1699-82.0801 47.5098-82.5684 45.8496-82.5684C44.1406-82.5684 42.4316-82.0801 40.8691-81.1523L16.0645-66.6504C13.5742-65.2344 12.4512-63.4277 12.4512-60.498L12.4512 5.17578C12.4512 8.30078 14.1602 10.1074 17.0898 10.1074ZM43.2129-10.6445L19.9707 2.24609C19.7266 2.39258 19.4824 2.49023 19.2383 2.49023C18.7988 2.49023 18.5059 2.14844 18.5059 1.5625L18.5059-59.0332C18.5059-60.2539 18.8965-61.084 20.0684-61.7676L41.5527-74.5117C42.1387-74.8047 42.627-75.0977 43.2129-75.3418ZM49.2676-10.1074L49.2676-74.6582C49.7559-74.4629 50.293-74.1699 50.7812-73.877L73.9746-59.7656L73.9746 4.15039C73.3398 3.90625 72.6562 3.56445 72.0703 3.22266ZM79.9805 4.78516L79.9805-60.0586L103.223-72.7051C103.467-72.8516 103.711-72.9492 103.955-72.9492C104.395-72.9492 104.736-72.6074 104.736-72.0215L104.736-11.377C104.736-10.2051 104.297-9.32617 103.174-8.64258L81.9824 3.75977C81.2988 4.15039 80.6641 4.49219 79.9805 4.78516Z"/>
  </g>
  <g id="Thin-M" transform="matrix(1 0 0 1 796.974 1126)">
   <path d="M15.918 8.88672C16.7969 8.88672 17.6758 8.49609 18.6523 7.95898L44.043-6.25L70.2148 9.57031C71.7773 10.498 73.1934 10.9375 74.6094 10.9375C75.9766 10.9375 77.3438 10.5469 78.9062 9.61914L103.711-5.0293C105.664-6.15234 106.445-7.32422 106.445-9.76562L106.445-75.3906C106.445-77.9297 105.127-79.3457 102.979-79.3457C102.148-79.3457 101.221-79.0039 100.244-78.4668L74.6094-64.4531L49.0723-79.9805C47.4121-80.957 45.8008-81.4453 44.1895-81.4453C42.5293-81.4453 40.918-80.957 39.3066-79.9805L15.2344-65.4785C13.2812-64.3555 12.4512-63.1836 12.4512-60.6934L12.4512 4.88281C12.4512 7.42188 13.8184 8.88672 15.918 8.88672ZM42.5293-9.57031L17.7246 4.3457C17.4805 4.44336 17.2363 4.54102 16.9922 4.54102C16.4551 4.54102 16.0645 4.10156 16.0645 3.4668L16.0645-59.9609C16.0645-61.1328 16.4062-61.9629 17.5781-62.6465L41.0156-76.7578C41.5039-77.0508 42.041-77.2949 42.5293-77.4414ZM46.1914-9.375L46.1914-77.2461C46.6797-77.0996 47.2168-76.8066 47.7051-76.5625L72.7539-61.2793L72.7539 6.49414C72.2168 6.29883 71.582 6.00586 71.0938 5.76172ZM76.3672 6.68945L76.3672-61.377L101.172-74.8535C101.416-74.9512 101.66-75.0488 101.904-75.0488C102.441-75.0488 102.832-74.6094 102.832-73.9746L102.832-10.5469C102.832-9.375 102.49-8.54492 101.318-7.86133L78.0273 5.95703C77.4414 6.25 76.9043 6.54297 76.3672 6.68945Z"/>
  </g>
  <g id="Ultralight-M" transform="matrix(1 0 0 1 501.362 1126)">
   <path d="M15.332 8.25195C16.0645 8.25195 16.8945 7.86133 17.6758 7.4707L43.2129-7.03125L69.1406 8.98438C70.6543 9.96094 71.9238 10.3516 73.2422 10.3516C74.4629 10.3516 75.7812 9.96094 77.3438 8.98438L101.953-5.66406C103.613-6.64062 104.248-7.4707 104.248-9.7168L104.248-75.2441C104.248-77.4902 103.076-78.7109 101.367-78.7109C100.635-78.7109 99.8535-78.418 99.0234-77.9785L73.4863-64.0625L48.2422-79.3945C46.5332-80.4199 44.9219-80.9082 43.3594-80.9082C41.748-80.9082 40.1367-80.4199 38.4766-79.3945L14.7949-64.8926C13.1348-63.916 12.4512-63.0371 12.4512-60.8398L12.4512 4.73633C12.4512 6.93359 13.623 8.25195 15.332 8.25195ZM44.6289-8.98438L44.6289-78.5645C45.1172-78.418 45.6543-78.1738 46.0938-77.9297L72.1191-62.0605L72.1191 7.66602C71.6309 7.51953 71.0449 7.27539 70.6055 7.03125ZM42.2363-9.0332L16.6016 5.41992C16.3574 5.51758 16.1133 5.56641 15.8691 5.56641C15.2832 5.56641 14.8438 5.12695 14.8438 4.44336L14.8438-60.4004C14.8438-61.6211 15.1367-62.4023 16.3574-63.0859L40.7227-77.9297C41.2109-78.1738 41.6992-78.418 42.2363-78.5156ZM74.5117 7.71484L74.5117-62.0605L100.098-75.9277C100.391-76.0254 100.635-76.123 100.879-76.123C101.416-76.123 101.855-75.6836 101.855-75L101.855-10.1074C101.855-8.93555 101.562-8.10547 100.391-7.42188L75.9766 7.08008C75.4883 7.32422 75 7.56836 74.5117 7.71484Z"/>
  </g>
  <g id="Black-S" transform="matrix(1 0 0 1 2881.69 696)">
   <path d="M18.7988 5.61523C21.3867 5.61523 23.3398 4.6875 26.123 3.125L40.8691-4.98047L57.373 4.15039C59.9121 5.56641 62.5 6.25 65.0879 6.25C67.7734 6.25 70.459 5.51758 73.0957 4.05273L87.5488-3.95508C91.8945-6.34766 93.6523-9.61914 93.6523-14.1602L93.6523-64.7949C93.6523-69.873 89.9902-73.4375 84.6191-73.4375C82.0312-73.4375 80.127-72.2656 77.2949-70.7031L62.4023-62.4512L45.5078-71.7773C42.9199-73.1934 40.1855-73.877 37.4512-73.877C35.0098-73.877 32.6172-73.291 30.4688-72.0703L15.8691-64.0137C11.5234-61.6211 9.76562-58.6914 9.76562-54.1504L9.76562-2.83203C9.76562 2.24609 13.4277 5.61523 18.7988 5.61523ZM33.1055-15.1367L24.2676-10.2539C23.7305-9.96094 23.291-9.86328 22.9492-9.86328C21.9727-9.86328 21.4844-10.6934 21.4844-11.8164L21.4844-50.0488C21.4844-51.9043 21.9727-52.5391 23.5352-53.418L32.4219-58.3008C32.666-58.4473 32.8613-58.5449 33.1055-58.6914ZM70.3125-9.96094L70.3125-52.3926L79.1016-57.2266C79.4434-57.4219 79.7852-57.5195 80.127-57.5195C81.1523-57.5195 81.9336-56.6895 81.9336-55.7129L81.9336-18.6523C81.9336-16.7969 81.3965-16.1133 79.8828-15.2832L72.1191-10.9863C71.5332-10.6445 70.8984-10.3027 70.3125-9.96094ZM45.4102-16.8945L45.4102-57.2266C45.8008-57.0312 46.1914-56.7871 46.582-56.5918L58.0078-50.293L58.0078-9.91211C57.666-10.1074 57.2754-10.3027 56.9336-10.498Z"/>
  </g>
  <g id="Heavy-S" transform="matrix(1 0 0 1 2585.3 696)">
   <path d="M17.7734 4.63867C20.0195 4.63867 21.7285 3.85742 24.2188 2.49023L40.0391-6.15234L57.666 3.61328C59.9609 4.83398 62.3047 5.46875 64.6484 5.46875C67.041 5.46875 69.3848 4.83398 71.6797 3.56445L87.5-5.22461C91.4062-7.37305 93.0176-10.4004 93.0176-14.502L93.0176-65.332C93.0176-69.9219 89.7949-73.0469 84.9609-73.0469C82.7637-73.0469 81.0547-72.1191 78.5645-70.7031L62.4023-61.7188L44.5312-71.9238C42.2852-73.1445 39.8926-73.7305 37.4512-73.7305C35.2539-73.7305 33.1055-73.2422 31.2012-72.1191L15.2832-63.2812C11.377-61.1328 9.76562-58.3984 9.76562-54.2969L9.76562-2.92969C9.76562 1.66016 12.9883 4.63867 17.7734 4.63867ZM33.4473-15.5762L22.7539-9.66797C22.2656-9.42383 21.9238-9.32617 21.6309-9.32617C20.8008-9.32617 20.3613-10.0098 20.3613-10.9863L20.3613-50.7324C20.3613-52.3926 20.8496-53.0273 22.2656-53.8574L32.5684-59.6191C32.8613-59.7656 33.1543-59.9121 33.4473-60.1074ZM69.3359-8.98438L69.3359-52.6367L79.9805-58.4961C80.2734-58.6426 80.6152-58.7402 80.9082-58.7402C81.7383-58.7402 82.373-58.0566 82.373-57.2266L82.373-18.3594C82.373-16.6992 81.8848-16.0156 80.5176-15.2832L71.1426-10.0098C70.5566-9.61914 69.9219-9.27734 69.3359-8.98438ZM44.4824-16.748L44.4824-58.7402C44.873-58.5449 45.3125-58.3008 45.6543-58.1055L58.252-50.9277L58.252-9.13086C57.8613-9.32617 57.4219-9.57031 57.0312-9.81445Z"/>
  </g>
  <g id="Bold-S" transform="matrix(1 0 0 1 2288.95 696)">
   <path d="M16.6504 3.56445C18.457 3.56445 19.9707 2.92969 22.0703 1.75781L39.1113-7.4707L58.0078 2.97852C60.0098 4.05273 62.1094 4.58984 64.1113 4.58984C66.2109 4.58984 68.2129 4.05273 70.1172 3.02734L87.4023-6.68945C90.8203-8.54492 92.2852-11.2305 92.2852-14.8438L92.2852-65.9668C92.2852-70.0195 89.5996-72.6562 85.4004-72.6562C83.5938-72.6562 82.0801-71.9238 79.9805-70.752L62.3535-60.9375L43.457-72.0703C41.5527-73.0957 39.502-73.6328 37.5-73.6328C35.5469-73.6328 33.6426-73.1445 31.9824-72.2168L14.6484-62.5C11.2305-60.5957 9.76562-58.1055 9.76562-54.4922L9.76562-3.07617C9.76562 0.976562 12.4512 3.56445 16.6504 3.56445ZM33.7891-16.0645L21.0449-9.08203C20.6543-8.88672 20.3613-8.78906 20.1172-8.78906C19.4824-8.78906 19.1406-9.27734 19.1406-10.0098L19.1406-51.5625C19.1406-52.9297 19.5801-53.6133 20.8008-54.2969L32.7637-61.084C33.1055-61.2793 33.4473-61.4746 33.7891-61.6699ZM43.457-16.5527L43.457-60.4492C43.8477-60.2539 44.2871-60.0098 44.6777-59.7656L58.5938-51.6113L58.5938-8.25195C58.1055-8.49609 57.6172-8.74023 57.1289-8.98438ZM68.2617-7.86133L68.2617-52.9297L81.0059-59.9121C81.25-60.0586 81.543-60.1562 81.7871-60.1562C82.4219-60.1562 82.9102-59.6191 82.9102-58.9355L82.9102-18.0176C82.9102-16.6016 82.4219-15.918 81.25-15.2344L70.0684-8.88672C69.4824-8.49609 68.8477-8.20312 68.2617-7.86133Z"/>
  </g>
  <g id="Semibold-S" transform="matrix(1 0 0 1 1992.49 696)">
   <path d="M15.8691 2.7832C17.4316 2.7832 18.75 2.24609 20.5566 1.26953L38.4277-8.34961L58.252 2.53906C60.0586 3.51562 61.9141 4.00391 63.7695 4.00391C65.625 4.00391 67.4316 3.51562 69.043 2.63672L87.3535-7.66602C90.4297-9.375 91.7969-11.8164 91.7969-15.1367L91.7969-66.3574C91.7969-70.0684 89.4531-72.3633 85.6445-72.3633C84.1309-72.3633 82.8125-71.7773 80.957-70.752L62.3535-60.4004L42.6758-72.168C41.0645-73.0469 39.3066-73.5352 37.5-73.5352C35.7422-73.5352 34.0332-73.0957 32.5195-72.2656L14.1602-61.9629C11.084-60.2539 9.76562-57.9102 9.76562-54.5898L9.76562-3.17383C9.76562 0.537109 12.1094 2.7832 15.8691 2.7832ZM34.0332-16.4062L19.873-8.64258C19.5312-8.44727 19.2871-8.34961 19.0918-8.34961C18.5547-8.34961 18.3105-8.78906 18.3105-9.375L18.3105-52.0996C18.3105-53.3203 18.7012-53.9551 19.8242-54.6387L32.8613-62.0605C33.3008-62.3047 33.6426-62.5 34.0332-62.7441ZM42.7734-16.4551L42.7734-61.6211C43.1641-61.4258 43.6035-61.1816 43.9941-60.9375L58.7891-52.0996L58.7891-7.61719C58.252-7.91016 57.7637-8.1543 57.2266-8.44727ZM67.4805-7.08008L67.4805-53.0762L81.6895-60.8398C81.9336-60.9863 82.1289-61.084 82.373-61.084C82.9102-61.084 83.252-60.6934 83.252-60.1074L83.252-17.7734C83.252-16.5527 82.8125-15.8691 81.7383-15.2344L69.3359-8.10547C68.75-7.76367 68.1152-7.42188 67.4805-7.08008Z"/>
  </g>
  <g id="Medium-S" transform="matrix(1 0 0 1 1695.97 696)">
   <path d="M15.2832 2.19727C16.6016 2.19727 17.8223 1.75781 19.4336 0.878906L37.9395-9.0332L58.3984 2.19727C60.0586 3.07617 61.8164 3.51562 63.5254 3.51562C65.1855 3.51562 66.7969 3.125 68.2129 2.34375L87.3535-8.39844C90.1367-9.96094 91.4062-12.2559 91.4062-15.2832L91.4062-66.6992C91.4062-70.1172 89.3555-72.168 85.8887-72.168C84.5703-72.168 83.3496-71.6797 81.6895-70.752L62.3535-59.9609L42.0898-72.2168C40.7227-73.0469 39.1113-73.4375 37.5-73.4375C35.8887-73.4375 34.3262-73.0469 32.959-72.2656L13.8184-61.5234C11.0352-59.9609 9.76562-57.7637 9.76562-54.6875L9.76562-3.22266C9.76562 0.195312 11.8164 2.19727 15.2832 2.19727ZM34.2285-16.6504L18.9453-8.30078C18.7012-8.1543 18.457-8.05664 18.3105-8.05664C17.8711-8.05664 17.627-8.39844 17.627-8.88672L17.627-52.4902C17.627-53.6133 18.0664-54.248 19.043-54.8828L32.959-62.8418C33.3984-63.0859 33.7891-63.3301 34.2285-63.5742ZM42.2363-16.3574L42.2363-62.5C42.627-62.3047 43.0664-62.0605 43.457-61.8164L58.9355-52.4902L58.9355-7.17773C58.3984-7.4707 57.8613-7.76367 57.2754-8.05664ZM66.9434-6.49414L66.9434-53.2227L82.1777-61.5723C82.4219-61.7188 82.6172-61.8164 82.8125-61.8164C83.252-61.8164 83.4961-61.4746 83.4961-61.0352L83.4961-17.5781C83.4961-16.4551 83.1055-15.7715 82.1289-15.1855L68.7988-7.51953C68.1641-7.17773 67.5293-6.83594 66.9434-6.49414Z"/>
  </g>
  <g id="Regular-S" transform="matrix(1 0 0 1 1399.5 696)">
   <path d="M14.502 1.46484C15.5762 1.46484 16.6016 1.12305 17.9688 0.390625L37.3047-9.96094L58.6426 1.75781C60.1074 2.53906 61.6699 2.92969 63.1836 2.92969C64.5996 2.92969 66.0156 2.58789 67.1387 1.95312L87.3047-9.375C89.7461-10.7422 90.918-12.8418 90.918-15.5762L90.918-67.0898C90.918-70.166 89.209-71.875 86.1328-71.875C85.1074-71.875 84.0332-71.5332 82.666-70.8008L62.3535-59.4238L41.3574-72.3145C40.2344-72.998 38.8672-73.3398 37.5-73.3398C36.084-73.3398 34.668-72.998 33.4961-72.3145L13.3789-60.9863C10.8887-59.6191 9.76562-57.5195 9.76562-54.834L9.76562-3.32031C9.76562-0.244141 11.4746 1.46484 14.502 1.46484ZM34.4727-16.9434L17.8223-7.86133C17.627-7.76367 17.4316-7.66602 17.2852-7.66602C16.9434-7.66602 16.7969-7.86133 16.7969-8.20312L16.7969-53.0273C16.7969-53.9551 17.1875-54.6387 18.0664-55.1758L33.1055-63.8184C33.5938-64.1113 34.0332-64.3555 34.4727-64.6484ZM41.5527-16.2109L41.5527-63.6719C41.9434-63.4277 42.3828-63.1836 42.7734-62.9395L59.1309-52.9785L59.1309-6.54297C58.5449-6.88477 57.959-7.17773 57.373-7.51953ZM66.1621-5.71289L66.1621-53.418L82.8613-62.5488C83.0566-62.6465 83.252-62.7441 83.3984-62.7441C83.6914-62.7441 83.8379-62.5488 83.8379-62.207L83.8379-17.334C83.8379-16.4062 83.4961-15.7227 82.6172-15.1855L68.0176-6.78711C67.4316-6.39648 66.7969-6.05469 66.1621-5.71289Z"/>
  </g>
  <g id="Light-S" transform="matrix(1 0 0 1 1104.23 696)">
   <path d="M13.7207 0.634766C14.6484 0.634766 15.5762 0.341797 16.6992-0.292969L36.2305-10.9375L57.2266 1.02539C58.5938 1.80664 60.0098 2.19727 61.377 2.19727C62.6465 2.19727 63.916 1.85547 65.0879 1.17188L84.9609-10.2051C87.0605-11.4258 88.0371-13.0371 88.0371-15.4785L88.0371-66.9434C88.0371-69.5801 86.5723-71.0938 84.082-71.0938C83.1543-71.0938 82.2266-70.752 81.1035-70.1172L60.8398-58.9355L40.2344-71.5332C39.0625-72.2656 37.6953-72.6074 36.4258-72.6074C35.0586-72.6074 33.6914-72.2656 32.4707-71.5332L12.8418-60.2051C10.6934-59.0332 9.76562-57.373 9.76562-54.9805L9.76562-3.51562C9.76562-0.830078 11.2305 0.634766 13.7207 0.634766ZM34.0332-16.2598L16.3086-6.44531C16.1133-6.34766 15.918-6.29883 15.7715-6.29883C15.4297-6.29883 15.1855-6.54297 15.1855-6.93359L15.1855-53.6133C15.1855-54.541 15.5273-55.2246 16.4062-55.7617L32.7148-65.332C33.1543-65.625 33.5938-65.8203 34.0332-66.0645ZM39.502-15.7227L39.502-65.3809C39.8926-65.1855 40.332-64.9902 40.6738-64.7461L58.3008-54.0039L58.3008-5.0293C57.8125-5.27344 57.2754-5.51758 56.7383-5.81055ZM63.7207-4.44336L63.7207-54.2969L81.4941-63.9648C81.6895-64.0625 81.8848-64.1602 82.0312-64.1602C82.373-64.1602 82.6172-63.916 82.6172-63.4766L82.6172-16.7969C82.6172-15.8691 82.2754-15.1855 81.3477-14.6484L65.3809-5.32227C64.8438-4.98047 64.3066-4.6875 63.7207-4.44336Z"/>
  </g>
  <g id="Thin-S" transform="matrix(1 0 0 1 809.425 696)">
   <path d="M12.6953-0.439453C13.4277-0.439453 14.1602-0.732422 14.9902-1.17188L34.8145-12.2559L55.4199 0.0976562C56.6406 0.830078 57.8125 1.17188 58.9844 1.17188C60.0586 1.17188 61.1816 0.830078 62.4023 0.146484L81.9336-11.3281C83.5449-12.2559 84.2285-13.2812 84.2285-15.332L84.2285-66.748C84.2285-68.8477 83.1055-70.0195 81.2988-70.0195C80.5664-70.0195 79.834-69.7266 79.0039-69.2871L58.8867-58.3008L38.7695-70.5078C37.5-71.2891 36.2305-71.6797 34.9609-71.6797C33.6426-71.6797 32.3242-71.2891 31.1035-70.5078L12.1094-59.1797C10.4492-58.2031 9.76562-57.1777 9.76562-55.127L9.76562-3.75977C9.76562-1.66016 10.8887-0.439453 12.6953-0.439453ZM33.4961-15.332L14.3555-4.63867C14.1602-4.54102 13.9648-4.49219 13.7695-4.49219C13.3789-4.49219 13.0859-4.78516 13.0859-5.27344L13.0859-54.4434C13.0859-55.3711 13.3301-56.0059 14.2578-56.543L32.2266-67.334C32.666-67.5781 33.0566-67.7734 33.4961-67.9199ZM36.7676-15.0879L36.7676-67.6758C37.1582-67.5293 37.5977-67.334 37.9395-67.0898L57.2266-55.3223L57.2266-2.97852C56.7871-3.17383 56.2988-3.36914 55.9082-3.61328ZM60.5469-2.73438L60.5469-55.4688L79.6875-65.8691C79.8828-65.9668 80.0781-66.0156 80.2246-66.0156C80.6641-66.0156 80.957-65.7227 80.957-65.2344L80.957-16.0645C80.957-15.1367 80.6641-14.4531 79.7363-13.916L61.8652-3.36914C61.4258-3.125 60.9863-2.88086 60.5469-2.73438Z"/>
  </g>
  <g id="Ultralight-S" transform="matrix(1 0 0 1 513.691 696)">
   <path d="M12.1582-0.976562C12.793-0.976562 13.4277-1.26953 14.1113-1.66016L34.082-12.9395L54.4434-0.439453C55.6641 0.292969 56.6895 0.634766 57.7637 0.634766C58.7402 0.634766 59.8145 0.292969 60.9863-0.390625L80.3223-11.8652C81.7383-12.6953 82.2754-13.4277 82.2754-15.2344L82.2754-66.6504C82.2754-68.457 81.2988-69.4824 79.8828-69.4824C79.248-69.4824 78.6133-69.1895 77.9297-68.8477L57.9102-57.959L38.0371-69.9707C36.7188-70.752 35.4492-71.1426 34.2285-71.1426C32.9102-71.1426 31.6406-70.752 30.3711-69.9707L11.7188-58.6426C10.3516-57.8125 9.76562-57.0801 9.76562-55.2734L9.76562-3.85742C9.76562-2.05078 10.7422-0.976562 12.1582-0.976562ZM33.1543-14.8438L13.3301-3.66211C13.1348-3.56445 12.9395-3.51562 12.7441-3.51562C12.3047-3.51562 11.9629-3.85742 11.9629-4.39453L11.9629-54.834C11.9629-55.7617 12.207-56.3965 13.1348-56.9336L31.9824-68.3594C32.373-68.5547 32.7637-68.75 33.1543-68.8965ZM35.4004-14.7949L35.4004-68.8477C35.791-68.7012 36.2305-68.5059 36.5723-68.3105L56.6895-56.0547L56.6895-1.95312C56.25-2.05078 55.8105-2.24609 55.4688-2.44141ZM58.8867-1.85547L58.8867-56.0547L78.7109-66.7969C78.9062-66.8945 79.1016-66.9922 79.2969-66.9922C79.7363-66.9922 80.0781-66.6504 80.0781-66.1133L80.0781-15.6738C80.0781-14.7461 79.834-14.1113 78.9062-13.5742L60.0586-2.39258C59.668-2.14844 59.2773-1.95312 58.8867-1.85547Z"/>
  </g>
 </g>
</svg>
