# WaveFront *.obj file (generated by Cheetah3D)

mtllib simplestfir1.mtl

g Cone
v 0.000000 0.000000 0.000000
v 0.000000 0.000000 0.350000
v 0.303109 0.000000 -0.175000
v -0.303109 0.000000 -0.175000
v 0.000000 1.000000 0.000000

vt 0.500000 0.500000
vt 0.500000 0.000000
vt 0.933013 0.750000
vt 0.066987 0.750000
vt 0.333333 1.000000
vt 0.333333 0.000000
vt 0.000000 0.000000
vt 0.666667 1.000000
vt 0.666667 0.000000
vt 1.000000 1.000000
vt 1.000000 0.000000

vn 0.000000 -1.000000 0.000000
vn 0.853061 0.172380 0.492515
vn -0.000000 0.172380 -0.985030
vn -0.853061 0.172380 0.492515

usemtl Vegetation
f 3/3/1 2/2/1 1/1/1
f 4/4/1 3/3/1 1/1/1
f 2/2/1 4/4/1 1/1/1
f 2/7/2 3/6/2 5/5/2
f 3/6/3 4/9/3 5/8/3
f 4/9/4 2/11/4 5/10/4

usemtl default

