<?xml version="1.0" encoding="UTF-8"?>
<!--Generator: Apple Native CoreSVG 149-->
<!DOCTYPE svg
PUBLIC "-//W3C//DTD SVG 1.1//EN"
       "http://www.w3.org/Graphics/SVG/1.1/DTD/svg11.dtd">
<svg version="1.1" xmlns="http://www.w3.org/2000/svg" xmlns:xlink="http://www.w3.org/1999/xlink" width="3300" height="2200">
 <!--glyph: "uni10016A.medium", point size: 100.000000, font version: "Version 16.0d12e3", template writer version: "8"-->
 <g id="Notes">
  <rect height="2200" id="artboard" style="fill:white;opacity:1" width="3300" x="0" y="0"/>
  <line id="" style="fill:none;stroke:black;opacity:1;stroke-width:0.5;" x1="263" x2="3036" y1="292" y2="292"/>
  <text style="stroke:none;fill:black;font-family:-apple-system,&quot;SF Pro Display&quot;,&quot;SF Pro Text&quot;,Helvetica,sans-serif;font-weight:bold;" transform="matrix(1 0 0 1 263 322)">Weight/Scale Variations</text>
  <text style="stroke:none;fill:black;font-family:-apple-system,&quot;SF Pro Display&quot;,&quot;SF Pro Text&quot;,Helvetica,sans-serif;text-anchor:middle;" transform="matrix(1 0 0 1 559.711 322)">Ultralight</text>
  <text style="stroke:none;fill:black;font-family:-apple-system,&quot;SF Pro Display&quot;,&quot;SF Pro Text&quot;,Helvetica,sans-serif;text-anchor:middle;" transform="matrix(1 0 0 1 856.422 322)">Thin</text>
  <text style="stroke:none;fill:black;font-family:-apple-system,&quot;SF Pro Display&quot;,&quot;SF Pro Text&quot;,Helvetica,sans-serif;text-anchor:middle;" transform="matrix(1 0 0 1 1153.13 322)">Light</text>
  <text style="stroke:none;fill:black;font-family:-apple-system,&quot;SF Pro Display&quot;,&quot;SF Pro Text&quot;,Helvetica,sans-serif;text-anchor:middle;" transform="matrix(1 0 0 1 1449.84 322)">Regular</text>
  <text style="stroke:none;fill:black;font-family:-apple-system,&quot;SF Pro Display&quot;,&quot;SF Pro Text&quot;,Helvetica,sans-serif;text-anchor:middle;" transform="matrix(1 0 0 1 1746.56 322)">Medium</text>
  <text style="stroke:none;fill:black;font-family:-apple-system,&quot;SF Pro Display&quot;,&quot;SF Pro Text&quot;,Helvetica,sans-serif;text-anchor:middle;" transform="matrix(1 0 0 1 2043.27 322)">Semibold</text>
  <text style="stroke:none;fill:black;font-family:-apple-system,&quot;SF Pro Display&quot;,&quot;SF Pro Text&quot;,Helvetica,sans-serif;text-anchor:middle;" transform="matrix(1 0 0 1 2339.98 322)">Bold</text>
  <text style="stroke:none;fill:black;font-family:-apple-system,&quot;SF Pro Display&quot;,&quot;SF Pro Text&quot;,Helvetica,sans-serif;text-anchor:middle;" transform="matrix(1 0 0 1 2636.69 322)">Heavy</text>
  <text style="stroke:none;fill:black;font-family:-apple-system,&quot;SF Pro Display&quot;,&quot;SF Pro Text&quot;,Helvetica,sans-serif;text-anchor:middle;" transform="matrix(1 0 0 1 2933.4 322)">Black</text>
  <line id="" style="fill:none;stroke:black;opacity:1;stroke-width:0.5;" x1="263" x2="3036" y1="1903" y2="1903"/>
  <g id="" transform="matrix(1 0 0 1 263 1933)">
   <path d="M9.24805 0.830078C13.5547 0.830078 17.1387-2.74414 17.1387-7.05078C17.1387-11.3574 13.5449-14.9316 9.23828-14.9316C4.94141-14.9316 1.36719-11.3574 1.36719-7.05078C1.36719-2.74414 4.95117 0.830078 9.24805 0.830078ZM9.24805-0.654297C5.70312-0.654297 2.87109-3.49609 2.87109-7.05078C2.87109-10.6055 5.69336-13.4473 9.23828-13.4473C12.793-13.4473 15.6348-10.6055 15.6445-7.05078C15.6543-3.49609 12.8027-0.654297 9.24805-0.654297ZM9.22852-3.62305C9.69727-3.62305 9.9707-3.93555 9.9707-4.45312L9.9707-6.31836L12.002-6.31836C12.5-6.31836 12.832-6.57227 12.832-7.04102C12.832-7.51953 12.5195-7.7832 12.002-7.7832L9.9707-7.7832L9.9707-9.81445C9.9707-10.332 9.69727-10.6543 9.22852-10.6543C8.75977-10.6543 8.50586-10.3125 8.50586-9.81445L8.50586-7.7832L6.49414-7.7832C5.97656-7.7832 5.64453-7.51953 5.64453-7.04102C5.64453-6.57227 5.99609-6.31836 6.49414-6.31836L8.50586-6.31836L8.50586-4.45312C8.50586-3.95508 8.75977-3.62305 9.22852-3.62305Z"/>
  </g>
  <g id="" transform="matrix(1 0 0 1 281.506 1933)">
   <path d="M11.709 2.91016C17.1582 2.91016 21.6699-1.61133 21.6699-7.05078C21.6699-12.5 17.1484-17.0117 11.6992-17.0117C6.25977-17.0117 1.74805-12.5 1.74805-7.05078C1.74805-1.61133 6.26953 2.91016 11.709 2.91016ZM11.709 1.25C7.09961 1.25 3.41797-2.44141 3.41797-7.05078C3.41797-11.6602 7.08984-15.3516 11.6992-15.3516C16.3086-15.3516 20-11.6602 20.0098-7.05078C20.0195-2.44141 16.3184 1.25 11.709 1.25ZM11.6797-2.66602C12.207-2.66602 12.5098-3.01758 12.5098-3.59375L12.5098-6.23047L15.3223-6.23047C15.8691-6.23047 16.25-6.51367 16.25-7.03125C16.25-7.55859 15.8887-7.86133 15.3223-7.86133L12.5098-7.86133L12.5098-10.6836C12.5098-11.25 12.207-11.6113 11.6797-11.6113C11.1621-11.6113 10.8789-11.2305 10.8789-10.6836L10.8789-7.86133L8.07617-7.86133C7.50977-7.86133 7.13867-7.55859 7.13867-7.03125C7.13867-6.51367 7.5293-6.23047 8.07617-6.23047L10.8789-6.23047L10.8789-3.59375C10.8789-3.03711 11.1621-2.66602 11.6797-2.66602Z"/>
  </g>
  <g id="" transform="matrix(1 0 0 1 304.924 1933)">
   <path d="M14.9707 5.66406C21.9336 5.66406 27.6953-0.0976562 27.6953-7.05078C27.6953-14.0137 21.9238-19.7754 14.9609-19.7754C8.00781-19.7754 2.25586-14.0137 2.25586-7.05078C2.25586-0.0976562 8.01758 5.66406 14.9707 5.66406ZM14.9707 3.84766C8.93555 3.84766 4.08203-1.01562 4.08203-7.05078C4.08203-13.0957 8.92578-17.9492 14.9609-17.9492C21.0059-17.9492 25.8594-13.0957 25.8691-7.05078C25.8789-1.01562 21.0156 3.84766 14.9707 3.84766ZM14.9414-1.38672C15.5176-1.38672 15.8594-1.77734 15.8594-2.38281L15.8594-6.13281L19.7754-6.13281C20.3711-6.13281 20.7812-6.46484 20.7812-7.02148C20.7812-7.59766 20.3906-7.93945 19.7754-7.93945L15.8594-7.93945L15.8594-11.8652C15.8594-12.4805 15.5176-12.8711 14.9414-12.8711C14.375-12.8711 14.0527-12.4609 14.0527-11.8652L14.0527-7.93945L10.1465-7.93945C9.53125-7.93945 9.13086-7.59766 9.13086-7.02148C9.13086-6.46484 9.55078-6.13281 10.1465-6.13281L14.0527-6.13281L14.0527-2.38281C14.0527-1.79688 14.375-1.38672 14.9414-1.38672Z"/>
  </g>
  <text style="stroke:none;fill:black;font-family:-apple-system,&quot;SF Pro Display&quot;,&quot;SF Pro Text&quot;,Helvetica,sans-serif;font-weight:bold;" transform="matrix(1 0 0 1 263 1953)">Design Variations</text>
  <text style="stroke:none;fill:black;font-family:-apple-system,&quot;SF Pro Display&quot;,&quot;SF Pro Text&quot;,Helvetica,sans-serif;" transform="matrix(1 0 0 1 263 1971)">Symbols are supported in up to nine weights and three scales.</text>
  <text style="stroke:none;fill:black;font-family:-apple-system,&quot;SF Pro Display&quot;,&quot;SF Pro Text&quot;,Helvetica,sans-serif;" transform="matrix(1 0 0 1 263 1989)">For optimal layout with text and other symbols, vertically align</text>
  <text style="stroke:none;fill:black;font-family:-apple-system,&quot;SF Pro Display&quot;,&quot;SF Pro Text&quot;,Helvetica,sans-serif;" transform="matrix(1 0 0 1 263 2007)">symbols with the adjacent text.</text>
  <line id="" style="fill:none;stroke:#00AEEF;stroke-width:0.5;opacity:1.0;" x1="776" x2="776" y1="1919" y2="1933"/>
  <g id="" transform="matrix(1 0 0 1 776 1933)">
   <path d="M3.31055 0.126953C3.82812 0.126953 4.08203-0.0683594 4.26758-0.605469L5.52734-4.0625L11.2891-4.0625L12.5488-0.605469C12.7344-0.0683594 12.9883 0.126953 13.4961 0.126953C14.0137 0.126953 14.3457-0.185547 14.3457-0.673828C14.3457-0.839844 14.3164-0.986328 14.2383-1.20117L9.6582-13.3887C9.43359-13.9941 9.0332-14.2871 8.4082-14.2871C7.80273-14.2871 7.39258-13.9941 7.17773-13.3984L2.59766-1.19141C2.51953-0.976562 2.49023-0.830078 2.49023-0.664062C2.49023-0.175781 2.80273 0.126953 3.31055 0.126953ZM6.00586-5.53711L8.37891-12.1094L8.42773-12.1094L10.8008-5.53711Z"/>
  </g>
  <line id="" style="fill:none;stroke:#00AEEF;stroke-width:0.5;opacity:1.0;" x1="792.836" x2="792.836" y1="1919" y2="1933"/>
  <text style="stroke:none;fill:black;font-family:-apple-system,&quot;SF Pro Display&quot;,&quot;SF Pro Text&quot;,Helvetica,sans-serif;font-weight:bold;" transform="matrix(1 0 0 1 776 1953)">Margins</text>
  <text style="stroke:none;fill:black;font-family:-apple-system,&quot;SF Pro Display&quot;,&quot;SF Pro Text&quot;,Helvetica,sans-serif;" transform="matrix(1 0 0 1 776 1971)">Leading and trailing margins on the left and right side of each symbol</text>
  <text style="stroke:none;fill:black;font-family:-apple-system,&quot;SF Pro Display&quot;,&quot;SF Pro Text&quot;,Helvetica,sans-serif;" transform="matrix(1 0 0 1 776 1989)">can be adjusted by modifying the x-location of the margin guidelines.</text>
  <text style="stroke:none;fill:black;font-family:-apple-system,&quot;SF Pro Display&quot;,&quot;SF Pro Text&quot;,Helvetica,sans-serif;" transform="matrix(1 0 0 1 776 2007)">Modifications are automatically applied proportionally to all</text>
  <text style="stroke:none;fill:black;font-family:-apple-system,&quot;SF Pro Display&quot;,&quot;SF Pro Text&quot;,Helvetica,sans-serif;" transform="matrix(1 0 0 1 776 2025)">scales and weights.</text>
  <g id="" transform="matrix(1 0 0 1 1289 1933)">
   <path d="M2.8418 1.86523L4.54102 3.57422C5.40039 4.44336 6.38672 4.38477 7.31445 3.35938L17.4902-7.85156C17.7539-7.76367 18.0273-7.7832 18.3398-7.8418L19.4043-8.03711L20.0684-7.36328L20.0293-6.80664C19.9902-6.30859 20.1172-5.92773 20.6055-5.44922L21.3672-4.70703C21.8457-4.22852 22.4609-4.19922 22.9297-4.66797L25.8398-7.58789C26.3086-8.05664 26.2891-8.65234 25.8105-9.13086L25.0391-9.89258C24.5605-10.3711 24.1895-10.5273 23.7109-10.4883L23.1348-10.4395L22.4902-11.0742L22.7344-12.1973C22.8613-12.7637 22.7051-13.2031 22.1191-13.7891L19.9219-15.9766C16.582-19.2969 12.1484-19.2188 9.25781-16.3281C8.83789-15.918 8.80859-15.3418 9.04297-14.9512C9.27734-14.5898 9.73633-14.3555 10.3809-14.5215C11.8457-14.8633 13.3691-14.9219 14.7949-13.9844L14.209-12.5293C14.0137-12.0508 13.9844-11.6504 14.1113-11.2891L3.04688-0.898438C2.06055 0.0195312 1.98242 0.996094 2.8418 1.86523ZM10.752-15.957C13.1836-17.7344 16.4746-17.4316 18.7012-15.2051L21.1328-12.793C21.3672-12.5586 21.4062-12.373 21.3379-12.0312L21.0156-10.5469L22.5195-9.0625L23.5059-9.12109C23.7598-9.13086 23.8379-9.11133 24.0332-8.91602L24.6094-8.33984L22.168-5.89844L21.5918-6.47461C21.3965-6.66992 21.3672-6.74805 21.377-7.01172L21.4453-7.98828L19.9512-9.47266L18.4277-9.21875C18.1055-9.15039 17.959-9.17969 17.7148-9.41406L15.7129-11.416C15.459-11.6504 15.4297-11.8164 15.5859-12.1875L16.4648-14.2773C14.9023-15.7324 12.8711-16.3574 10.8398-15.7617C10.6836-15.7227 10.625-15.8496 10.752-15.957ZM5.27344 2.30469L4.10156 1.14258C3.63281 0.683594 3.74023 0.341797 4.14062-0.0195312L14.9512-10.1953L16.416-8.71094L6.42578 2.27539C6.07422 2.67578 5.74219 2.77344 5.27344 2.30469Z"/>
  </g>
  <text style="stroke:none;fill:black;font-family:-apple-system,&quot;SF Pro Display&quot;,&quot;SF Pro Text&quot;,Helvetica,sans-serif;font-weight:bold;" transform="matrix(1 0 0 1 1289 1953)">Exporting</text>
  <text style="stroke:none;fill:black;font-family:-apple-system,&quot;SF Pro Display&quot;,&quot;SF Pro Text&quot;,Helvetica,sans-serif;" transform="matrix(1 0 0 1 1289 1971)">Symbols should be outlined when exporting to ensure the</text>
  <text style="stroke:none;fill:black;font-family:-apple-system,&quot;SF Pro Display&quot;,&quot;SF Pro Text&quot;,Helvetica,sans-serif;" transform="matrix(1 0 0 1 1289 1989)">design is preserved when submitting to Xcode.</text>
  <text id="template-version" style="stroke:none;fill:black;font-family:-apple-system,&quot;SF Pro Display&quot;,&quot;SF Pro Text&quot;,Helvetica,sans-serif;text-anchor:end;" transform="matrix(1 0 0 1 3036 1933)">Template v.2.0</text>
  <text style="stroke:none;fill:black;font-family:-apple-system,&quot;SF Pro Display&quot;,&quot;SF Pro Text&quot;,Helvetica,sans-serif;text-anchor:end;" transform="matrix(1 0 0 1 3036 1951)">Requires Xcode 12 or greater</text>
  <text style="stroke:none;fill:black;font-family:-apple-system,&quot;SF Pro Display&quot;,&quot;SF Pro Text&quot;,Helvetica,sans-serif;text-anchor:end;" transform="matrix(1 0 0 1 3036 1969)">Generated from view.3d</text>
  <text style="stroke:none;fill:black;font-family:-apple-system,&quot;SF Pro Display&quot;,&quot;SF Pro Text&quot;,Helvetica,sans-serif;text-anchor:end;" transform="matrix(1 0 0 1 3036 1987)">Typeset at 100 points</text>
  <text style="stroke:none;fill:black;font-family:-apple-system,&quot;SF Pro Display&quot;,&quot;SF Pro Text&quot;,Helvetica,sans-serif;" transform="matrix(1 0 0 1 263 726)">Small</text>
  <text style="stroke:none;fill:black;font-family:-apple-system,&quot;SF Pro Display&quot;,&quot;SF Pro Text&quot;,Helvetica,sans-serif;" transform="matrix(1 0 0 1 263 1156)">Medium</text>
  <text style="stroke:none;fill:black;font-family:-apple-system,&quot;SF Pro Display&quot;,&quot;SF Pro Text&quot;,Helvetica,sans-serif;" transform="matrix(1 0 0 1 263 1586)">Large</text>
 </g>
 <g id="Guides">
  <g id="H-reference" style="fill:#27AAE1;stroke:none;" transform="matrix(1 0 0 1 339 696)">
   <path d="M0.976562 0L3.66211 0L12.9883-24.4629L45.752-24.4629L55.127 0L57.7637 0L30.6152-70.459L28.125-70.459ZM29.3457-67.1387L29.4434-67.1387L44.873-26.709L13.8672-26.709Z"/>
  </g>
  <line id="Baseline-S" style="fill:none;stroke:#27AAE1;opacity:1;stroke-width:0.5;" x1="263" x2="3036" y1="696" y2="696"/>
  <line id="Capline-S" style="fill:none;stroke:#27AAE1;opacity:1;stroke-width:0.5;" x1="263" x2="3036" y1="625.541" y2="625.541"/>
  <g id="H-reference" style="fill:#27AAE1;stroke:none;" transform="matrix(1 0 0 1 339 1126)">
   <path d="M0.976562 0L3.66211 0L12.9883-24.4629L45.752-24.4629L55.127 0L57.7637 0L30.6152-70.459L28.125-70.459ZM29.3457-67.1387L29.4434-67.1387L44.873-26.709L13.8672-26.709Z"/>
  </g>
  <line id="Baseline-M" style="fill:none;stroke:#27AAE1;opacity:1;stroke-width:0.5;" x1="263" x2="3036" y1="1126" y2="1126"/>
  <line id="Capline-M" style="fill:none;stroke:#27AAE1;opacity:1;stroke-width:0.5;" x1="263" x2="3036" y1="1055.54" y2="1055.54"/>
  <g id="H-reference" style="fill:#27AAE1;stroke:none;" transform="matrix(1 0 0 1 339 1556)">
   <path d="M0.976562 0L3.66211 0L12.9883-24.4629L45.752-24.4629L55.127 0L57.7637 0L30.6152-70.459L28.125-70.459ZM29.3457-67.1387L29.4434-67.1387L44.873-26.709L13.8672-26.709Z"/>
  </g>
  <line id="Baseline-L" style="fill:none;stroke:#27AAE1;opacity:1;stroke-width:0.5;" x1="263" x2="3036" y1="1556" y2="1556"/>
  <line id="Capline-L" style="fill:none;stroke:#27AAE1;opacity:1;stroke-width:0.5;" x1="263" x2="3036" y1="1485.54" y2="1485.54"/>
  <line id="left-margin" style="fill:none;stroke:#00AEEF;stroke-width:0.5;opacity:1.0;" x1="1379.31" x2="1379.31" y1="1030.79" y2="1150.12"/>
  <line id="right-margin" style="fill:none;stroke:#00AEEF;stroke-width:0.5;opacity:1.0;" x1="1520.38" x2="1520.38" y1="1030.79" y2="1150.12"/>
 </g>
 <g id="Symbols">
  <g id="Black-L" transform="matrix(1 0 0 1 2831.3 1556)">
   <path d="M52.5391 14.502C77.002 14.502 92.8711 2.97852 92.8711-14.2578C92.8711-27.1484 83.5449-35.4492 68.9941-36.8164L68.9941-37.2559C80.957-39.3066 89.3066-47.6074 89.3066-59.1309C89.3066-74.707 75.0488-84.8633 52.9785-84.8633C35.498-84.8633 22.4121-78.125 18.5547-67.3828C17.7246-65.4785 17.3828-63.623 17.3828-61.5234C17.3828-56.1523 21.3867-52.4414 27.0996-52.4414C32.0801-52.4414 34.9609-53.9062 37.4512-57.9102C41.1133-63.916 45.6055-66.748 52.9297-66.748C61.1816-66.748 66.4062-62.6465 66.4062-55.8105C66.4062-48.877 61.0352-44.5801 52.5879-44.5801L48.5352-44.5801C42.8711-44.5801 39.3555-41.2109 39.3555-36.2793C39.3555-31.25 42.9199-27.832 48.5352-27.832L52.4414-27.832C62.207-27.832 67.8223-23.6328 67.8223-16.3086C67.8223-9.32617 61.8164-4.63867 52.9785-4.63867C45.6055-4.63867 40.4785-7.22656 37.2559-12.5488C34.0332-16.9434 31.4941-18.457 26.5625-18.457C20.5078-18.457 16.0645-14.6484 16.0645-8.54492C16.0645-6.20117 16.6504-3.95508 17.8223-1.61133C22.7539 7.76367 34.9121 14.502 52.5391 14.502ZM117.236 12.1582L143.213 12.1582C170.166 12.1582 188.135-7.03125 188.135-35.7422C188.135-63.8184 170.166-82.5195 143.213-82.5195L117.236-82.5195C109.766-82.5195 105.029-78.0762 105.029-70.5566L105.029 0.195312C105.029 7.76367 109.766 12.1582 117.236 12.1582ZM129.443-7.42188L129.443-62.9883L140.039-62.9883C153.955-62.9883 163.232-52.0508 163.232-35.7422C163.232-18.75 153.955-7.42188 140.039-7.42188Z"/>
  </g>
  <g id="Heavy-L" transform="matrix(1 0 0 1 2537.32 1556)">
   <path d="M51.416 13.7695C74.5605 13.7695 89.9414 2.34375 89.9414-14.4531C89.9414-27.2949 80.6641-35.5957 66.1621-36.8652L66.1621-37.207C78.1738-39.2578 86.2793-47.5098 86.2793-58.9844C86.2793-74.0723 72.5098-84.1797 51.6602-84.1797C35.2051-84.1797 22.7539-77.5879 18.7988-67.0898C17.9199-65.1367 17.5781-63.2324 17.5781-61.084C17.5781-56.3965 20.9961-53.1738 25.9766-53.1738C30.3711-53.1738 32.8613-54.5898 34.9121-58.2031C38.3301-64.8926 43.5547-68.3105 51.5137-68.3105C60.6445-68.3105 66.5039-63.623 66.5039-56.1523C66.5039-48.5352 60.4492-43.6523 51.123-43.6523L46.2891-43.6523C41.3574-43.6523 38.2812-40.7227 38.2812-36.377C38.2812-31.9824 41.4062-28.9551 46.2891-28.9551L51.0742-28.9551C62.0117-28.9551 68.4082-24.2676 68.4082-16.0156C68.4082-8.25195 61.6211-2.88086 51.7578-2.88086C43.4082-2.88086 37.4512-6.15234 34.375-12.3535C31.7383-16.3086 29.4434-17.6758 25.1953-17.6758C19.873-17.6758 16.0645-14.3555 16.0645-9.0332C16.0645-6.78711 16.6504-4.58984 17.7734-2.39258C22.6562 7.22656 34.6191 13.7695 51.416 13.7695ZM112.744 11.6211L138.379 11.6211C165.039 11.6211 182.666-7.32422 182.666-35.6445C182.666-63.5254 165.039-82.0312 138.379-82.0312L112.744-82.0312C106.348-82.0312 102.295-78.1738 102.295-71.6797L102.295 1.31836C102.295 7.8125 106.348 11.6211 112.744 11.6211ZM123.193-5.41992L123.193-65.0391L135.791-65.0391C151.172-65.0391 161.279-53.2715 161.279-35.6445C161.279-17.4805 151.172-5.41992 135.791-5.41992Z"/>
  </g>
  <g id="Bold-L" transform="matrix(1 0 0 1 2243.69 1556)">
   <path d="M50.1465 12.9395C71.8262 12.9395 86.6211 1.61133 86.6211-14.6484C86.6211-27.3926 77.4414-35.7422 62.9883-36.8652L62.9883-37.207C75-39.2578 82.9102-47.4609 82.9102-58.7891C82.9102-73.3398 69.6289-83.3496 50.1465-83.3496C34.9121-83.3496 23.0957-77.002 19.0918-66.7969C18.1641-64.7461 17.7734-62.793 17.7734-60.6445C17.7734-56.6406 20.6055-54.0039 24.7559-54.0039C28.4668-54.0039 30.4199-55.2734 32.0801-58.5449C35.1562-65.9668 41.2109-70.1172 50-70.1172C60.0098-70.1172 66.6016-64.7949 66.6016-56.5918C66.6016-48.1445 59.7656-42.627 49.5117-42.627L43.75-42.627C39.6484-42.627 37.0605-40.1855 37.0605-36.4746C37.0605-32.7637 39.6973-30.2246 43.75-30.2246L49.5117-30.2246C61.8164-30.2246 69.0918-24.9512 69.0918-15.7227C69.0918-6.98242 61.4258-0.927734 50.4395-0.927734C40.918-0.927734 34.0332-4.98047 31.1523-12.1582C29.1504-15.5273 27.1973-16.8457 23.6328-16.8457C19.1895-16.8457 16.0645-14.0625 16.0645-9.61914C16.0645-7.42188 16.6016-5.37109 17.7246-3.22266C22.6074 6.64062 34.2773 12.9395 50.1465 12.9395ZM107.715 10.9863L132.91 10.9863C159.277 10.9863 176.514-7.61719 176.514-35.5957C176.514-63.1348 159.277-81.4453 132.91-81.4453L107.715-81.4453C102.539-81.4453 99.2188-78.2715 99.2188-72.998L99.2188 2.53906C99.2188 7.86133 102.539 10.9863 107.715 10.9863ZM116.26-3.17383L116.26-67.3828L131.006-67.3828C148.047-67.3828 159.131-54.6387 159.131-35.5469C159.131-16.1133 148.047-3.17383 131.006-3.17383Z"/>
  </g>
  <g id="Semibold-L" transform="matrix(1 0 0 1 1949.1 1556)">
   <path d="M49.2676 12.4023C69.9707 12.4023 84.375 1.07422 84.375-14.8438C84.375-27.4902 75.1953-35.8398 60.791-36.9141L60.791-37.207C72.8027-39.2578 80.5664-47.4121 80.5664-58.6914C80.5664-72.9004 67.6758-82.8125 49.1211-82.8125C34.7168-82.8125 23.3887-76.5625 19.2871-66.5527C18.3594-64.4531 17.9199-62.5 17.9199-60.3516C17.9199-56.8359 20.3613-54.541 23.877-54.541C27.1973-54.541 28.8086-55.7617 30.127-58.7891C33.0078-66.748 39.5996-71.3379 48.9258-71.3379C59.6191-71.3379 66.6992-65.5762 66.6992-56.8359C66.6992-47.8516 59.3262-41.8945 48.3887-41.8945L41.9922-41.8945C38.4766-41.8945 36.2305-39.7949 36.2305-36.5234C36.2305-33.3008 38.5254-31.1035 41.9922-31.1035L48.4375-31.1035C61.6699-31.1035 69.5312-25.3906 69.5312-15.5273C69.5312-6.15234 61.2793 0.439453 49.4629 0.439453C39.209 0.439453 31.7383-4.15039 28.9551-11.9629C27.3438-15.0391 25.6348-16.2109 22.5098-16.2109C18.7012-16.2109 16.0645-13.8672 16.0645-10.0098C16.0645-7.86133 16.6016-5.85938 17.6758-3.80859C22.5586 6.25 34.0332 12.4023 49.2676 12.4023ZM104.297 10.5957L129.15 10.5957C155.273 10.5957 172.266-7.86133 172.266-35.498C172.266-62.8906 155.273-81.0547 129.15-81.0547L104.297-81.0547C99.9023-81.0547 97.1191-78.3691 97.1191-73.877L97.1191 3.41797C97.1191 7.91016 99.9023 10.5957 104.297 10.5957ZM111.475-1.61133L111.475-68.9453L127.734-68.9453C145.898-68.9453 157.617-55.5664 157.617-35.498C157.617-15.1367 145.898-1.61133 127.734-1.61133Z"/>
  </g>
  <g id="Medium-L" transform="matrix(1 0 0 1 1654 1556)">
   <path d="M48.6328 11.9629C68.5547 11.9629 82.6172 0.683594 82.6172-14.9414C82.6172-27.5879 73.5352-35.8887 59.1309-36.9141L59.1309-37.207C71.1426-39.2578 78.7598-47.3633 78.7598-58.5938C78.7598-72.5098 66.1621-82.4219 48.3887-82.4219C34.5703-82.4219 23.584-76.2695 19.4336-66.3574C18.457-64.2578 18.0176-62.2559 18.0176-60.1074C18.0176-56.9824 20.1172-54.9805 23.1934-54.9805C26.1719-54.9805 27.5391-56.1523 28.6133-58.9844C31.3477-67.2852 38.4277-72.2656 48.0957-72.2656C59.3262-72.2656 66.748-66.1621 66.748-57.0801C66.748-47.6562 58.9844-41.3574 47.5586-41.3574L40.7227-41.3574C37.5977-41.3574 35.5957-39.4531 35.5957-36.5723C35.5957-33.6914 37.5977-31.7871 40.7227-31.7871L47.6074-31.7871C61.5723-31.7871 69.9219-25.7812 69.9219-15.332C69.9219-5.46875 61.1328 1.46484 48.7793 1.46484C37.9395 1.46484 29.9316-3.51562 27.2461-11.8652C26.0254-14.6484 24.4629-15.7715 21.7285-15.7715C18.3594-15.7715 16.0645-13.7207 16.0645-10.3027C16.0645-8.20312 16.6016-6.25 17.627-4.24805C22.5098 5.95703 33.8867 11.9629 48.6328 11.9629ZM101.66 10.3027L126.318 10.3027C152.246 10.3027 169.043-8.00781 169.043-35.498C169.043-62.6953 152.246-80.8105 126.318-80.8105L101.66-80.8105C97.9004-80.8105 95.5078-78.418 95.5078-74.5605L95.5078 4.05273C95.5078 7.91016 97.9004 10.3027 101.66 10.3027ZM107.812-0.439453L107.812-70.166L125.244-70.166C144.287-70.166 156.494-56.2988 156.494-35.4492C156.494-14.4043 144.287-0.439453 125.244-0.439453Z"/>
  </g>
  <g id="Regular-L" transform="matrix(1 0 0 1 1359.37 1556)">
   <path d="M47.7539 11.377C66.6992 11.377 80.3711 0.195312 80.3711-15.0879C80.3711-27.6367 71.3379-35.9863 56.9336-36.9629L56.9336-37.1582C68.9941-39.2578 76.4648-47.3145 76.4648-58.4961C76.4648-72.0215 64.209-81.8848 47.3633-81.8848C34.375-81.8848 23.8281-75.8789 19.6289-66.1621C18.6035-64.0137 18.1641-61.9629 18.1641-59.7656C18.1641-57.1777 19.873-55.5664 22.3633-55.5664C24.9023-55.5664 25.9277-56.6406 26.709-59.2285C29.1992-68.0664 36.8164-73.4375 47.0703-73.4375C58.8867-73.4375 66.8457-66.9434 66.8457-57.3242C66.8457-47.3633 58.5449-40.6738 46.4355-40.6738L38.9648-40.6738C36.4258-40.6738 34.7656-39.1113 34.7656-36.6211C34.7656-34.2285 36.4258-32.6172 38.9648-32.6172L46.582-32.6172C61.4746-32.6172 70.3613-26.2695 70.3613-15.1367C70.3613-4.63867 60.9863 2.7832 47.8516 2.7832C36.2793 2.7832 27.6367-2.73438 25.0488-11.7188C24.2676-14.1113 22.9492-15.1855 20.6543-15.1855C17.8711-15.1855 16.0645-13.5254 16.0645-10.6445C16.0645-8.64258 16.6016-6.78711 17.5781-4.83398C22.4609 5.56641 33.6426 11.377 47.7539 11.377ZM98.2422 9.86328L122.607 9.86328C148.34 9.86328 164.893-8.25195 164.893-35.4004C164.893-62.4512 148.34-80.4199 122.607-80.4199L98.2422-80.4199C95.3125-80.4199 93.4082-78.4668 93.4082-75.4395L93.4082 4.93164C93.4082 7.95898 95.3125 9.86328 98.2422 9.86328ZM103.076 1.12305L103.076-71.7773L121.973-71.7773C142.188-71.7773 154.98-57.2266 154.98-35.3516C154.98-13.4766 142.188 1.12305 121.973 1.12305Z"/>
  </g>
  <g id="Light-L" transform="matrix(1 0 0 1 1063.41 1556)">
   <path d="M47.3145 11.4258C65.8203 11.4258 79.2969 0.341797 79.2969-14.8438C79.2969-27.5391 70.0684-36.084 55.6641-36.9629L55.6641-37.207C67.8223-39.3555 75.3418-47.5098 75.3418-58.6914C75.3418-72.0703 63.2812-81.8848 46.7773-81.8848C33.7891-81.8848 23.1934-75.4883 19.3848-65.332C18.5547-63.3789 18.2129-61.5234 18.2129-59.7168C18.2129-57.666 19.4824-56.3965 21.4355-56.3965C23.4863-56.3965 24.1699-57.4707 24.707-59.6191C26.9531-69.2383 35.498-75.4883 46.582-75.4883C59.2285-75.4883 68.0664-68.2129 68.0664-57.9102C68.0664-47.2168 59.0332-39.8438 45.8496-39.8438L37.6953-39.8438C35.7422-39.8438 34.4238-38.6719 34.4238-36.7676C34.4238-34.9609 35.7422-33.7402 37.6953-33.7402L45.9473-33.7402C62.1094-33.7402 71.7773-26.7578 71.7773-14.8438C71.7773-3.32031 61.5234 4.93164 47.4121 4.93164C34.8633 4.93164 25.1465-1.46484 22.9004-11.377C22.3145-13.3789 21.3379-14.3066 19.5312-14.3066C17.4316-14.3066 16.0645-13.0371 16.0645-10.8398C16.0645-9.0332 16.5039-7.37305 17.2852-5.81055C21.582 5.12695 33.1543 11.4258 47.3145 11.4258ZM96.9727 9.96094L120.605 9.96094C146.826 9.96094 163.379-8.1543 163.379-35.3516C163.379-62.4512 146.826-80.5176 120.605-80.5176L96.9727-80.5176C94.7754-80.5176 93.3594-79.0527 93.3594-76.8066L93.3594 6.25C93.3594 8.54492 94.7754 9.96094 96.9727 9.96094ZM100.635 3.36914L100.635-73.9746L120.166-73.9746C142.236-73.9746 155.957-58.5449 155.957-35.3516C155.957-12.1094 142.236 3.36914 120.166 3.36914Z"/>
  </g>
  <g id="Thin-L" transform="matrix(1 0 0 1 767.726 1556)">
   <path d="M46.7773 11.5234C64.6484 11.5234 77.832 0.537109 77.832-14.502C77.832-27.3438 68.457-36.1328 54.0039-37.0117L54.0039-37.2559C66.2598-39.502 73.8281-47.7539 73.8281-58.9355C73.8281-72.168 62.0117-81.8848 46.0449-81.8848C33.0078-81.8848 22.3145-74.9512 19.043-64.2578C18.5059-62.5977 18.3105-60.9375 18.3105-59.668C18.3105-58.252 18.9941-57.5684 20.166-57.5684C21.6309-57.5684 21.8262-58.5938 22.1191-60.1562C24.0234-70.8008 33.7402-78.2227 45.9961-78.2227C59.6191-78.2227 69.7266-69.873 69.7266-58.6914C69.7266-46.9727 59.668-38.7695 45.0684-38.7695L35.9863-38.7695C34.8145-38.7695 34.0332-38.1348 34.0332-36.9629C34.0332-35.8887 34.8145-35.2051 35.9863-35.2051L45.166-35.2051C62.9395-35.2051 73.6816-27.4414 73.6816-14.4531C73.6816-1.5625 62.207 7.8125 46.875 7.8125C33.0566 7.8125 21.8262 0.146484 20.0195-10.9375C19.7754-12.4512 19.1895-13.1348 18.0664-13.1348C16.8457-13.1348 16.0645-12.4512 16.0645-11.0352C16.0645-9.57031 16.4062-8.20312 16.8457-7.03125C20.459 4.58984 32.4707 11.5234 46.7773 11.5234ZM95.3125 10.1074L117.92 10.1074C144.873 10.1074 161.328-8.05664 161.328-35.3027C161.328-62.5 144.873-80.6641 117.92-80.6641L95.3125-80.6641C94.0918-80.6641 93.3105-79.834 93.3105-78.5645L93.3105 8.00781C93.3105 9.32617 94.0918 10.1074 95.3125 10.1074ZM97.4121 6.39648L97.4121-76.9531L117.773-76.9531C142.285-76.9531 157.178-60.3027 157.178-35.3027C157.178-10.2539 142.285 6.39648 117.773 6.39648Z"/>
  </g>
  <g id="Ultralight-L" transform="matrix(1 0 0 1 471.528 1556)">
   <path d="M46.4844 11.5723C64.0137 11.5723 77.0508 0.634766 77.0508-14.3555C77.0508-27.2461 67.627-36.1816 53.125-37.0605L53.125-37.3047C65.4785-39.5508 73.0469-47.8516 73.0469-59.0332C73.0469-72.2168 61.3281-81.9336 45.6543-81.9336C32.6172-81.9336 21.875-74.707 18.8965-63.7207C18.457-62.1582 18.3105-60.5957 18.3105-59.6191C18.3105-58.5938 18.75-58.1543 19.5312-58.1543C20.6543-58.1543 20.6543-59.1797 20.8008-60.4004C22.5098-71.582 32.8613-79.5898 45.6543-79.5898C59.8145-79.5898 70.6055-70.752 70.6055-59.1309C70.6055-46.875 59.9609-38.2324 44.6777-38.2324L35.1074-38.2324C34.3262-38.2324 33.8379-37.8906 33.8379-37.1094C33.8379-36.377 34.3262-35.9375 35.1074-35.9375L44.7266-35.9375C63.3789-35.9375 74.6582-27.7832 74.6582-14.2578C74.6582-0.634766 62.5488 9.27734 46.582 9.27734C32.0801 9.27734 20.166 1.02539 18.5547-10.6934C18.5059-11.9629 18.1152-12.5488 17.334-12.5488C16.5527-12.5488 16.0645-12.1094 16.0645-11.1328C16.0645-9.81445 16.3574-8.59375 16.6016-7.66602C19.873 4.3457 32.1289 11.5723 46.4844 11.5723ZM94.4824 10.2051L116.553 10.2051C143.848 10.2051 160.303-7.95898 160.303-35.2539C160.303-62.5488 143.848-80.7617 116.553-80.7617L94.4824-80.7617C93.75-80.7617 93.2617-80.2734 93.2617-79.4434L93.2617 8.93555C93.2617 9.7168 93.75 10.2051 94.4824 10.2051ZM95.752 7.95898L95.752-78.4668L116.553-78.4668C142.334-78.4668 157.812-61.1816 157.812-35.2539C157.812-9.32617 142.334 7.95898 116.553 7.95898Z"/>
  </g>
  <g id="Black-M" transform="matrix(1 0 0 1 2850.98 1126)">
   <path d="M42.041 4.3457C62.5 4.3457 75.3418-4.63867 75.3418-18.6035C75.3418-28.7598 68.0176-35.2539 56.6406-36.4258L56.6406-36.8164C65.918-38.4277 72.7051-45.0195 72.7051-54.0527C72.7051-66.6992 61.1328-74.6582 42.5293-74.6582C27.5391-74.6582 16.5527-68.9453 13.916-60.1074C13.4277-58.8379 13.2324-57.5195 13.2324-56.1035C13.2324-51.3184 16.8457-48.0469 22.0215-48.0469C26.416-48.0469 29.0527-49.3164 31.3965-52.5879C34.4727-56.7871 37.4512-58.5938 42.627-58.5938C48.291-58.5938 52.002-55.7617 52.002-51.0254C52.002-46.1914 48.3887-43.3105 42.3828-43.3105L39.9414-43.3105C34.9121-43.3105 31.8359-40.332 31.8359-35.9863C31.8359-31.5918 34.9609-28.5645 39.9414-28.5645L42.1875-28.5645C48.7793-28.5645 52.5391-25.6836 52.5391-20.752C52.5391-15.918 48.4375-12.7441 42.4805-12.7441C37.5488-12.7441 34.1309-14.3066 31.6406-17.7734C28.4668-21.582 26.2695-22.8027 21.9238-22.8027C16.5039-22.8027 12.4512-19.3848 12.4512-13.9648C12.4512-12.1582 12.8906-10.4004 13.6719-8.69141C17.2852-1.46484 27.1484 4.3457 42.041 4.3457ZM96.2402 2.24609L116.504 2.24609C138.037 2.24609 152.393-12.8906 152.393-35.6934C152.393-57.8613 138.037-72.6074 116.504-72.6074L96.2402-72.6074C89.4043-72.6074 85.0586-68.6035 85.0586-61.7188L85.0586-8.59375C85.0586-1.66016 89.4043 2.24609 96.2402 2.24609ZM107.373-15.1855L107.373-55.127L113.33-55.127C123.096-55.127 129.639-47.3145 129.639-35.6934C129.639-23.3887 123.096-15.1855 113.33-15.1855Z"/>
  </g>
  <g id="Heavy-M" transform="matrix(1 0 0 1 2557.07 1126)">
   <path d="M40.918 3.51562C60.0586 3.51562 72.4121-5.41992 72.4121-18.8477C72.4121-28.9062 65.1855-35.4004 53.8574-36.4746L53.8574-36.8164C63.1348-38.4277 69.6777-44.873 69.6777-53.8574C69.6777-65.9668 58.5938-73.877 41.2598-73.877C27.3926-73.877 17.0898-68.5059 14.2578-60.0098C13.6719-58.5938 13.4277-57.2266 13.4277-55.6641C13.4277-51.4648 16.5527-48.6328 21.0449-48.6328C24.9023-48.6328 27.1973-49.8047 29.1504-52.832C31.9824-57.5195 35.498-59.8145 41.2109-59.8145C47.6074-59.8145 51.8066-56.543 51.8066-51.2695C51.8066-45.8496 47.6074-42.4805 40.9668-42.4805L37.8418-42.4805C33.4473-42.4805 30.7129-39.8926 30.7129-36.084C30.7129-32.1777 33.4961-29.541 37.8418-29.541L40.8203-29.541C48.4375-29.541 52.7832-26.2207 52.7832-20.5566C52.7832-15.0879 48.0957-11.377 41.2598-11.377C35.498-11.377 31.4453-13.4766 29.0527-17.627C26.416-21.0449 24.4629-22.168 20.6543-22.168C15.918-22.168 12.4512-19.1895 12.4512-14.4531C12.4512-12.6953 12.8906-10.9863 13.7207-9.22852C17.4316-1.9043 27.002 3.51562 40.918 3.51562ZM91.6504 1.66016L111.67 1.66016C132.812 1.66016 146.777-13.2812 146.777-35.6445C146.777-57.4707 132.812-72.0215 111.67-72.0215L91.6504-72.0215C85.791-72.0215 82.0801-68.5547 82.0801-62.6465L82.0801-7.71484C82.0801-1.75781 85.791 1.66016 91.6504 1.66016ZM101.221-13.5742L101.221-56.8359L109.131-56.8359C120.02-56.8359 127.246-48.3398 127.246-35.6445C127.246-22.3633 120.02-13.5742 109.131-13.5742Z"/>
  </g>
  <g id="Bold-M" transform="matrix(1 0 0 1 2263.49 1126)">
   <path d="M39.6484 2.58789C57.3242 2.58789 69.1406-6.25 69.1406-19.1895C69.1406-29.1016 62.0117-35.5469 50.7324-36.4746L50.7324-36.7676C60.0586-38.3789 66.3086-44.7266 66.3086-53.6133C66.3086-65.1855 55.7129-72.998 39.7949-72.998C27.2461-72.998 17.6758-67.9688 14.6484-59.9121C13.9648-58.3496 13.623-56.8848 13.623-55.2246C13.623-51.6602 16.2109-49.2676 19.9219-49.2676C23.2422-49.2676 25.0488-50.3418 26.6113-53.0762C29.1992-58.3984 33.3496-61.1328 39.6973-61.1328C46.875-61.1328 51.5625-57.4219 51.5625-51.5137C51.5625-45.459 46.7285-41.6016 39.3555-41.6016L35.4492-41.6016C31.7871-41.6016 29.4434-39.4043 29.4434-36.1328C29.4434-32.8125 31.7871-30.5664 35.4492-30.5664L39.3066-30.5664C47.998-30.5664 53.125-26.8066 53.125-20.3125C53.125-14.1113 47.7051-9.86328 39.8926-9.86328C33.2031-9.86328 28.4668-12.5488 26.123-17.4805C24.1699-20.4102 22.4609-21.4844 19.2871-21.4844C15.2832-21.4844 12.4512-18.9941 12.4512-15.0391C12.4512-13.2812 12.8906-11.6211 13.7695-9.91211C17.5781-2.44141 26.7578 2.58789 39.6484 2.58789ZM86.5234 0.976562L106.348 0.976562C126.904 0.976562 140.527-13.623 140.527-35.5469C140.527-57.0801 126.904-71.3867 106.348-71.3867L86.5234-71.3867C81.7871-71.3867 78.7598-68.5059 78.7598-63.6719L78.7598-6.73828C78.7598-1.85547 81.7871 0.976562 86.5234 0.976562ZM94.3359-11.7676L94.3359-58.6914L104.443-58.6914C116.602-58.6914 124.609-49.4141 124.609-35.5469C124.609-21.2891 116.602-11.7676 104.443-11.7676Z"/>
  </g>
  <g id="Semibold-M" transform="matrix(1 0 0 1 1968.95 1126)">
   <path d="M38.7695 1.95312C55.4688 1.95312 66.8945-6.83594 66.8945-19.3848C66.8945-29.1992 59.8145-35.6445 48.6328-36.5234L48.6328-36.7676C57.9102-38.3301 63.9648-44.6777 63.9648-53.418C63.9648-64.6484 53.7598-72.4121 38.7695-72.4121C27.1484-72.4121 18.1152-67.5781 14.8926-59.8145C14.1113-58.1543 13.7695-56.6406 13.7695-54.8828C13.7695-51.7578 16.0156-49.707 19.1895-49.707C22.1191-49.707 23.6328-50.6836 24.8535-53.2715C27.2461-58.9844 31.8848-62.0605 38.623-62.0605C46.3867-62.0605 51.3672-58.0078 51.3672-51.709C51.3672-45.2148 46.1426-40.9668 38.2324-40.9668L33.7891-40.9668C30.6152-40.9668 28.6133-39.0625 28.6133-36.1816C28.6133-33.252 30.6641-31.2988 33.7891-31.2988L38.2812-31.2988C47.7539-31.2988 53.3203-27.2461 53.3203-20.1172C53.3203-13.4277 47.4609-8.83789 38.9648-8.83789C31.6406-8.83789 26.416-11.8652 24.1211-17.3828C22.6074-20.0195 21.0938-21.0449 18.3105-21.0449C14.8926-21.0449 12.4512-18.8965 12.4512-15.4297C12.4512-13.7207 12.8906-12.0605 13.7695-10.3516C17.6758-2.7832 26.6113 1.95312 38.7695 1.95312ZM83.0078 0.488281L102.637 0.488281C122.9 0.488281 136.182-13.916 136.182-35.498C136.182-56.7871 122.9-70.9473 102.637-70.9473L83.0078-70.9473C79.0039-70.9473 76.4648-68.457 76.4648-64.4043L76.4648-6.05469C76.4648-1.95312 79.0039 0.488281 83.0078 0.488281ZM89.5996-10.5469L89.5996-60.0098L101.221-60.0098C114.258-60.0098 122.803-50.1953 122.803-35.4492C122.803-20.5078 114.258-10.5469 101.221-10.5469Z"/>
  </g>
  <g id="Medium-M" transform="matrix(1 0 0 1 1673.87 1126)">
   <path d="M38.1348 1.51367C54.0527 1.51367 65.1855-7.27539 65.1855-19.5312C65.1855-29.2969 58.1543-35.6934 46.9727-36.5234L46.9727-36.7188C56.25-38.2812 62.207-44.5801 62.207-53.3203C62.207-64.2578 52.2461-71.9727 38.0371-71.9727C27.0996-71.9727 18.4082-67.334 15.1367-59.7656C14.2578-58.0566 13.916-56.4453 13.916-54.6387C13.916-51.8555 15.8203-50.0488 18.6035-50.0488C21.2402-50.0488 22.5098-50.9766 23.5352-53.418C25.8301-59.4238 30.7617-62.793 37.793-62.793C45.9961-62.793 51.2207-58.4961 51.2207-51.8555C51.2207-45.0195 45.6543-40.5273 37.4023-40.5273L32.5684-40.5273C29.7852-40.5273 27.9785-38.8184 27.9785-36.1816C27.9785-33.5938 29.7852-31.8848 32.5684-31.8848L37.4512-31.8848C47.5586-31.8848 53.5156-27.5391 53.5156-20.0195C53.5156-12.9395 47.2656-8.05664 38.2324-8.05664C30.4688-8.05664 24.8535-11.377 22.6074-17.2852C21.4355-19.6777 20.0684-20.6543 17.5781-20.6543C14.5508-20.6543 12.4512-18.7988 12.4512-15.7227C12.4512-14.0137 12.8906-12.4023 13.8184-10.6934C17.7734-3.02734 26.5137 1.51367 38.1348 1.51367ZM80.3223 0.146484L99.8535 0.146484C119.824 0.146484 132.91-14.1113 132.91-35.4492C132.91-56.5918 119.824-70.6055 99.8535-70.6055L80.3223-70.6055C76.9043-70.6055 74.707-68.457 74.707-64.9414L74.707-5.51758C74.707-2.00195 76.9043 0.146484 80.3223 0.146484ZM85.9863-9.57031L85.9863-60.9863L98.7793-60.9863C112.5-60.9863 121.387-50.7324 121.387-35.4004C121.387-19.9219 112.5-9.57031 98.7793-9.57031Z"/>
  </g>
  <g id="Regular-M" transform="matrix(1 0 0 1 1379.31 1126)">
   <path d="M37.2559 0.878906C52.1973 0.878906 62.9395-7.86133 62.9395-19.7754C62.9395-29.4434 56.0059-35.791 44.873-36.5234L44.873-36.7188C54.1504-38.2812 59.9121-44.4824 59.9121-53.1738C59.9121-63.7207 50.3418-71.3379 37.0117-71.3379C26.9531-71.3379 18.8477-66.9434 15.3809-59.668C14.4531-57.8613 14.0625-56.2012 14.0625-54.2969C14.0625-52.002 15.625-50.4883 17.8711-50.4883C20.0684-50.4883 21.0938-51.3184 21.7773-53.6133C23.9258-60.0098 29.2969-63.6719 36.7188-63.6719C45.459-63.6719 51.0742-59.082 51.0742-52.002C51.0742-44.7266 45.0684-39.8926 36.3281-39.8926L30.957-39.8926C28.6621-39.8926 27.0996-38.4766 27.0996-36.2305C27.0996-34.0332 28.6621-32.5684 30.957-32.5684L36.4258-32.5684C47.2656-32.5684 53.7109-27.9785 53.7109-19.8242C53.7109-12.3047 46.9727-6.98242 37.3047-6.98242C28.9062-6.98242 22.8516-10.7422 20.6543-17.1875C19.873-19.2871 18.7012-20.2148 16.6016-20.2148C14.1113-20.2148 12.4512-18.6523 12.4512-16.1133C12.4512-14.4043 12.8906-12.8418 13.8184-11.1328C17.8711-3.41797 26.3672 0.878906 37.2559 0.878906ZM76.8555-0.341797L96.1914-0.341797C115.82-0.341797 128.613-14.3555 128.613-35.4004C128.613-56.2988 115.82-70.166 96.1914-70.166L76.8555-70.166C74.1699-70.166 72.4121-68.4082 72.4121-65.6738L72.4121-4.88281C72.4121-2.09961 74.1699-0.341797 76.8555-0.341797ZM81.2988-8.34961L81.2988-62.2559L95.5566-62.2559C110.156-62.2559 119.58-51.5137 119.58-35.3516C119.58-19.1406 110.156-8.34961 95.5566-8.34961Z"/>
  </g>
  <g id="Light-M" transform="matrix(1 0 0 1 1083.26 1126)">
   <path d="M36.8652 0.927734C51.416 0.927734 61.9141-7.71484 61.9141-19.5312C61.9141-29.2969 54.8828-35.8398 43.7012-36.5723L43.7012-36.7676C53.0762-38.3789 58.8867-44.6777 58.8867-53.3203C58.8867-63.7695 49.4629-71.3867 36.5234-71.3867C26.4648-71.3867 18.2617-66.6016 15.1367-58.9355C14.4043-57.3242 14.1113-55.8105 14.1113-54.248C14.1113-52.3926 15.2832-51.2695 17.041-51.2695C18.8477-51.2695 19.4824-52.0996 20.0195-53.9551C21.875-61.0352 28.125-65.5273 36.3281-65.5273C45.752-65.5273 52.1973-60.2051 52.1973-52.5391C52.1973-44.5801 45.5078-39.1602 35.791-39.1602L29.7852-39.1602C28.0273-39.1602 26.8555-38.0859 26.8555-36.377C26.8555-34.668 28.0273-33.5938 29.7852-33.5938L35.8887-33.5938C47.8516-33.5938 54.9805-28.418 54.9805-19.5801C54.9805-11.084 47.4609-5.07812 36.9141-5.07812C27.6367-5.07812 20.6055-9.61914 18.7012-16.8945C18.1641-18.6523 17.2363-19.4336 15.625-19.4336C13.7207-19.4336 12.4512-18.2617 12.4512-16.2598C12.4512-14.7461 12.8418-13.3789 13.5254-12.0117C17.0898-3.75977 25.9277 0.927734 36.8652 0.927734ZM75.7324-0.244141L94.3848-0.244141C114.453-0.244141 127.295-14.3066 127.295-35.3516C127.295-56.3477 114.453-70.2637 94.3848-70.2637L75.7324-70.2637C73.6816-70.2637 72.3633-68.9453 72.3633-66.8457L72.3633-3.66211C72.3633-1.5625 73.6816-0.244141 75.7324-0.244141ZM79.1016-6.29883L79.1016-64.2578L93.9453-64.2578C110.205-64.2578 120.459-52.6855 120.459-35.3027C120.459-17.9199 110.205-6.29883 93.9453-6.29883Z"/>
  </g>
  <g id="Thin-M" transform="matrix(1 0 0 1 787.453 1126)">
   <path d="M36.377 0.976562C50.3418 0.976562 60.6445-7.56836 60.6445-19.2383C60.6445-29.1504 53.418-35.9375 42.1875-36.6211L42.1875-36.8164C51.709-38.5254 57.5195-44.873 57.5195-53.5645C57.5195-63.8184 48.3398-71.3867 35.8398-71.3867C25.7324-71.3867 17.4805-66.1621 14.8438-57.959C14.3555-56.5918 14.1602-55.2734 14.1602-54.1992C14.1602-52.9297 14.8438-52.2949 15.918-52.2949C17.1387-52.2949 17.4316-53.125 17.7246-54.4434C19.2383-62.4512 26.5137-67.9688 35.791-67.9688C46.0938-67.9688 53.7109-61.7188 53.7109-53.2715C53.7109-44.3848 46.0938-38.1836 35.1074-38.1836L28.2715-38.1836C27.1973-38.1836 26.4648-37.5977 26.4648-36.5723C26.4648-35.5469 27.1973-34.9121 28.2715-34.9121L35.1562-34.9121C48.6328-34.9121 56.6895-29.0527 56.6895-19.2383C56.6895-9.52148 48.0469-2.49023 36.4258-2.49023C26.0254-2.49023 17.627-8.1543 16.1621-16.5039C15.8691-17.7734 15.332-18.3594 14.3066-18.3594C13.1836-18.3594 12.4512-17.6758 12.4512-16.4062C12.4512-15.2344 12.7441-14.1113 13.1348-13.0859C16.1133-4.24805 25.3418 0.976562 36.377 0.976562ZM74.2188-0.0976562L91.9922-0.0976562C112.695-0.0976562 125.488-14.1602 125.488-35.3027C125.488-56.3477 112.695-70.4102 91.9922-70.4102L74.2188-70.4102C73.0469-70.4102 72.3145-69.6289 72.3145-68.4082L72.3145-2.09961C72.3145-0.878906 73.0469-0.0976562 74.2188-0.0976562ZM76.2207-3.61328L76.2207-66.9434L91.7969-66.9434C110.254-66.9434 121.533-54.2969 121.533-35.3027C121.533-16.2598 110.254-3.61328 91.7969-3.61328Z"/>
  </g>
  <g id="Ultralight-M" transform="matrix(1 0 0 1 491.205 1126)">
   <path d="M36.1328 1.02539C49.8047 1.02539 59.9609-7.4707 59.9609-19.0918C59.9609-29.1016 52.6367-35.9375 41.4551-36.6211L41.4551-36.8164C50.9766-38.5742 56.8359-44.9707 56.8359-53.6621C56.8359-63.8672 47.7539-71.3867 35.498-71.3867C25.3906-71.3867 17.0898-65.918 14.6973-57.4707C14.3066-56.25 14.209-54.9805 14.209-54.1504C14.209-53.2227 14.5996-52.832 15.332-52.832C16.3086-52.832 16.3574-53.6133 16.5527-54.6387C17.8711-63.1836 25.7324-69.1895 35.498-69.1895C46.2891-69.1895 54.4434-62.5 54.4434-53.6133C54.4434-44.2871 46.3867-37.6953 34.7168-37.6953L27.4902-37.6953C26.7578-37.6953 26.2695-37.3535 26.2695-36.6211C26.2695-35.9863 26.7578-35.5469 27.4902-35.5469L34.8145-35.5469C49.0234-35.5469 57.5684-29.3457 57.5684-19.043C57.5684-8.69141 48.3887-1.17188 36.1816-1.17188C25.1465-1.17188 16.1133-7.42188 14.8438-16.3086C14.7461-17.334 14.3555-17.8223 13.623-17.8223C12.9395-17.8223 12.4512-17.4316 12.4512-16.5039C12.4512-15.4785 12.6953-14.4531 12.9395-13.6719C15.5762-4.49219 25 1.02539 36.1328 1.02539ZM73.4863-0.0488281L90.7715-0.0488281C111.768-0.0488281 124.561-14.1113 124.561-35.2539C124.561-56.3965 111.768-70.459 90.7715-70.459L73.4863-70.459C72.7539-70.459 72.2656-70.0195 72.2656-69.2383L72.2656-1.26953C72.2656-0.537109 72.7539-0.0488281 73.4863-0.0488281ZM74.707-2.24609L74.707-68.2617L90.7227-68.2617C110.303-68.2617 122.119-55.0781 122.119-35.2539C122.119-15.4297 110.303-2.24609 90.7227-2.24609Z"/>
  </g>
  <g id="Black-S" transform="matrix(1 0 0 1 2869.02 696)">
   <path d="M32.8613-4.29688C48.7793-4.29688 58.8379-11.3281 58.8379-22.2168C58.8379-30.1758 53.0762-35.2539 44.1895-36.1816L44.1895-36.4746C51.4648-37.7441 56.7383-42.8711 56.7383-49.9512C56.7383-59.8145 47.7051-66.0645 33.252-66.0645C21.582-66.0645 13.0371-61.6211 10.9375-54.7363C10.5469-53.7109 10.4004-52.6855 10.4004-51.5625C10.4004-47.8516 13.1836-45.3125 17.1875-45.3125C20.6055-45.3125 22.6562-46.2891 24.4629-48.8281C26.8555-52.1484 29.1992-53.6133 33.3008-53.6133C37.793-53.6133 40.7227-51.3672 40.7227-47.6074C40.7227-43.7988 37.8418-41.5039 33.1055-41.5039L31.1523-41.5039C27.2461-41.5039 24.8535-39.209 24.8535-35.8398C24.8535-32.4219 27.2949-30.0781 31.1523-30.0781L32.959-30.0781C38.1836-30.0781 41.1621-27.7832 41.1621-23.877C41.1621-20.0684 37.9395-17.5293 33.2031-17.5293C29.2969-17.5293 26.5625-18.7988 24.6094-21.5332C22.168-24.5117 20.459-25.4395 17.0898-25.4395C12.8906-25.4395 9.76562-22.8027 9.76562-18.6035C9.76562-17.1875 10.1074-15.8203 10.7422-14.4531C13.5742-8.78906 21.2891-4.29688 32.8613-4.29688ZM75.0488-5.9082L90.918-5.9082C107.764-5.9082 118.994-17.7734 118.994-35.5957C118.994-52.9297 107.764-64.4531 90.918-64.4531L75.0488-64.4531C69.7754-64.4531 66.4062-61.377 66.4062-56.0547L66.4062-14.3066C66.4062-8.93555 69.7754-5.9082 75.0488-5.9082ZM83.6914-19.4336L83.6914-50.9277L88.4766-50.9277C96.1914-50.9277 101.367-44.7754 101.367-35.5957C101.367-25.8789 96.1914-19.4336 88.4766-19.4336Z"/>
  </g>
  <g id="Heavy-S" transform="matrix(1 0 0 1 2574.38 696)">
   <path d="M32.0312-4.93164C47.0215-4.93164 56.6895-11.9141 56.6895-22.4609C56.6895-30.3223 51.0254-35.3516 42.1875-36.1816L42.1875-36.4746C49.4629-37.6953 54.541-42.7734 54.541-49.7559C54.541-59.2773 45.8496-65.4785 32.3242-65.4785C21.5332-65.4785 13.5254-61.2793 11.2305-54.7363C10.7422-53.6133 10.5469-52.4902 10.5469-51.2207C10.5469-47.9004 12.9883-45.6543 16.5527-45.6543C19.5801-45.6543 21.3867-46.582 22.9004-48.9746C25.1465-52.6367 27.8809-54.3457 32.2754-54.3457C37.2559-54.3457 40.4297-51.8555 40.4297-47.7539C40.4297-43.5547 37.207-40.9668 32.0801-40.9668L29.6387-40.9668C26.1719-40.9668 24.0234-38.916 24.0234-35.8887C24.0234-32.8125 26.2207-30.7129 29.6387-30.7129L31.9824-30.7129C37.8418-30.7129 41.2109-28.125 41.2109-23.7305C41.2109-19.5312 37.6465-16.6992 32.3242-16.6992C27.8809-16.6992 24.7559-18.2617 22.8516-21.4844C20.8008-24.1699 19.2383-25.0488 16.2598-25.0488C12.5-25.0488 9.76562-22.7051 9.76562-18.9941C9.76562-17.5781 10.1074-16.2109 10.791-14.7949C13.7695-9.08203 21.1914-4.93164 32.0312-4.93164ZM71.6797-6.39648L87.4512-6.39648C103.906-6.39648 114.844-18.0664 114.844-35.5469C114.844-52.6367 103.906-64.0137 87.4512-64.0137L71.6797-64.0137C67.0898-64.0137 64.1113-61.2793 64.1113-56.6406L64.1113-13.7695C64.1113-9.08203 67.0898-6.39648 71.6797-6.39648ZM79.1992-18.4082L79.1992-52.002L85.4492-52.002C93.8477-52.002 99.4629-45.4102 99.4629-35.5469C99.4629-25.2441 93.8477-18.4082 85.4492-18.4082Z"/>
  </g>
  <g id="Bold-S" transform="matrix(1 0 0 1 2279.99 696)">
   <path d="M31.1035-5.61523C45.0195-5.61523 54.2969-12.5977 54.2969-22.7051C54.2969-30.4688 48.7305-35.4492 39.9414-36.2305L39.9414-36.4258C47.2168-37.6465 52.0996-42.627 52.0996-49.5605C52.0996-58.6914 43.7988-64.7949 31.25-64.7949C21.4844-64.7949 14.0625-60.9375 11.5723-54.7363C10.9375-53.4668 10.6934-52.2461 10.6934-50.8789C10.6934-47.998 12.793-46.0449 15.8203-46.0449C18.5059-46.0449 19.9707-46.875 21.1914-49.1699C23.291-53.125 26.3672-55.127 31.1523-55.127C36.6211-55.127 40.0879-52.3438 40.0879-47.8516C40.0879-43.2617 36.4746-40.3809 30.9082-40.3809L27.9785-40.3809C25-40.3809 23.1445-38.5742 23.1445-35.8887C23.1445-33.2031 25.0488-31.3965 27.9785-31.3965L30.9082-31.3965C37.4512-31.3965 41.3086-28.5645 41.3086-23.584C41.3086-18.9453 37.2559-15.7715 31.2988-15.7715C26.2695-15.7715 22.7539-17.6758 20.8496-21.3867C19.2871-23.7793 17.9199-24.6582 15.2832-24.6582C12.0605-24.6582 9.76562-22.6074 9.76562-19.3848C9.76562-17.9688 10.1074-16.6016 10.8887-15.1855C13.9648-9.47266 21.0938-5.61523 31.1035-5.61523ZM67.9199-6.93359L83.5938-6.93359C99.5605-6.93359 110.205-18.3594 110.205-35.498C110.205-52.3438 99.5605-63.5254 83.5938-63.5254L67.9199-63.5254C64.0625-63.5254 61.5723-61.1816 61.5723-57.2754L61.5723-13.1836C61.5723-9.22852 64.0625-6.93359 67.9199-6.93359ZM74.2188-17.2852L74.2188-53.1738L82.0801-53.1738C91.2598-53.1738 97.3145-46.0938 97.3145-35.4492C97.3145-24.5605 91.2598-17.2852 82.0801-17.2852Z"/>
  </g>
  <g id="Semibold-S" transform="matrix(1 0 0 1 1984.87 696)">
   <path d="M30.4688-6.10352C43.6523-6.10352 52.6855-13.0371 52.6855-22.9004C52.6855-30.5664 47.168-35.5469 38.4277-36.2305L38.4277-36.4258C45.6543-37.5977 50.3906-42.5781 50.3906-49.4141C50.3906-58.252 42.334-64.3555 30.5176-64.3555C21.4355-64.3555 14.4043-60.6934 11.7676-54.7363C11.084-53.3691 10.791-52.0996 10.791-50.6348C10.791-48.0469 12.6465-46.3379 15.2832-46.3379C17.7246-46.3379 18.9941-47.1191 20.0195-49.2676C21.9727-53.5156 25.3418-55.6641 30.3711-55.6641C36.2305-55.6641 39.8926-52.7344 39.8926-47.9492C39.8926-43.0664 35.9863-39.9414 30.127-39.9414L26.8555-39.9414C24.1699-39.9414 22.5098-38.3301 22.5098-35.9375C22.5098-33.4961 24.2188-31.8359 26.8555-31.8359L30.127-31.8359C37.207-31.8359 41.3574-28.8086 41.3574-23.4863C41.3574-18.5547 37.0117-15.1367 30.6152-15.1367C25.1465-15.1367 21.3867-17.2852 19.5312-21.3379C18.2617-23.5352 16.9922-24.3652 14.6484-24.3652C11.7676-24.3652 9.76562-22.5586 9.76562-19.6777C9.76562-18.2617 10.1562-16.8945 10.8887-15.4785C14.1113-9.7168 20.9961-6.10352 30.4688-6.10352ZM65.2832-7.27539L80.9082-7.27539C96.582-7.27539 107.031-18.5547 107.031-35.4492C107.031-52.0996 96.582-63.1836 80.9082-63.1836L65.2832-63.1836C61.9629-63.1836 59.8633-61.084 59.8633-57.7148L59.8633-12.7441C59.8633-9.32617 61.9629-7.27539 65.2832-7.27539ZM70.752-16.5039L70.752-54.0039L79.7363-54.0039C89.4531-54.0039 95.8496-46.582 95.8496-35.4492C95.8496-24.0723 89.4531-16.5039 79.7363-16.5039Z"/>
  </g>
  <g id="Medium-S" transform="matrix(1 0 0 1 1689.38 696)">
   <path d="M30.0293-6.49414C42.627-6.49414 51.416-13.3789 51.416-23.0469C51.416-30.6641 45.9473-35.5957 37.2559-36.2305L37.2559-36.377C44.4824-37.5977 49.1211-42.4805 49.1211-49.3164C49.1211-57.959 41.2598-63.9648 29.9805-63.9648C21.4355-63.9648 14.6973-60.498 11.9629-54.7363C11.2305-53.3203 10.8887-52.002 10.8887-50.4395C10.8887-48.0957 12.5488-46.5332 14.9414-46.5332C17.1387-46.5332 18.2617-47.2656 19.0918-49.3652C20.9961-53.7598 24.5605-56.1035 29.7852-56.1035C35.8887-56.1035 39.6973-52.9785 39.6973-48.0469C39.6973-42.9199 35.5957-39.6484 29.4922-39.6484L25.9766-39.6484C23.584-39.6484 22.0215-38.1836 22.0215-35.9375C22.0215-33.6914 23.584-32.2266 25.9766-32.2266L29.5898-32.2266C37.0117-32.2266 41.4062-29.0527 41.4062-23.3887C41.4062-18.2129 36.8164-14.6973 30.127-14.6973C24.3164-14.6973 20.3613-16.9922 18.457-21.2891C17.4805-23.291 16.2598-24.1211 14.1602-24.1211C11.5723-24.1211 9.76562-22.5098 9.76562-19.9219C9.76562-18.457 10.1562-17.1387 10.9375-15.6738C14.2578-9.86328 20.9473-6.49414 30.0293-6.49414ZM63.3301-7.56836L78.8574-7.56836C94.3359-7.56836 104.59-18.7012 104.59-35.4492C104.59-51.9531 94.3359-62.8906 78.8574-62.8906L63.3301-62.8906C60.4004-62.8906 58.4961-61.0352 58.4961-58.0566L58.4961-12.4512C58.4961-9.42383 60.4004-7.56836 63.3301-7.56836ZM68.1641-15.918L68.1641-54.6387L77.9785-54.6387C88.0859-54.6387 94.7266-46.9238 94.7266-35.4004C94.7266-23.7305 88.0859-15.918 77.9785-15.918Z"/>
  </g>
  <g id="Regular-S" transform="matrix(1 0 0 1 1394.23 696)">
   <path d="M29.3945-6.98242C41.2598-6.98242 49.8047-13.8672 49.8047-23.1934C49.8047-30.7617 44.3848-35.6445 35.6934-36.2305L35.6934-36.377C42.9688-37.5488 47.4609-42.4316 47.4609-49.2188C47.4609-57.5195 39.8438-63.5254 29.248-63.5254C21.3867-63.5254 15.0391-60.2539 12.1582-54.7363C11.377-53.2227 10.9863-51.8555 10.9863-50.1953C10.9863-48.1445 12.4023-46.7773 14.4043-46.7773C16.3574-46.7773 17.2852-47.4609 17.9199-49.4629C19.7266-54.1016 23.5352-56.6406 29.0039-56.6406C35.498-56.6406 39.502-53.3691 39.502-48.1445C39.502-42.7734 35.1074-39.2578 28.7109-39.2578L24.8047-39.2578C22.7539-39.2578 21.3867-37.9395 21.3867-35.9375C21.3867-33.9844 22.7539-32.666 24.8047-32.666L28.8086-32.666C36.7676-32.666 41.4551-29.2969 41.4551-23.291C41.4551-17.8223 36.5723-14.0625 29.4434-14.0625C23.2422-14.0625 18.9941-16.5527 17.1387-21.2402C16.4551-23.0469 15.332-23.8281 13.5254-23.8281C11.2793-23.8281 9.76562-22.4609 9.76562-20.166C9.76562-18.75 10.1562-17.4316 10.9863-15.9668C14.4043-10.1074 20.8984-6.98242 29.3945-6.98242ZM60.7422-7.95898L76.2207-7.95898C91.4062-7.95898 101.465-18.9453 101.465-35.4004C101.465-51.709 91.4062-62.5488 76.2207-62.5488L60.7422-62.5488C58.3496-62.5488 56.7871-60.9863 56.7871-58.4961L56.7871-12.0117C56.7871-9.52148 58.3496-7.95898 60.7422-7.95898ZM64.7461-15.1855L64.7461-55.4199L75.6836-55.4199C86.2793-55.4199 93.3105-47.4121 93.3105-35.3516C93.3105-23.2422 86.2793-15.1855 75.6836-15.1855Z"/>
  </g>
  <g id="Light-S" transform="matrix(1 0 0 1 1098.13 696)">
   <path d="M29.0527-6.93359C40.5762-6.93359 48.9258-13.7207 48.9258-22.998C48.9258-30.6641 43.4082-35.6934 34.7168-36.2793L34.7168-36.4258C41.9922-37.6465 46.5332-42.5781 46.5332-49.3652C46.5332-57.5684 39.1113-63.5254 28.8086-63.5254C20.9473-63.5254 14.5508-59.9609 11.9629-54.0527C11.3281-52.7344 11.0352-51.5137 11.0352-50.1465C11.0352-48.5352 12.1094-47.5098 13.6719-47.5098C15.2344-47.5098 15.8691-48.1445 16.4062-49.7559C17.9199-55.0781 22.5098-58.252 28.6133-58.252C35.7422-58.252 40.4785-54.3457 40.4785-48.584C40.4785-42.627 35.498-38.5742 28.2715-38.5742L23.7793-38.5742C22.2168-38.5742 21.1426-37.5977 21.1426-36.084C21.1426-34.5703 22.2168-33.5449 23.7793-33.5449L28.3203-33.5449C37.2559-33.5449 42.627-29.7363 42.627-23.0469C42.627-16.7969 37.0117-12.3535 29.1016-12.3535C22.168-12.3535 16.9922-15.5762 15.4297-20.9961C14.8926-22.4609 14.0625-23.1445 12.6465-23.1445C10.9375-23.1445 9.76562-22.0703 9.76562-20.3125C9.76562-19.043 10.1074-17.9199 10.7422-16.6992C13.7207-10.4492 20.459-6.93359 29.0527-6.93359ZM59.7656-7.86133L74.6582-7.86133C90.1855-7.86133 100.244-18.8477 100.244-35.3516C100.244-51.7578 90.1855-62.6465 74.6582-62.6465L59.7656-62.6465C57.9102-62.6465 56.7383-61.4258 56.7383-59.5215L56.7383-10.9863C56.7383-9.08203 57.9102-7.86133 59.7656-7.86133ZM62.793-13.3789L62.793-57.2266L74.2188-57.2266C86.3281-57.2266 94.043-48.4375 94.043-35.3027C94.043-22.168 86.3281-13.3789 74.2188-13.3789Z"/>
  </g>
  <g id="Thin-S" transform="matrix(1 0 0 1 802.199 696)">
   <path d="M28.6133-6.88477C39.6484-6.88477 47.7539-13.5742 47.7539-22.7539C47.7539-30.5176 42.1387-35.7422 33.3496-36.2793L33.3496-36.4258C40.7715-37.7441 45.3613-42.7246 45.3613-49.5117C45.3613-57.6172 38.0859-63.5742 28.2227-63.5742C20.3125-63.5742 13.8672-59.5215 11.7188-53.2227C11.2793-52.0996 11.084-51.0254 11.084-50.0977C11.084-49.0234 11.7188-48.3887 12.6953-48.3887C13.7695-48.3887 14.0625-49.0234 14.3555-50.1953C15.5762-56.2988 21.0938-60.4004 28.125-60.4004C36.084-60.4004 41.7969-55.7129 41.7969-49.2188C41.7969-42.4316 35.9863-37.7441 27.6367-37.7441L22.4609-37.7441C21.4844-37.7441 20.8008-37.207 20.8008-36.2305C20.8008-35.3027 21.4844-34.7168 22.4609-34.7168L27.6855-34.7168C37.9395-34.7168 44.0918-30.2734 44.0918-22.7539C44.0918-15.3809 37.5488-10.0586 28.6621-10.0586C20.7031-10.0586 14.4043-14.3066 13.1348-20.6543C12.8906-21.7285 12.4023-22.2168 11.4746-22.2168C10.4492-22.2168 9.76562-21.582 9.76562-20.459C9.76562-19.4824 10.0098-18.5547 10.4004-17.6758C12.8418-10.8398 19.9707-6.88477 28.6133-6.88477ZM58.4473-7.76367L72.5098-7.76367C88.623-7.76367 98.6816-18.75 98.6816-35.3027C98.6816-51.7578 88.623-62.7441 72.5098-62.7441L58.4473-62.7441C57.373-62.7441 56.6895-62.0605 56.6895-60.9375L56.6895-9.57031C56.6895-8.44727 57.373-7.76367 58.4473-7.76367ZM60.2539-10.9863L60.2539-59.5703L72.3633-59.5703C86.377-59.5703 95.0195-49.8535 95.0195-35.3027C95.0195-20.7031 86.377-10.9863 72.3633-10.9863Z"/>
  </g>
  <g id="Ultralight-S" transform="matrix(1 0 0 1 505.903 696)">
   <path d="M28.3691-6.83594C39.1602-6.83594 47.168-13.4766 47.168-22.6562C47.168-30.4199 41.4551-35.791 32.666-36.3281L32.666-36.4746C40.1367-37.8418 44.7266-42.8711 44.7266-49.6582C44.7266-57.666 37.5488-63.5742 27.8809-63.5742C19.9707-63.5742 13.5254-59.3262 11.5723-52.7832C11.2305-51.8066 11.1328-50.7812 11.1328-50.0488C11.1328-49.2676 11.5234-48.877 12.1582-48.877C13.0371-48.877 13.0859-49.5117 13.2812-50.3906C14.4043-56.9336 20.3613-61.5234 27.8809-61.5234C36.2305-61.5234 42.4805-56.3965 42.4805-49.5605C42.4805-42.334 36.2793-37.3047 27.2949-37.3047L21.7285-37.3047C21.0938-37.3047 20.6543-36.9629 20.6543-36.3281C20.6543-35.6934 21.0938-35.3027 21.7285-35.3027L27.3926-35.3027C38.2812-35.3027 44.873-30.5664 44.873-22.6074C44.873-14.6484 37.8418-8.88672 28.418-8.88672C19.9707-8.88672 13.0371-13.623 11.9629-20.459C11.8652-21.3379 11.5234-21.7285 10.8887-21.7285C10.2051-21.7285 9.76562-21.3379 9.76562-20.5566C9.76562-19.6777 9.96094-18.8477 10.2051-18.2129C12.3535-11.084 19.6777-6.83594 28.3691-6.83594ZM57.7637-7.66602L71.4355-7.66602C87.8418-7.66602 97.8516-18.7012 97.8516-35.2539C97.8516-51.8066 87.8418-62.8418 71.4355-62.8418L57.7637-62.8418C57.0801-62.8418 56.6406-62.4023 56.6406-61.6699L56.6406-8.83789C56.6406-8.10547 57.0801-7.66602 57.7637-7.66602ZM58.9355-9.76562L58.9355-60.7422L71.3867-60.7422C86.4258-60.7422 95.5566-50.5859 95.5566-35.2539C95.5566-19.9707 86.4258-9.76562 71.3867-9.76562Z"/>
  </g>
 </g>
</svg>
