# WaveFront *.obj file (generated by Cheetah3D)

mtllib Mix18.mtl

g Mix_18
v 0.046190 0.044135 0.075000
v 0.033295 0.048835 0.055778
v 0.033291 0.046906 0.056538
v 0.034496 0.046621 0.055033
v 0.034478 0.048541 0.054234
v 0.018368 0.041126 0.038862
v 0.018977 0.038242 0.040662
v 0.021166 0.038859 0.038207
v 0.020213 0.041249 0.036442
v 0.003524 0.021184 0.031166
v 0.006712 0.019851 0.032735
v 0.009969 0.019737 0.029846
v 0.006808 0.021246 0.028031
v -0.002496 0.002668 0.029624
v 0.003136 0.002668 0.034199
v 0.008717 0.002668 0.029822
v 0.003100 0.002668 0.025218
v 0.080526 0.041071 0.018229
v 0.071789 0.038147 0.007077
v 0.072002 0.037051 0.007535
v 0.072784 0.037260 0.006730
v 0.072591 0.038313 0.006298
v 0.064531 0.028035 -0.001197
v 0.064963 0.026997 -0.000242
v 0.066313 0.027214 -0.001354
v 0.065840 0.028470 -0.002362
v 0.060410 0.015871 -0.008923
v 0.061803 0.015513 -0.006916
v 0.063902 0.015422 -0.008627
v 0.062529 0.016510 -0.010581
v 0.057450 0.002668 -0.010943
v 0.060214 0.002668 -0.007189
v 0.063851 0.002668 -0.010147
v 0.061087 0.002668 -0.013902
v -0.040991 0.002668 -0.083673
v 0.003234 0.002668 -0.032503
v 0.033576 0.002668 -0.129720
v 0.067817 0.002668 -0.053382
v -0.040991 0.036444 -0.083673
v 0.003234 0.033409 -0.032503
v 0.031567 0.036444 -0.123198
v 0.067817 0.038772 -0.053382
v -0.040991 0.055583 -0.083673
v 0.003234 0.050406 -0.032503
v 0.031567 0.050406 -0.123198
v 0.055513 0.050959 -0.058812
v -0.072666 0.002668 -0.040276
v -0.046986 0.002668 -0.011955
v -0.044738 0.023760 -0.013093
v -0.070254 0.036444 -0.045487
v 0.029119 0.002668 -0.005723
v 0.072809 0.002668 -0.022982
v 0.072809 0.025723 -0.022982
v 0.029119 0.025723 -0.005723
v -0.059006 0.002668 -0.070022
v -0.014658 0.002668 -0.019765
v -0.013472 0.033409 -0.020253
v -0.059006 0.036444 -0.070022
v -0.058410 0.026251 -0.027274
v -0.036147 0.033409 -0.043392
v -0.062110 0.033409 -0.031952
v -0.062975 0.002668 -0.029589
v -0.060480 0.002668 -0.026459
v -0.036147 0.002668 -0.043392
v -0.100880 0.109777 -0.016215
v -0.092254 0.077727 -0.021166
v -0.090579 0.078861 -0.022341
v -0.091926 0.078856 -0.024200
v -0.093603 0.077720 -0.023023
v -0.084460 0.053307 -0.023326
v -0.080472 0.054687 -0.025878
v -0.083579 0.054865 -0.030045
v -0.087573 0.053439 -0.027452
v -0.078723 0.025987 -0.024871
v -0.074266 0.026412 -0.027640
v -0.077354 0.026525 -0.032386
v -0.081839 0.026042 -0.029535
v -0.074638 0.002668 -0.026705
v -0.067693 0.002668 -0.031314
v -0.073076 0.002668 -0.038159
v -0.080058 0.002668 -0.033474
v -0.051167 0.060635 0.038005
v -0.036477 0.039678 0.032529
v -0.038061 0.038415 0.033394
v -0.036887 0.039160 0.034952
v -0.035268 0.040338 0.034096
v -0.024569 0.019571 0.027540
v -0.027862 0.017901 0.029294
v -0.025472 0.018885 0.032595
v -0.022126 0.020262 0.030880
v -0.014767 0.002668 0.024040
v -0.019807 0.002668 0.026973
v -0.016349 0.002668 0.032150
v -0.011225 0.002668 0.029306
v -0.104722 0.045652 -0.052144
v -0.092428 0.034249 -0.045680
v -0.091715 0.034408 -0.047089
v -0.092742 0.033298 -0.047508
v -0.093579 0.033297 -0.046142
v -0.081451 0.020119 -0.042312
v -0.080017 0.020110 -0.044983
v -0.082457 0.018553 -0.046253
v -0.083894 0.018443 -0.043496
v -0.075231 0.002668 -0.041860
v -0.073017 0.002668 -0.045737
v -0.077106 0.002668 -0.047415
v -0.079277 0.002668 -0.043627
v -0.054522 0.059911 0.007760
v -0.036323 0.045230 0.015275
v -0.037451 0.044477 0.013214
v -0.039005 0.043419 0.014380
v -0.037795 0.044035 0.016418
v -0.020194 0.026656 0.019316
v -0.022703 0.024706 0.016075
v -0.025411 0.023057 0.019298
v -0.022913 0.025078 0.022530
v -0.008425 0.002668 0.019728
v -0.011900 0.002668 0.014459
v -0.015962 0.002668 0.019484
v -0.012303 0.002668 0.024767
v -0.008422 0.114842 0.057730
v -0.008869 0.092515 0.047106
v -0.009283 0.091172 0.048995
v -0.007473 0.091147 0.048999
v -0.007070 0.092490 0.047085
v -0.008290 0.068991 0.039310
v -0.006386 0.066705 0.042214
v -0.002489 0.066876 0.042943
v -0.004328 0.069017 0.039586
v -0.007684 0.045181 0.033776
v -0.007452 0.043709 0.038350
v -0.001877 0.043361 0.039518
v -0.001668 0.044127 0.034850
v -0.011825 0.023210 0.025963
v -0.011520 0.020706 0.034067
v -0.003393 0.020358 0.032669
v -0.003491 0.021735 0.024735
v -0.008729 0.002668 0.025854
v -0.009237 0.002668 0.030999
v -0.004115 0.002668 0.029739
v -0.003596 0.002668 0.024613
v 0.054334 0.002668 -0.006486
v 0.062605 0.002668 -0.005819
v 0.053729 0.007858 -0.005155
v 0.059548 0.007294 -0.004951
v 0.052848 0.021838 -0.005779
v 0.056400 0.021668 -0.005891
v 0.052684 0.036005 -0.004171
v 0.059400 0.002668 -0.003622
v 0.063928 0.002668 -0.006432
v 0.060306 0.006187 -0.003010
v 0.063524 0.005225 -0.005274
v 0.063264 0.016091 -0.003944
v 0.065540 0.015156 -0.005281
v 0.068025 0.024889 -0.005495
v 0.050727 0.002668 -0.007578
v 0.054967 0.002668 -0.006649
v 0.049616 0.003720 -0.007466
v 0.052511 0.003909 -0.006483
v 0.048761 0.010207 -0.007589
v 0.050536 0.010497 -0.007052
v 0.047982 0.016978 -0.007608

vt 0.625000 0.750000
vt 0.375000 0.750000
vt 0.500000 1.000000
vt 0.750000 0.500000
vt 0.250000 0.500000
vt 0.875000 0.250000
vt 0.125000 0.250000
vt 1.000000 0.000000
vt 0.000000 0.000000
vt 0.666667 0.666667
vt 0.333333 0.666667
vt 0.833333 0.333333
vt 0.166667 0.333333
vt 0.600000 0.800000
vt 0.400000 0.800000
vt 0.700000 0.600000
vt 0.300000 0.600000
vt 0.800000 0.400000
vt 0.200000 0.400000
vt 0.900000 0.200000
vt 0.100000 0.200000
vt 0.000000 0.333333
vt 1.000000 0.333333
vt 0.000000 0.666667
vt 1.000000 0.666667
vt 0.117022 0.858050
vt 0.882978 0.858050
vt 0.882978 0.141949
vt 0.117022 0.141949
vt 0.592166 0.000000
vt 0.660282 0.648694
vt 1.000000 0.648694
vt 0.000000 0.648694
vt 0.882978 0.934034
vt 0.117022 0.934034
vt 0.858051 0.962744
vt 0.141949 0.962744
vt 0.574405 0.648694
vt 0.451011 0.648694
vt 0.377348 0.000000

vn -0.780507 0.222437 0.584235
vn -0.781204 0.230082 0.580330
vn 0.051400 -0.993003 0.106316
vn -0.220847 -0.975276 0.007892
vn 0.819418 -0.182845 -0.543251
vn 0.832951 -0.206168 -0.513505
vn 0.031093 0.995230 -0.092472
vn 0.289465 0.956367 0.039640
vn -0.696472 0.158235 0.699920
vn 0.470941 -0.794681 0.383009
vn 0.721885 -0.109753 -0.683254
vn -0.424988 0.819791 -0.383834
vn -0.574322 0.122226 0.809454
vn 0.639084 -0.345047 0.687397
vn 0.606199 -0.037729 -0.794418
vn -0.621005 0.447706 -0.643360
vn -0.550470 0.146180 0.821957
vn 0.633601 -0.056901 0.771564
vn 0.588245 -0.017516 -0.808493
vn -0.627630 0.251109 -0.736902
vn -0.805633 0.112248 0.581683
vn -0.795616 0.096090 0.598131
vn 0.452255 -0.849688 0.271102
vn 0.337398 -0.937645 0.083571
vn 0.836192 -0.083188 -0.542091
vn 0.837914 -0.068537 -0.541482
vn -0.423667 0.876182 -0.229809
vn -0.253309 0.965830 -0.054832
vn -0.841295 0.041997 0.538942
vn 0.552274 -0.624232 0.552565
vn 0.860478 -0.001059 -0.509486
vn -0.599802 0.645918 -0.472258
vn -0.835447 0.022227 0.549122
vn 0.605265 -0.316241 0.730511
vn 0.847178 0.077814 -0.525580
vn -0.634653 0.408301 -0.656129
vn -0.805213 0.089014 0.586266
vn 0.627631 -0.094329 0.772775
vn 0.813697 0.059586 -0.578227
vn -0.622762 0.247915 -0.742096
vn 0.541470 0.057766 0.838733
vn 0.563193 0.023984 0.825978
vn 0.750330 0.375527 -0.544044
vn 0.754883 0.360148 -0.548129
vn -0.573932 0.024012 -0.818551
vn -0.590578 0.037133 -0.806126
vn -0.770696 -0.294901 0.564855
vn -0.772511 -0.294802 0.562422
vn 0.520724 0.076569 0.850284
vn 0.778577 0.305084 -0.548400
vn -0.544840 -0.018104 -0.838345
vn -0.785620 -0.250367 0.565789
vn 0.532608 0.043128 0.845262
vn 0.790295 0.252735 -0.558175
vn -0.542294 0.026591 -0.839768
vn -0.795343 -0.188644 0.576058
vn 0.542419 0.024560 0.839749
vn 0.774414 0.288313 -0.563168
vn -0.549404 0.100099 -0.829539
vn -0.789731 -0.172031 0.588839
vn -0.442889 -0.058058 -0.894695
vn -0.434700 -0.070095 -0.897843
vn -0.610018 -0.459098 0.645839
vn -0.576549 -0.477627 0.662920
vn 0.397437 0.125450 0.909014
vn 0.388671 0.128755 0.912336
vn 0.578374 0.526974 -0.622722
vn 0.537108 0.544754 -0.644017
vn -0.461576 -0.074783 -0.883943
vn -0.679859 -0.439817 0.586816
vn 0.422309 0.164652 0.891373
vn 0.657514 0.501643 -0.562165
vn -0.471713 -0.103483 -0.875659
vn -0.715217 -0.438522 0.544209
vn 0.437495 0.206798 0.875119
vn 0.694842 0.493887 -0.522753
vn 0.610473 0.699757 0.371029
vn 0.528861 0.771126 0.354500
vn 0.354438 0.078858 -0.931748
vn 0.368810 0.008812 -0.929463
vn -0.665713 -0.634206 -0.393203
vn -0.595760 -0.715019 -0.365810
vn -0.395105 -0.004107 0.918627
vn -0.417146 0.064148 0.906573
vn 0.769573 0.472637 0.429385
vn 0.352578 0.168435 -0.920499
vn -0.797855 -0.401899 -0.449337
vn -0.378486 -0.094688 0.920751
vn 0.830511 0.310629 0.462343
vn 0.366664 0.188255 -0.911108
vn -0.846818 -0.247383 -0.470851
vn -0.385779 -0.116982 0.915145
vn 0.650104 0.465895 -0.600256
vn 0.650428 0.525642 -0.548310
vn -0.353428 -0.513209 -0.782116
vn -0.234332 -0.543946 -0.805736
vn -0.701294 -0.382326 0.601676
vn -0.706132 -0.442489 0.552794
vn 0.279305 0.567451 0.774589
vn 0.143322 0.585970 0.797557
vn 0.683159 0.386089 -0.619862
vn -0.591458 -0.398658 -0.700892
vn -0.713474 -0.314989 0.625889
vn 0.558671 0.460248 0.689970
vn 0.718897 0.367980 -0.589727
vn -0.702161 -0.313610 -0.639233
vn -0.734067 -0.309833 0.604275
vn 0.690505 0.368583 0.622375
vn -0.999439 -0.020633 0.026366
vn -0.984381 0.091325 -0.150515
vn -0.061579 -0.308911 0.949095
vn -0.007021 -0.345970 0.938219
vn 0.996058 0.084840 0.025905
vn 0.982100 -0.029200 0.186085
vn 0.018809 0.371657 -0.928180
vn -0.004481 0.429730 -0.902946
vn -0.969597 -0.086799 0.228796
vn -0.156741 -0.210766 0.964888
vn 0.977910 0.145113 -0.150450
vn 0.097579 0.263537 -0.959701
vn -0.983072 0.057269 0.174038
vn -0.096762 -0.193971 0.976224
vn 0.996326 0.011157 -0.084913
vn 0.104192 0.292006 -0.950724
vn -0.999629 0.010435 0.025149
vn 0.097943 -0.196069 0.975686
vn 0.998736 -0.048533 0.013069
vn -0.064804 0.184573 -0.980680
vn -0.990058 -0.134662 -0.040644
vn 0.190449 -0.154438 0.969473
vn 0.999250 -0.024956 0.029608
vn -0.181205 -0.007955 -0.983413
vn -0.038053 -0.095290 0.994722
vn -0.069568 -0.242594 0.967630
vn 0.010130 -0.029205 0.999522
vn 0.025834 -0.112445 0.993322
vn 0.514929 -0.186407 0.836720
vn 0.501390 -0.279933 0.818685
vn 0.498450 -0.096369 0.861546
vn 0.472762 -0.101498 0.875325
vn -0.270954 -0.237961 0.932716
vn -0.220354 -0.447495 0.866714
vn -0.296301 -0.023187 0.954813
vn -0.284761 -0.030035 0.958128
vn 0.044302 0.998922 0.013840
vn -0.718119 0.099535 0.688765
vn 0.367402 -0.000000 0.930062
vn 0.932511 0.132369 -0.336009
vn 0.887250 0.196594 -0.417300
vn 0.898313 0.066361 -0.434315
vn 0.952889 0.033544 -0.301460
vn -0.490306 0.034199 -0.870879
vn -0.529367 0.022844 -0.848086
vn -0.554132 0.034259 -0.831723
vn -0.501587 0.068352 -0.862403
vn -0.756584 -0.000000 0.653896
vn -0.738093 -0.000000 0.674699
vn 0.342533 0.309456 0.887079
vn 0.473807 0.155512 0.866789
vn 0.860772 0.323412 -0.393034
vn -0.478356 0.000000 -0.878166
vn 0.414328 0.005438 0.910111
vn 0.585493 -0.004861 0.810663
vn -0.096275 0.987364 0.125874
vn -0.026113 0.994311 0.103263
vn 0.022183 0.991323 0.129560
vn -0.779917 0.000140 -0.625884
vn 0.986781 0.000000 -0.162061
vn 0.062323 0.948591 0.310308
vn -0.719031 -0.000000 0.694978
vn 0.226884 0.015523 0.973798
vn -0.908874 0.000272 -0.417071
vn -0.190117 0.949774 0.248567
vn 0.083054 0.992835 0.085910
vn 0.043360 0.995822 0.080364
vn -0.793685 0.110534 0.598203
vn -0.579543 0.009865 -0.814882
vn 0.431215 0.028592 0.901796
vn 0.003595 0.997200 0.074688

usemtl Grass
f 1/3/2 2/2/1 3/1/1
f 1/3/4 3/2/3 4/1/3
f 1/3/6 4/2/5 5/1/5
f 1/3/8 5/2/7 2/1/7
f 2/2/1 6/5/9 7/4/9 3/1/1
f 3/2/3 7/5/10 8/4/10 4/1/3
f 4/2/5 8/5/11 9/4/11 5/1/5
f 5/2/7 9/5/12 6/4/12 2/1/7
f 6/5/9 10/7/13 11/6/13 7/4/9
f 7/5/10 11/7/14 12/6/14 8/4/10
f 8/5/11 12/7/15 13/6/15 9/4/11
f 9/5/12 13/7/16 10/6/16 6/4/12
f 10/7/13 14/9/17 15/8/17 11/6/13
f 11/7/14 15/9/18 16/8/18 12/6/14
f 12/7/15 16/9/19 17/8/19 13/6/15
f 13/7/16 17/9/20 14/8/20 10/6/16
f 18/3/22 19/2/21 20/1/21
f 18/3/24 20/2/23 21/1/23
f 18/3/26 21/2/25 22/1/25
f 18/3/28 22/2/27 19/1/27
f 19/2/21 23/5/29 24/4/29 20/1/21
f 20/2/23 24/5/30 25/4/30 21/1/23
f 21/2/25 25/5/31 26/4/31 22/1/25
f 22/2/27 26/5/32 23/4/32 19/1/27
f 23/5/29 27/7/33 28/6/33 24/4/29
f 24/5/30 28/7/34 29/6/34 25/4/30
f 25/5/31 29/7/35 30/6/35 26/4/31
f 26/5/32 30/7/36 27/6/36 23/4/32
f 27/7/33 31/9/37 32/8/37 28/6/33
f 28/7/34 32/9/38 33/8/38 29/6/34
f 29/7/35 33/9/39 34/8/39 30/6/35
f 30/7/36 34/9/40 31/8/40 27/6/36
f 65/3/42 66/2/41 67/1/41
f 65/3/44 67/2/43 68/1/43
f 65/3/46 68/2/45 69/1/45
f 65/3/48 69/2/47 66/1/47
f 66/2/41 70/5/49 71/4/49 67/1/41
f 67/2/43 71/5/50 72/4/50 68/1/43
f 68/2/45 72/5/51 73/4/51 69/1/45
f 69/2/47 73/5/52 70/4/52 66/1/47
f 70/5/49 74/7/53 75/6/53 71/4/49
f 71/5/50 75/7/54 76/6/54 72/4/50
f 72/5/51 76/7/55 77/6/55 73/4/51
f 73/5/52 77/7/56 74/6/56 70/4/52
f 74/7/53 78/9/57 79/8/57 75/6/53
f 75/7/54 79/9/58 80/8/58 76/6/54
f 76/7/55 80/9/59 81/8/59 77/6/55
f 77/7/56 81/9/60 78/8/60 74/6/56
f 82/3/62 83/11/61 84/10/61
f 82/3/64 84/11/63 85/10/63
f 82/3/66 85/11/65 86/10/65
f 82/3/68 86/11/67 83/10/67
f 83/11/61 87/13/69 88/12/69 84/10/61
f 84/11/63 88/13/70 89/12/70 85/10/63
f 85/11/65 89/13/71 90/12/71 86/10/65
f 86/11/67 90/13/72 87/12/72 83/10/67
f 87/13/69 91/9/73 92/8/73 88/12/69
f 88/13/70 92/9/74 93/8/74 89/12/70
f 89/13/71 93/9/75 94/8/75 90/12/71
f 90/13/72 94/9/76 91/8/76 87/12/72
f 95/3/78 96/11/77 97/10/77
f 95/3/80 97/11/79 98/10/79
f 95/3/82 98/11/81 99/10/81
f 95/3/84 99/11/83 96/10/83
f 96/11/77 100/13/85 101/12/85 97/10/77
f 97/11/79 101/13/86 102/12/86 98/10/79
f 98/11/81 102/13/87 103/12/87 99/10/81
f 99/11/83 103/13/88 100/12/88 96/10/83
f 100/13/85 104/9/89 105/8/89 101/12/85
f 101/13/86 105/9/90 106/8/90 102/12/86
f 102/13/87 106/9/91 107/8/91 103/12/87
f 103/13/88 107/9/92 104/8/92 100/12/88
f 108/3/94 109/11/93 110/10/93
f 108/3/96 110/11/95 111/10/95
f 108/3/98 111/11/97 112/10/97
f 108/3/100 112/11/99 109/10/99
f 109/11/93 113/13/101 114/12/101 110/10/93
f 110/11/95 114/13/102 115/12/102 111/10/95
f 111/11/97 115/13/103 116/12/103 112/10/97
f 112/11/99 116/13/104 113/12/104 109/10/99
f 113/13/101 117/9/105 118/8/105 114/12/101
f 114/13/102 118/9/106 119/8/106 115/12/102
f 115/13/103 119/9/107 120/8/107 116/12/103
f 116/13/104 120/9/108 117/8/108 113/12/104
f 121/3/110 122/15/109 123/14/109
f 121/3/112 123/15/111 124/14/111
f 121/3/114 124/15/113 125/14/113
f 121/3/116 125/15/115 122/14/115
f 122/15/109 126/17/117 127/16/117 123/14/109
f 123/15/111 127/17/118 128/16/118 124/14/111
f 124/15/113 128/17/119 129/16/119 125/14/113
f 125/15/115 129/17/120 126/16/120 122/14/115
f 126/17/117 130/19/121 131/18/121 127/16/117
f 127/17/118 131/19/122 132/18/122 128/16/118
f 128/17/119 132/19/123 133/18/123 129/16/119
f 129/17/120 133/19/124 130/18/124 126/16/120
f 130/19/121 134/21/125 135/20/125 131/18/121
f 131/19/122 135/21/126 136/20/126 132/18/122
f 132/19/123 136/21/127 137/20/127 133/18/123
f 133/19/124 137/21/128 134/20/128 130/18/124
f 134/21/125 138/9/129 139/8/129 135/20/125
f 135/21/126 139/9/130 140/8/130 136/20/126
f 136/21/127 140/9/131 141/8/131 137/20/127
f 137/21/128 141/9/132 138/8/132 134/20/128
f 142/9/134 143/8/134 145/23/133 144/22/133
f 144/22/133 145/23/133 147/25/135 146/24/135
f 146/24/135 147/25/135 148/3/136
f 149/9/138 150/8/138 152/23/137 151/22/137
f 151/22/137 152/23/137 154/25/139 153/24/139
f 153/24/139 154/25/139 155/3/140
f 156/9/142 157/8/142 159/23/141 158/22/141
f 158/22/141 159/23/141 161/25/143 160/24/143
f 160/24/143 161/25/143 162/3/144

usemtl Stones
f 43/29/145 44/28/145 46/27/145 45/26/145
f 48/8/146 49/32/146 59/31/146 63/30/146
f 51/9/147 52/8/147 53/32/147 54/33/147
f 38/9/151 37/8/150 41/32/149 42/33/148
f 37/9/155 35/8/154 39/32/153 41/33/152
f 43/35/156 39/33/156 40/32/157 44/34/156
f 44/37/158 40/33/159 42/32/158 46/36/158
f 46/35/160 42/33/148 41/32/149 45/34/160
f 45/37/161 41/33/152 39/32/153 43/36/161
f 36/8/163 40/32/159 57/32/162 56/8/162
f 40/32/166 60/38/165 57/32/164
f 35/9/154 55/9/167 58/33/167 39/33/153
f 38/8/151 42/32/148 53/32/168 52/8/168
f 42/32/169 40/33/166 54/33/169 53/32/169
f 40/33/157 36/9/170 51/9/170 54/33/170
f 49/32/171 48/8/171 56/8/162 57/32/162
f 55/9/167 47/9/172 50/33/172 58/33/167
f 49/32/173 57/32/164 60/38/165 59/31/173
f 60/38/165 58/33/175 50/33/174 61/39/174
f 61/39/176 50/33/176 47/9/176 62/40/176
f 64/34/177 63/35/177 59/35/177 60/34/177
f 64/34/178 60/34/178 61/37/178 62/36/178
f 39/33/179 58/33/175 60/38/165 40/32/166

usemtl default

