# WaveFront *.obj file (generated by Cheetah3D)

mtllib Mix24.mtl

g Mix_24
v 0.031649 -0.002178 0.031585
v 0.032955 -0.002178 0.027041
v 0.033929 0.006685 0.029884
v 0.034732 0.005441 0.026790
v 0.035146 0.014771 0.024703
v 0.035660 0.013541 0.023145
v 0.036502 0.020615 0.018183
v 0.026541 -0.002178 0.033039
v 0.031323 -0.002178 0.029571
v 0.026348 0.008635 0.031841
v 0.029813 0.007962 0.029522
v 0.026224 0.018399 0.029435
v 0.028166 0.018035 0.027826
v 0.026516 0.028230 0.028684
v 0.025021 -0.002178 0.034919
v 0.030517 -0.002178 0.032957
v 0.026022 0.007162 0.036501
v 0.029455 0.008426 0.034606
v 0.023205 0.015028 0.037045
v 0.024993 0.016373 0.036033
v 0.017165 0.022141 0.037169
v 0.022390 -0.002178 0.011249
v 0.022236 -0.002178 0.014785
v 0.025785 -0.002178 0.014936
v 0.025939 -0.002178 0.011400
v 0.022903 0.012309 0.010598
v 0.022764 0.011786 0.013572
v 0.025690 0.011045 0.013746
v 0.025829 0.011568 0.010772
v 0.024147 0.027280 0.010798
v 0.023999 0.026261 0.013158
v 0.026277 0.025070 0.013300
v 0.026425 0.026089 0.010941
v 0.026074 0.041203 0.011827
v 0.025916 0.040028 0.013544
v 0.027545 0.038727 0.013628
v 0.027703 0.039902 0.011911
v 0.028617 0.053726 0.013638
v 0.028471 0.052720 0.014713
v 0.029474 0.051633 0.014738
v 0.029619 0.052638 0.013663
v 0.022623 -0.002178 0.016847
v 0.018404 -0.002178 0.015294
v 0.023122 0.010176 0.020599
v 0.014853 0.010243 0.017714
v 0.022570 0.018256 0.028745
v 0.009494 0.018210 0.023866
v 0.018579 0.021739 0.040414
v 0.004533 0.021301 0.034970
v 0.012089 0.019562 0.048854
v 0.003460 0.019796 0.045181
v 0.004138 0.010044 0.056775
v 0.026720 -0.002178 0.013757
v 0.024594 -0.002178 0.016544
v 0.029884 0.007723 0.013064
v 0.025950 0.008834 0.018609
v 0.035961 0.015105 0.013867
v 0.029391 0.017283 0.022440
v 0.043572 0.022172 0.018350
v 0.036422 0.024206 0.027621
v 0.048916 0.025623 0.025114
v 0.044410 0.026829 0.030819
v 0.056543 0.026832 0.035682
v 0.024519 -0.002178 0.009667
v 0.026692 -0.002178 0.011823
v 0.024960 0.007363 0.006580
v 0.029340 0.008036 0.010605
v 0.027097 0.013318 0.001150
v 0.033856 0.014782 0.007771
v 0.032534 0.018580 -0.005126
v 0.039805 0.019888 0.002087
v 0.039295 0.020643 -0.009017
v 0.043752 0.021414 -0.004484
v 0.049362 0.020298 -0.014297
v 0.019577 -0.002178 0.015590
v 0.021727 -0.002178 0.015138
v 0.021242 -0.002178 0.012989
v 0.019092 -0.002178 0.013441
v 0.018637 0.007357 0.016811
v 0.020272 0.008114 0.016544
v 0.019819 0.008834 0.014933
v 0.018184 0.008077 0.015200
v 0.017317 0.015775 0.018625
v 0.018459 0.016701 0.018520
v 0.018058 0.017599 0.017423
v 0.016917 0.016673 0.017528
v 0.015655 0.023725 0.020984
v 0.016341 0.024539 0.020989
v 0.016032 0.025335 0.020354
v 0.015346 0.024521 0.020349
v 0.013700 0.030901 0.023819
v 0.013983 0.031352 0.023860
v 0.013818 0.031795 0.023611
v 0.013535 0.031344 0.023571
v 0.014686 0.029424 0.024357
v 0.015484 0.030413 0.022899
v 0.012680 0.029376 0.023228
v 0.013477 0.030365 0.021770
v 0.013714 0.035816 0.030999
v 0.016273 0.038993 0.026319
v 0.007274 0.035662 0.027373
v 0.009833 0.038839 0.022692
v 0.026384 0.050653 0.014441
v 0.028645 0.049766 0.016163
v 0.028506 0.050555 0.011603
v 0.030767 0.049668 0.013325
v 0.026482 0.066163 0.017829
v 0.032677 0.063731 0.022546
v 0.032296 0.065894 0.010054
v 0.038492 0.063462 0.014771
v -0.012148 0.007169 0.045100
v -0.010212 -0.002178 0.037575
v 0.002321 0.003892 0.042316
v 0.009660 0.005894 0.039686
v 0.011330 0.006568 0.029382
v -0.005888 0.003892 0.031760
v -0.001532 0.005894 0.025295
v 0.008866 0.006568 0.026214
v -0.010983 0.003053 0.030259
v -0.011624 0.005055 0.022490
v -0.021145 0.005729 0.018210
v -0.023305 0.003053 0.035457
v -0.028422 0.005055 0.029575
v -0.024843 0.005729 0.019770
v -0.018687 -0.002178 0.041051
v -0.025665 0.003892 0.039325
v -0.033185 0.005894 0.037269
v -0.040463 0.006568 0.044752
v -0.018090 -0.002178 0.050129
v -0.024995 0.003892 0.052680
v -0.032272 0.005894 0.055478
v -0.040262 0.006568 0.048761
v -0.004661 0.003892 0.057619
v 0.000320 0.005894 0.063616
v 0.010574 0.006568 0.061661
v -0.004468 -0.002178 0.044599
v 0.002450 0.003892 0.046294
v 0.010016 0.005894 0.048176
v 0.012708 0.006568 0.058262
v -0.021578 0.003892 0.056373
v -0.025509 0.005894 0.063105
v -0.020165 0.006568 0.072072
v -0.009234 -0.002178 0.052125
v -0.008504 0.003892 0.059183
v -0.007685 0.005894 0.066936
v -0.016241 0.006568 0.072915
v -0.067415 -0.002178 -0.060438
v -0.026344 -0.002178 -0.007636
v -0.034728 -0.002178 -0.079757
v -0.004881 -0.002178 -0.036647
v -0.067415 0.022256 -0.060438
v -0.026344 0.022256 -0.007636
v -0.034728 0.022256 -0.079757
v -0.004881 0.022256 -0.036647
v -0.076275 -0.002178 -0.037583
v -0.056596 -0.002178 0.001686
v -0.056596 0.022256 0.001686
v -0.076275 0.022256 -0.037583
v -0.037658 0.022256 -0.018400
v -0.011631 0.022256 -0.036419
v -0.033737 0.022256 -0.068348
v -0.059763 0.022256 -0.050329
v -0.065119 0.022256 -0.035015
v -0.048445 0.022256 -0.010931
v -0.038511 0.037257 -0.019633
v -0.013719 0.037257 -0.036798
v -0.034117 0.037257 -0.066261
v -0.058909 0.037257 -0.049096
v -0.063032 0.037257 -0.034635
v -0.048066 0.037257 -0.013019
v -0.045036 -0.002178 0.018409
v -0.039976 -0.002178 0.022950
v -0.043926 0.006764 0.018399
v -0.041186 0.006874 0.022236
v -0.043117 0.018519 0.019274
v -0.041088 0.018809 0.021349
v -0.044180 0.030145 0.020488
v -0.044342 -0.002178 0.022246
v -0.040226 -0.002178 0.023956
v -0.042505 -0.002178 0.022925
v -0.039207 -0.002178 0.024461
v -0.042363 0.009855 0.024913
v -0.040634 0.009496 0.025723
v -0.040958 0.018064 0.025532
v -0.040596 -0.002178 0.020318
v -0.036948 -0.002178 0.022920
v -0.038538 0.001808 0.023092
v -0.035939 0.000462 0.024896
v -0.036341 0.011080 0.026627
v -0.034977 0.009811 0.027532
v -0.031255 0.016679 0.029618
v -0.051529 -0.002178 0.006391
v -0.048653 -0.002178 0.009505
v -0.052383 0.005619 0.007041
v -0.049356 0.006052 0.008096
v -0.054927 0.013308 0.005179
v -0.053142 0.014464 0.005419
v -0.057584 0.019712 0.002032
v -0.044556 0.045718 -0.009683
v -0.042838 0.047176 -0.007860
v -0.041852 0.045300 -0.011822
v -0.040135 0.046758 -0.009999
v -0.050713 0.056241 -0.015327
v -0.046573 0.059754 -0.010935
v -0.044197 0.055233 -0.020482
v -0.040057 0.058747 -0.016090
v -0.034710 0.054984 0.019005
v -0.035408 0.055741 0.016034
v -0.038342 0.054643 0.019711
v -0.039041 0.055400 0.016740
v -0.031492 0.068293 0.024427
v -0.033377 0.070335 0.016404
v -0.041300 0.067371 0.026334
v -0.043186 0.069414 0.018311
v -0.036067 -0.002178 0.002617
v -0.036562 -0.002178 0.005841
v -0.033251 -0.002178 0.006264
v -0.032756 -0.002178 0.003040
v -0.036970 0.011530 0.000394
v -0.037462 0.012807 0.002954
v -0.034738 0.013890 0.003147
v -0.034246 0.012613 0.000587
v -0.038502 0.024112 -0.002632
v -0.038996 0.025810 -0.000716
v -0.036864 0.027351 -0.000732
v -0.036371 0.025652 -0.002649
v -0.040625 0.035904 -0.006372
v -0.041101 0.037686 -0.005047
v -0.039542 0.039345 -0.005220
v -0.039065 0.037563 -0.006545
v -0.043274 0.046463 -0.010707
v -0.043692 0.048016 -0.009895
v -0.042665 0.049482 -0.010147
v -0.042246 0.047929 -0.010959
v -0.031229 -0.002178 0.009330
v -0.031653 -0.002178 0.005851
v -0.035243 -0.002178 0.006229
v -0.034818 -0.002178 0.009707
v -0.032424 0.011629 0.011674
v -0.032782 0.012130 0.008735
v -0.035816 0.011894 0.009054
v -0.035457 0.011393 0.011993
v -0.033618 0.026592 0.014018
v -0.033911 0.027002 0.011618
v -0.036388 0.026809 0.011878
v -0.036095 0.026400 0.014278
v -0.034813 0.041556 0.016362
v -0.035040 0.041874 0.014501
v -0.036961 0.041724 0.014703
v -0.036734 0.041407 0.016564
v -0.036008 0.056520 0.018706
v -0.036169 0.056745 0.017384
v -0.037534 0.056639 0.017528
v -0.037372 0.056414 0.018850
v -0.037812 -0.002178 0.010835
v -0.038913 -0.002178 0.006305
v -0.039249 0.007848 0.012612
v -0.040744 0.008133 0.003436
v -0.044697 0.020475 0.014455
v -0.046696 0.020511 -0.000141
v -0.056685 0.030223 0.015166
v -0.058985 0.029340 -0.000470
v -0.068821 0.033785 0.012970
v -0.070051 0.032003 0.003453
v -0.086374 0.028124 0.011065
v -0.030664 -0.002178 0.010131
v -0.035443 -0.002178 0.013765
v -0.026714 0.006555 0.008708
v -0.035924 0.008011 0.015829
v -0.018327 0.019222 0.012042
v -0.033244 0.021250 0.023142
v -0.008006 0.027565 0.023087
v -0.024237 0.029185 0.035005
v -0.002770 0.028342 0.036631
v -0.013154 0.029919 0.043560
v 0.001359 0.019743 0.053928

vt 0.000000 0.333333
vt 1.000000 0.333333
vt 1.000000 0.000000
vt 0.000000 0.000000
vt 0.000000 0.666667
vt 1.000000 0.666667
vt 0.500000 1.000000
vt -0.250000 0.250000
vt 0.000000 0.250000
vt -0.250000 0.000000
vt 0.250000 0.250000
vt 0.250000 0.000000
vt 0.500000 0.250000
vt 0.500000 0.000000
vt 0.750000 0.250000
vt 0.750000 0.000000
vt -0.250000 0.500000
vt 0.000000 0.500000
vt 0.250000 0.500000
vt 0.500000 0.500000
vt 0.750000 0.500000
vt -0.250000 0.750000
vt 0.000000 0.750000
vt 0.250000 0.750000
vt 0.500000 0.750000
vt 0.750000 0.750000
vt -0.250000 1.000000
vt 0.000000 1.000000
vt 0.250000 1.000000
vt 0.750000 1.000000
vt 1.000000 1.000000
vt 0.000000 0.200000
vt 1.000000 0.200000
vt 0.000000 0.400000
vt 1.000000 0.400000
vt 0.000000 0.600000
vt 1.000000 0.600000
vt 0.000000 0.800000
vt 1.000000 0.800000
vt 0.333333 1.000000
vt 0.333333 0.000000
vt 0.666667 1.000000
vt 0.666667 0.000000
vt 0.200000 0.600000
vt 0.400000 0.600000
vt 0.200000 1.000000
vt 0.600000 0.600000
vt 0.400000 1.000000
vt 0.800000 0.600000
vt 0.600000 1.000000
vt 0.800000 1.000000

vn 0.956031 -0.090458 0.278966
vn 0.936571 -0.196131 0.290461
vn 0.963725 0.042897 0.263428
vn 0.962439 0.069492 0.262455
vn 0.590024 0.154384 0.792488
vn 0.577024 0.095212 0.811158
vn 0.623700 0.126704 0.771327
vn 0.641777 0.039464 0.765875
vn 0.431773 -0.024889 0.901639
vn 0.409581 -0.144611 0.900739
vn 0.386835 0.177281 0.904947
vn 0.321979 0.257467 0.911066
vn -0.755882 0.026768 0.654160
vn -0.731837 0.023324 0.681081
vn -0.742447 -0.053809 0.667740
vn -0.698465 -0.137251 0.702359
vn 0.000000 1.000000 0.000000
vn -0.426607 -0.070860 0.901657
vn -0.427060 -0.145511 0.892438
vn -0.423740 0.004192 0.905774
vn -0.609366 -0.209428 0.764730
vn -0.593167 -0.269332 0.758692
vn -0.581086 -0.058976 0.811703
vn -0.532144 0.031450 0.846069
vn -0.445620 0.065728 0.892806
vn -0.576067 -0.017295 0.817219
vn -0.311847 0.228147 0.922334
vn -0.319508 0.307871 0.896175
vn -0.997628 0.058735 -0.035902
vn -0.998532 0.033792 -0.042333
vn -0.044016 0.060927 0.997171
vn -0.039735 0.088577 0.995276
vn 0.998920 -0.015144 0.043935
vn 0.998888 0.010677 0.045925
vn 0.054275 -0.018680 -0.998351
vn 0.044760 -0.045861 -0.997945
vn -0.993750 0.110619 -0.014966
vn -0.058788 0.007657 0.998241
vn 0.997185 -0.067194 0.033258
vn 0.080007 0.034507 -0.996197
vn -0.985993 0.165362 0.021771
vn -0.087036 -0.043966 0.995234
vn 0.992676 -0.120500 0.008557
vn 0.120039 0.086962 -0.988953
vn -0.980209 0.193015 0.043983
vn -0.104716 -0.069968 0.992038
vn 0.989034 -0.147497 -0.007469
vn 0.143729 0.113346 -0.983105
vn 0.583579 0.551768 0.595808
vn 0.294465 0.495162 -0.817377
vn 0.324030 0.266088 -0.907856
vn 0.168167 0.861011 -0.479979
vn 0.001320 0.999061 -0.043307
vn -0.168571 0.894352 0.414390
vn -0.249005 0.733950 0.631913
vn -0.706964 0.378906 -0.597187
vn -0.777811 0.207084 -0.593403
vn -0.516151 0.661243 -0.544376
vn -0.293709 0.858658 -0.420049
vn -0.055121 0.966883 -0.249197
vn 0.063232 0.985364 -0.158301
vn -0.651286 0.455670 0.606787
vn -0.677076 0.256158 0.689892
vn -0.532164 0.746373 0.399662
vn -0.356935 0.915001 0.188073
vn -0.143760 0.989204 -0.028439
vn -0.035939 0.990432 -0.133243
vn 0.218633 -0.137554 0.966063
vn 0.205461 -0.104139 0.973109
vn 0.962033 0.200974 -0.184670
vn 0.964106 0.163175 -0.209460
vn -0.234947 0.180904 -0.955025
vn -0.212350 0.144973 -0.966380
vn -0.966261 -0.157895 0.203490
vn -0.968112 -0.123278 0.218087
vn 0.247910 -0.197362 0.948467
vn 0.955241 0.264318 -0.132859
vn -0.280858 0.242066 -0.928721
vn -0.960723 -0.219120 0.170288
vn 0.289555 -0.248898 0.924233
vn 0.946842 0.314326 -0.068484
vn -0.337243 0.291210 -0.895245
vn -0.954577 -0.271299 0.123207
vn 0.314637 -0.273700 0.908896
vn 0.940603 0.338109 -0.030799
vn -0.369568 0.314522 -0.874354
vn -0.950358 -0.296479 0.094441
vn -0.526329 0.257766 0.810268
vn -0.983999 -0.118464 -0.133089
vn -0.984960 -0.088326 -0.148501
vn -0.150329 0.213744 0.965254
vn -0.131507 0.178446 0.975122
vn 0.981431 0.151394 0.117784
vn 0.982670 0.120249 0.141065
vn 0.138956 -0.182373 -0.973361
vn 0.126983 -0.150184 -0.980469
vn -0.979811 -0.174658 -0.097285
vn -0.190974 0.274934 0.942306
vn 0.975853 0.207669 0.067704
vn 0.167028 -0.241076 -0.956025
vn -0.973158 -0.225409 -0.046405
vn -0.244631 0.325915 0.913201
vn 0.966572 0.256372 0.003443
vn 0.208730 -0.293416 -0.932920
vn -0.968166 -0.249811 -0.015799
vn -0.275992 0.350376 0.895022
vn 0.959543 0.279487 -0.034112
vn 0.234028 -0.318835 -0.918464
vn -0.562370 0.259246 -0.785195
vn 0.989138 0.099034 -0.108619
vn 0.988320 0.102635 -0.112649
vn -0.113062 0.185090 -0.976196
vn -0.109373 0.189690 -0.975733
vn -0.991603 -0.061988 0.113490
vn -0.991136 -0.064858 0.115942
vn 0.111745 -0.151739 0.982084
vn 0.108858 -0.158660 0.981314
vn 0.989927 0.095429 -0.104586
vn -0.116749 0.180483 -0.976625
vn -0.992056 -0.059117 0.111037
vn 0.114625 -0.144809 0.982798
vn -0.058085 0.982897 0.174757
vn 0.947891 0.277890 -0.155819
vn 0.972488 0.146563 -0.181072
vn 0.778255 0.616077 -0.121525
vn 0.433697 0.892408 -0.124563
vn -0.022281 0.989434 -0.143261
vn -0.290155 0.946731 -0.139681
vn -0.545183 0.324372 -0.773019
vn -0.594871 0.135921 -0.792246
vn -0.360191 0.712844 -0.601760
vn -0.088505 0.957148 -0.275742
vn 0.212677 0.968957 0.126059
vn 0.361452 0.866431 0.344456
vn 0.266754 -0.858951 -0.437088
vn -0.266754 0.858951 0.437088
vn 0.911007 -0.222288 0.347354
vn 0.464200 0.290752 -0.836649
vn -0.760490 -0.262375 -0.593982
vn -0.336278 -0.702664 0.627041
vn -0.254677 -0.954128 -0.157412
vn 0.254675 0.954129 0.157412
vn -0.637069 -0.160692 0.753871
vn 0.706516 -0.452651 0.544005
vn 0.536779 -0.215040 -0.815859
vn -0.791232 0.135267 -0.596368
vn -0.155890 0.838702 0.521802
vn -0.372073 0.880535 0.293631
vn -0.518660 0.749339 0.411682
vn -0.138159 0.984565 0.107443
vn -0.069348 0.996134 0.053930
vn 0.476347 0.834521 0.276889
vn 0.168966 0.899134 0.403742
vn 0.068023 0.984565 0.161259
vn 0.034144 0.996134 0.080944
vn 0.656588 0.753337 -0.037098
vn 0.470610 0.881965 -0.025742
vn 0.174800 0.984565 -0.008767
vn 0.087739 0.996134 -0.004401
vn -0.564477 0.744889 -0.355678
vn -0.403615 0.878942 -0.254080
vn -0.148216 0.984565 -0.093079
vn -0.074396 0.996134 -0.046720
vn 0.142643 0.745614 -0.650932
vn 0.101459 0.879201 -0.465523
vn 0.036773 0.984565 -0.171113
vn 0.018458 0.996134 -0.085888
vn 0.234195 -0.854802 0.463104
vn -0.234193 0.854802 -0.463105
vn -0.711150 -0.039532 0.701928
vn 0.613261 0.354624 0.705799
vn 0.799796 -0.276000 -0.533057
vn -0.543171 -0.620950 -0.565143
vn 0.041098 -0.965911 -0.255592
vn -0.041097 0.965911 0.255590
vn 0.957952 -0.126756 -0.257412
vn -0.195286 0.052031 -0.979365
vn -0.943985 -0.295645 0.146581
vn 0.211049 -0.412109 0.886355
vn -0.315782 0.554454 -0.769976
vn -0.829124 0.556393 0.054587
vn -0.183114 0.553516 0.812459
vn 0.703344 0.554005 0.445406
vn 0.643085 0.556593 -0.525971
vn -0.894016 -0.000000 0.448035
vn 0.578089 -0.000000 0.815973
vn 0.803909 -0.000000 0.594752
vn 0.822179 0.000000 -0.569229
vn -0.508811 0.000000 -0.860879
vn -0.762634 -0.000000 -0.646830
vn 0.294500 -0.000000 0.955652
vn -0.932383 -0.000000 -0.361473
vn 0.566405 0.099504 0.818098
vn 0.818098 0.099504 -0.566405
vn -0.566405 0.099504 -0.818098
vn -0.799070 0.110108 -0.591069
vn -0.947204 0.109065 -0.301512
vn -0.818098 0.099504 0.566405

usemtl Grass
f 1/4/2 2/3/2 4/2/1 3/1/1
f 3/1/1 4/2/1 6/6/3 5/5/3
f 5/5/3 6/6/3 7/7/4
f 8/4/6 9/3/6 11/2/5 10/1/5
f 10/1/5 11/2/5 13/6/7 12/5/7
f 12/5/7 13/6/7 14/7/8
f 15/4/10 16/3/10 18/2/9 17/1/9
f 17/1/9 18/2/9 20/6/11 19/5/11
f 19/5/11 20/6/11 21/7/12
f 171/4/14 172/3/14 174/2/13 173/1/13
f 173/1/13 174/2/13 176/6/15 175/5/15
f 175/5/15 176/6/15 177/7/16
f 178/4/17 179/3/17 181/2/17 180/1/17
f 180/1/19 181/2/19 183/6/18 182/5/18
f 182/5/18 183/6/18 184/7/20
f 185/4/22 186/3/22 188/2/21 187/1/21
f 187/1/21 188/2/21 190/6/23 189/5/23
f 189/5/23 190/6/23 191/7/24
f 192/4/26 193/3/26 195/2/25 194/1/25
f 194/1/25 195/2/25 197/6/27 196/5/27
f 196/5/27 197/6/27 198/7/28

usemtl Flowers_Grass
f 22/10/30 23/4/30 27/9/29 26/8/29
f 23/4/32 24/12/32 28/11/31 27/9/31
f 24/12/34 25/14/34 29/13/33 28/11/33
f 25/14/36 22/16/36 26/15/35 29/13/35
f 26/8/29 27/9/29 31/18/37 30/17/37
f 27/9/31 28/11/31 32/19/38 31/18/38
f 28/11/33 29/13/33 33/20/39 32/19/39
f 29/13/35 26/15/35 30/21/40 33/20/40
f 30/17/37 31/18/37 35/23/41 34/22/41
f 31/18/38 32/19/38 36/24/42 35/23/42
f 32/19/39 33/20/39 37/25/43 36/24/43
f 33/20/40 30/21/40 34/26/44 37/25/44
f 34/22/41 35/23/41 39/28/45 38/27/45
f 35/23/42 36/24/42 40/29/46 39/28/46
f 36/24/43 37/25/43 41/7/47 40/29/47
f 37/25/44 34/26/44 38/30/48 41/7/48
f 38/27/49 39/28/49 40/29/49 41/31/49
f 42/4/51 43/3/51 45/33/50 44/32/50
f 44/32/50 45/33/50 47/35/52 46/34/52
f 46/34/52 47/35/52 49/37/53 48/36/53
f 48/36/53 49/37/53 51/39/54 50/38/54
f 50/38/54 51/39/54 52/7/55
f 53/4/57 54/3/57 56/33/56 55/32/56
f 55/32/56 56/33/56 58/35/58 57/34/58
f 57/34/58 58/35/58 60/37/59 59/36/59
f 59/36/59 60/37/59 62/39/60 61/38/60
f 61/38/60 62/39/60 63/7/61
f 64/4/63 65/3/63 67/33/62 66/32/62
f 66/32/62 67/33/62 69/35/64 68/34/64
f 68/34/64 69/35/64 71/37/65 70/36/65
f 70/36/65 71/37/65 73/39/66 72/38/66
f 72/38/66 73/39/66 74/7/67
f 75/10/69 76/4/69 80/9/68 79/8/68
f 76/4/71 77/12/71 81/11/70 80/9/70
f 77/12/73 78/14/73 82/13/72 81/11/72
f 78/14/75 75/16/75 79/15/74 82/13/74
f 79/8/68 80/9/68 84/18/76 83/17/76
f 80/9/70 81/11/70 85/19/77 84/18/77
f 81/11/72 82/13/72 86/20/78 85/19/78
f 82/13/74 79/15/74 83/21/79 86/20/79
f 83/17/76 84/18/76 88/23/80 87/22/80
f 84/18/77 85/19/77 89/24/81 88/23/81
f 85/19/78 86/20/78 90/25/82 89/24/82
f 86/20/79 83/21/79 87/26/83 90/25/83
f 87/22/80 88/23/80 92/28/84 91/27/84
f 88/23/81 89/24/81 93/29/85 92/28/85
f 89/24/82 90/25/82 94/7/86 93/29/86
f 90/25/83 87/26/83 91/30/87 94/7/87
f 91/27/88 92/28/88 93/29/88 94/31/88
f 215/10/90 216/4/90 220/9/89 219/8/89
f 216/4/92 217/12/92 221/11/91 220/9/91
f 217/12/94 218/14/94 222/13/93 221/11/93
f 218/14/96 215/16/96 219/15/95 222/13/95
f 219/8/89 220/9/89 224/18/97 223/17/97
f 220/9/91 221/11/91 225/19/98 224/18/98
f 221/11/93 222/13/93 226/20/99 225/19/99
f 222/13/95 219/15/95 223/21/100 226/20/100
f 223/17/97 224/18/97 228/23/101 227/22/101
f 224/18/98 225/19/98 229/24/102 228/23/102
f 225/19/99 226/20/99 230/25/103 229/24/103
f 226/20/100 223/21/100 227/26/104 230/25/104
f 227/22/101 228/23/101 232/28/105 231/27/105
f 228/23/102 229/24/102 233/29/106 232/28/106
f 229/24/103 230/25/103 234/7/107 233/29/107
f 230/25/104 227/26/104 231/30/108 234/7/108
f 231/27/109 232/28/109 233/29/109 234/31/109
f 235/10/111 236/4/111 240/9/110 239/8/110
f 236/4/113 237/12/113 241/11/112 240/9/112
f 237/12/115 238/14/115 242/13/114 241/11/114
f 238/14/117 235/16/117 239/15/116 242/13/116
f 239/8/110 240/9/110 244/18/118 243/17/118
f 240/9/112 241/11/112 245/19/119 244/18/119
f 241/11/114 242/13/114 246/20/120 245/19/120
f 242/13/116 239/15/116 243/21/121 246/20/121
f 243/17/118 244/18/118 248/23/118 247/22/118
f 244/18/119 245/19/119 249/24/119 248/23/119
f 245/19/120 246/20/120 250/25/120 249/24/120
f 246/20/121 243/21/121 247/26/121 250/25/121
f 247/22/118 248/23/118 252/28/118 251/27/118
f 248/23/119 249/24/119 253/29/119 252/28/119
f 249/24/120 250/25/120 254/7/120 253/29/120
f 250/25/121 247/26/121 251/30/121 254/7/121
f 251/27/122 252/28/122 253/29/122 254/31/122
f 255/4/124 256/3/124 258/33/123 257/32/123
f 257/32/123 258/33/123 260/35/125 259/34/125
f 259/34/125 260/35/125 262/37/126 261/36/126
f 261/36/126 262/37/126 264/39/127 263/38/127
f 263/38/127 264/39/127 265/7/128
f 266/4/130 267/3/130 269/33/129 268/32/129
f 268/32/129 269/33/129 271/35/131 270/34/131
f 270/34/131 271/35/131 273/37/132 272/36/132
f 272/36/132 273/37/132 275/39/133 274/38/133
f 274/38/133 275/39/133 276/7/134

usemtl Flowers_Yellow
f 95/3/135 97/31/135 98/28/135 96/4/135
f 99/4/136 100/3/136 102/31/136 101/28/136
f 95/4/137 96/3/137 100/31/137 99/28/137
f 96/4/138 98/3/138 102/31/138 100/28/138
f 98/4/139 97/3/139 101/31/139 102/28/139
f 97/4/140 95/3/140 99/31/140 101/28/140
f 103/3/141 105/31/141 106/28/141 104/4/141
f 107/4/142 108/3/142 110/31/142 109/28/142
f 103/4/143 104/3/143 108/31/143 107/28/143
f 104/4/144 106/3/144 110/31/144 108/28/144
f 106/4/145 105/3/145 109/31/145 110/28/145
f 105/4/146 103/3/146 107/31/146 109/28/146
f 136/4/149 113/41/148 116/40/148 112/28/147
f 113/41/148 114/43/150 117/42/150 116/40/148
f 114/43/150 115/3/151 118/31/151 117/42/150
f 112/4/147 119/41/153 122/40/153 125/28/152
f 119/41/153 120/43/154 123/42/154 122/40/153
f 120/43/154 121/3/155 124/31/155 123/42/154
f 125/4/152 126/41/157 130/40/157 129/28/156
f 126/41/157 127/43/158 131/42/158 130/40/157
f 127/43/158 128/3/159 132/31/159 131/42/158
f 143/4/160 133/41/161 137/40/161 136/28/160
f 133/41/161 134/43/162 138/42/162 137/40/161
f 134/43/162 135/3/163 139/31/163 138/42/162
f 129/4/164 140/41/165 144/40/165 143/28/164
f 140/41/165 141/43/166 145/42/166 144/40/165
f 141/43/166 142/3/167 146/31/167 145/42/166
f 199/3/168 201/31/168 202/28/168 200/4/168
f 203/4/169 204/3/169 206/31/169 205/28/169
f 199/4/170 200/3/170 204/31/170 203/28/170
f 200/4/171 202/3/171 206/31/171 204/28/171
f 202/4/172 201/3/172 205/31/172 206/28/172
f 201/4/173 199/3/173 203/31/173 205/28/173
f 207/3/174 209/31/174 210/28/174 208/4/174
f 211/4/175 212/3/175 214/31/175 213/28/175
f 207/4/176 208/3/176 212/31/176 211/28/176
f 208/4/177 210/3/177 214/31/177 212/28/177
f 210/4/178 209/3/178 213/31/178 214/28/178
f 209/4/179 207/3/179 211/31/179 213/28/179

usemtl Flowers_White
f 111/28/180 112/36/180 125/44/180
f 111/46/181 125/44/181 129/45/181
f 111/48/182 129/45/182 143/47/182
f 111/50/183 143/47/183 136/49/183
f 111/51/184 136/49/184 112/37/184

usemtl Stones
f 155/4/185 156/3/185 157/31/185 158/28/185
f 148/4/186 150/3/187 154/31/187 152/28/186
f 150/4/188 149/3/188 153/31/188 154/28/188
f 149/4/189 147/3/190 151/31/190 153/28/189
f 148/3/186 152/31/186 157/31/191 156/3/191
f 165/31/17 168/28/17 169/28/17 170/31/17
f 151/28/190 147/4/190 155/4/192 158/28/192
f 152/3/17 154/31/17 160/31/17 159/3/17
f 154/31/17 153/28/17 161/28/17 160/31/17
f 153/28/17 151/4/17 162/4/17 161/28/17
f 151/28/17 158/28/17 163/28/17 162/28/17
f 158/28/17 157/31/17 164/31/17 163/28/17
f 157/31/17 152/31/17 159/31/17 164/31/17
f 159/3/193 160/31/193 166/31/193 165/3/193
f 160/31/194 161/28/194 167/28/194 166/31/194
f 161/28/195 162/4/196 168/4/196 167/28/195
f 162/28/196 163/28/197 169/28/197 168/28/196
f 163/28/198 164/31/198 170/31/198 169/28/198
f 164/31/193 159/31/193 165/31/193 170/31/193
f 166/31/17 167/28/17 168/4/17 165/31/17

usemtl default

