# WaveFront *.obj file (generated by Cheetah3D)

mtllib Mix23.mtl

g Mix_23
v 0.004663 -0.000000 0.023002
v 0.003421 -0.000000 0.025562
v 0.006267 0.004186 0.022405
v 0.004158 0.004862 0.027438
v 0.011862 0.012774 0.023313
v 0.008301 0.013082 0.031260
v 0.022060 0.016538 0.028259
v 0.017700 0.016803 0.036564
v 0.029181 0.013990 0.034054
v 0.026444 0.014077 0.039187
v 0.034180 0.003285 0.039926
v 0.003579 0.003442 0.027427
v -0.001582 0.004073 0.025025
v 0.002737 0.010669 0.031970
v -0.005344 0.011444 0.027920
v -0.000999 0.015751 0.039149
v -0.009722 0.016006 0.034807
v -0.006324 0.017218 0.044827
v -0.011587 0.016625 0.041984
v -0.013500 0.012654 0.052486
v 0.000765 -0.000000 0.024505
v 0.007469 0.030238 0.044714
v 0.005958 0.021668 0.038922
v 0.005892 0.021507 0.039958
v 0.006823 0.021383 0.040023
v 0.006878 0.021475 0.038987
v 0.004775 0.011829 0.035128
v 0.005010 0.011399 0.036997
v 0.006907 0.011290 0.036691
v 0.006662 0.011749 0.034822
v 0.005064 -0.000000 0.034190
v 0.005170 -0.000000 0.037032
v 0.008009 -0.000000 0.036479
v 0.007899 -0.000000 0.033614
v -0.029575 -0.000000 0.028271
v -0.021385 0.008674 0.029949
v -0.029919 0.009322 0.026850
v -0.020984 0.020172 0.035840
v -0.034926 0.020144 0.031368
v -0.025907 0.026570 0.048310
v -0.040766 0.025635 0.042997
v -0.033709 0.024050 0.058508
v -0.042603 0.023429 0.054605
v -0.043413 0.013357 0.068287
v -0.023883 -0.000000 0.030498
v -0.029176 -0.000000 0.025200
v -0.032438 0.003760 0.030452
v -0.031934 0.004956 0.024512
v -0.038922 0.010513 0.033540
v -0.037731 0.013279 0.024197
v -0.049300 0.015961 0.035280
v -0.047950 0.019032 0.025118
v -0.058707 0.018399 0.033935
v -0.057762 0.020041 0.027605
v -0.071887 0.018708 0.030029
v -0.033886 0.071782 0.018900
v -0.029584 0.046810 0.012351
v -0.031693 0.046385 0.012822
v -0.030605 0.046381 0.014604
v -0.028506 0.046715 0.014135
v -0.027411 0.023863 0.006055
v -0.031356 0.023822 0.007126
v -0.029407 0.023336 0.010807
v -0.025556 0.023092 0.009738
v -0.026873 -0.000000 0.001146
v -0.031795 -0.000000 0.003397
v -0.029919 -0.000000 0.008799
v -0.024712 -0.000000 0.006758
v -0.028553 0.040778 0.050479
v -0.023877 0.029986 0.035512
v -0.025074 0.029147 0.036745
v -0.023769 0.028597 0.037710
v -0.022580 0.029324 0.036421
v -0.020766 0.015798 0.022771
v -0.022395 0.013933 0.025268
v -0.019273 0.013305 0.026731
v -0.017660 0.015224 0.024242
v -0.018025 -0.000000 0.014152
v -0.021292 -0.000000 0.017733
v -0.016868 -0.000000 0.019873
v -0.013623 -0.000000 0.016150
v -0.014472 0.044618 0.019762
v -0.016533 0.035944 0.016181
v -0.016336 0.035422 0.016906
v -0.015712 0.035412 0.016583
v -0.015917 0.035934 0.015851
v -0.017732 0.026804 0.013391
v -0.016555 0.025916 0.014050
v -0.015082 0.025983 0.013602
v -0.016318 0.026814 0.012775
v -0.018517 0.017554 0.011375
v -0.017616 0.016982 0.012910
v -0.015485 0.016847 0.012311
v -0.016251 0.017144 0.010666
v -0.021346 0.009018 0.009426
v -0.019786 0.008045 0.012164
v -0.017237 0.007910 0.010223
v -0.018695 0.008444 0.007507
v -0.020072 -0.000000 0.008945
v -0.019324 -0.000000 0.010809
v -0.017785 -0.000000 0.009456
v -0.018526 -0.000000 0.007596

vt 0.000000 0.200000
vt 1.000000 0.200000
vt 1.000000 0.000000
vt 0.000000 0.000000
vt 0.000000 0.400000
vt 1.000000 0.400000
vt 0.000000 0.600000
vt 1.000000 0.600000
vt 0.000000 0.800000
vt 1.000000 0.800000
vt 0.500000 1.000000
vt 0.666667 0.666667
vt 0.333333 0.666667
vt 0.833333 0.333333
vt 0.166667 0.333333
vt 0.600000 0.800000
vt 0.400000 0.800000
vt 0.700000 0.600000
vt 0.300000 0.600000
vt 0.800000 0.400000
vt 0.200000 0.400000
vt 0.900000 0.200000
vt 0.100000 0.200000

vn -0.819701 0.416171 -0.393563
vn -0.868042 0.282364 -0.408379
vn -0.545056 0.788515 -0.284882
vn -0.007769 0.999551 -0.028936
vn 0.530501 0.805584 0.263824
vn 0.737772 0.555148 0.384061
vn 0.410685 0.448724 -0.793715
vn 0.399602 0.380982 -0.833769
vn 0.355162 0.708346 -0.610005
vn 0.160647 0.943352 -0.290310
vn -0.113722 0.989884 0.084839
vn -0.264604 0.916974 0.298570
vn -0.990388 0.136760 0.020713
vn -0.980331 0.194697 -0.032301
vn -0.033922 -0.381226 0.923859
vn -0.123383 -0.457470 0.880624
vn 0.999167 -0.039914 -0.008468
vn 0.994348 -0.096280 0.044750
vn 0.064117 0.459555 -0.885832
vn 0.169634 0.531142 -0.830128
vn -0.997012 0.028025 0.071977
vn 0.118912 -0.150390 0.981449
vn 0.996172 0.060754 -0.062857
vn -0.113835 0.231577 -0.966133
vn -0.997292 -0.021985 0.070177
vn 0.178558 0.002261 0.983927
vn 0.992446 0.104696 -0.063956
vn -0.181775 0.077469 -0.980284
vn 0.334142 0.162932 -0.928333
vn 0.341337 -0.142558 -0.929067
vn 0.212842 0.722082 -0.658252
vn -0.010044 0.991682 -0.128319
vn -0.217684 0.904642 0.366384
vn -0.297617 0.777169 0.554467
vn 0.809808 0.552998 0.195969
vn 0.842197 0.516971 0.153117
vn 0.640983 0.715423 0.278049
vn 0.339704 0.889717 0.304968
vn 0.068500 0.960176 0.270870
vn -0.049584 0.968528 0.243916
vn -0.254664 0.218777 -0.941957
vn -0.252409 0.204551 -0.945753
vn -0.855447 -0.161294 0.492133
vn -0.837636 -0.194515 0.510420
vn 0.242968 -0.139091 0.960011
vn 0.236219 -0.132288 0.962653
vn 0.854476 0.234306 -0.463651
vn 0.830260 0.270826 -0.487156
vn -0.302210 0.200046 -0.932014
vn -0.898996 -0.078310 0.430899
vn 0.285509 -0.122509 0.950514
vn 0.898425 0.145002 -0.414497
vn -0.346599 0.166503 -0.923118
vn -0.921776 -0.028440 0.386679
vn 0.320790 -0.098909 0.941972
vn 0.916854 0.092245 -0.388419
vn -0.816620 0.297537 -0.494574
vn -0.779731 0.366336 -0.507758
vn -0.556009 -0.637540 0.533289
vn -0.599348 -0.679313 0.423457
vn 0.812300 -0.212518 0.543143
vn 0.779442 -0.280850 0.559994
vn 0.554539 0.693437 -0.460034
vn 0.603666 0.724123 -0.333517
vn -0.821468 0.218414 -0.526770
vn -0.460719 -0.529132 0.712571
vn 0.820734 -0.134900 0.555155
vn 0.448376 0.580263 -0.679893
vn -0.791959 0.209269 -0.573591
vn -0.412361 -0.466609 0.782454
vn 0.799998 -0.126697 0.586474
vn 0.394288 0.501121 -0.770334
vn -0.874210 -0.020632 0.485110
vn -0.942571 0.091326 0.321279
vn 0.383858 -0.308911 0.870188
vn 0.427218 -0.345969 0.835338
vn 0.895358 0.084840 -0.437192
vn 0.956980 -0.029200 -0.288682
vn -0.412129 0.371656 -0.831878
vn -0.421128 0.429730 -0.798739
vn -0.754222 -0.086799 0.650857
vn 0.306756 -0.210766 0.928159
vn 0.797788 0.145113 -0.585216
vn -0.356831 0.263537 -0.896226
vn -0.791469 0.057268 0.608520
vn 0.365186 -0.193971 0.910502
vn 0.844398 0.011157 -0.535600
vn -0.346817 0.292006 -0.891319
vn -0.875034 0.009459 0.483969
vn 0.540843 -0.172239 0.823300
vn 0.892752 -0.037498 -0.448985
vn -0.512884 0.172029 -0.841044
vn -0.896765 -0.136591 0.420898
vn 0.621709 -0.106547 0.775967
vn 0.901187 -0.002870 -0.433421
vn -0.616865 -0.033327 -0.786363

usemtl Grass
f 1/4/2 2/3/2 4/2/1 3/1/1
f 3/1/1 4/2/1 6/6/3 5/5/3
f 5/5/3 6/6/3 8/8/4 7/7/4
f 7/7/4 8/8/4 10/10/5 9/9/5
f 9/9/5 10/10/5 11/11/6
f 2/4/8 21/3/8 13/2/7 12/1/7
f 12/1/7 13/2/7 15/6/9 14/5/9
f 14/5/9 15/6/9 17/8/10 16/7/10
f 16/7/10 17/8/10 19/10/11 18/9/11
f 18/9/11 19/10/11 20/11/12
f 22/11/14 23/13/13 24/12/13
f 22/11/16 24/13/15 25/12/15
f 22/11/18 25/13/17 26/12/17
f 22/11/20 26/13/19 23/12/19
f 23/13/13 27/15/21 28/14/21 24/12/13
f 24/13/15 28/15/22 29/14/22 25/12/15
f 25/13/17 29/15/23 30/14/23 26/12/17
f 26/13/19 30/15/24 27/14/24 23/12/19
f 27/15/21 31/4/25 32/3/25 28/14/21
f 28/15/22 32/4/26 33/3/26 29/14/22
f 29/15/23 33/4/27 34/3/27 30/14/23
f 30/15/24 34/4/28 31/3/28 27/14/24
f 45/4/30 35/3/30 37/2/29 36/1/29
f 36/1/29 37/2/29 39/6/31 38/5/31
f 38/5/31 39/6/31 41/8/32 40/7/32
f 40/7/32 41/8/32 43/10/33 42/9/33
f 42/9/33 43/10/33 44/11/34
f 35/4/36 46/3/36 48/2/35 47/1/35
f 47/1/35 48/2/35 50/6/37 49/5/37
f 49/5/37 50/6/37 52/8/38 51/7/38
f 51/7/38 52/8/38 54/10/39 53/9/39
f 53/9/39 54/10/39 55/11/40
f 56/11/42 57/13/41 58/12/41
f 56/11/44 58/13/43 59/12/43
f 56/11/46 59/13/45 60/12/45
f 56/11/48 60/13/47 57/12/47
f 57/13/41 61/15/49 62/14/49 58/12/41
f 58/13/43 62/15/50 63/14/50 59/12/43
f 59/13/45 63/15/51 64/14/51 60/12/45
f 60/13/47 64/15/52 61/14/52 57/12/47
f 61/15/49 65/4/53 66/3/53 62/14/49
f 62/15/50 66/4/54 67/3/54 63/14/50
f 63/15/51 67/4/55 68/3/55 64/14/51
f 64/15/52 68/4/56 65/3/56 61/14/52
f 69/11/58 70/13/57 71/12/57
f 69/11/60 71/13/59 72/12/59
f 69/11/62 72/13/61 73/12/61
f 69/11/64 73/13/63 70/12/63
f 70/13/57 74/15/65 75/14/65 71/12/57
f 71/13/59 75/15/66 76/14/66 72/12/59
f 72/13/61 76/15/67 77/14/67 73/12/61
f 73/13/63 77/15/68 74/14/68 70/12/63
f 74/15/65 78/4/69 79/3/69 75/14/65
f 75/15/66 79/4/70 80/3/70 76/14/66
f 76/15/67 80/4/71 81/3/71 77/14/67
f 77/15/68 81/4/72 78/3/72 74/14/68
f 82/11/74 83/17/73 84/16/73
f 82/11/76 84/17/75 85/16/75
f 82/11/78 85/17/77 86/16/77
f 82/11/80 86/17/79 83/16/79
f 83/17/73 87/19/81 88/18/81 84/16/73
f 84/17/75 88/19/82 89/18/82 85/16/75
f 85/17/77 89/19/83 90/18/83 86/16/77
f 86/17/79 90/19/84 87/18/84 83/16/79
f 87/19/81 91/21/85 92/20/85 88/18/81
f 88/19/82 92/21/86 93/20/86 89/18/82
f 89/19/83 93/21/87 94/20/87 90/18/83
f 90/19/84 94/21/88 91/20/88 87/18/84
f 91/21/85 95/23/89 96/22/89 92/20/85
f 92/21/86 96/23/90 97/22/90 93/20/86
f 93/21/87 97/23/91 98/22/91 94/20/87
f 94/21/88 98/23/92 95/22/92 91/20/88
f 95/23/89 99/4/93 100/3/93 96/22/89
f 96/23/90 100/4/94 101/3/94 97/22/90
f 97/23/91 101/4/95 102/3/95 98/22/91
f 98/23/92 102/4/96 99/3/96 95/22/92

usemtl default

