# WaveFront *.obj file (generated by Cheetah3D)

mtllib Mix4.mtl

g Mix_4
v 0.061518 0.000000 -0.036394
v 0.024971 0.000000 -0.055038
v 0.027289 -0.000000 0.008428
v -0.000476 0.000000 -0.030268
v 0.061518 0.011067 -0.036394
v 0.024971 0.011072 -0.055038
v 0.027289 0.012422 0.008428
v -0.000476 0.012151 -0.030268
v 0.043941 0.025115 -0.031636
v 0.024971 0.025115 -0.055038
v 0.018786 0.025115 -0.003716
v -0.000476 0.025115 -0.030268
v 0.042315 -0.000000 0.013523
v 0.065325 0.000000 -0.022818
v 0.065325 0.011067 -0.022818
v 0.042315 0.012422 0.013523
v 0.030003 -0.000000 0.018151
v 0.039291 -0.000000 0.019790
v 0.031374 0.012041 0.018534
v 0.038070 0.011803 0.020022
v 0.031535 0.027683 0.018204
v 0.035744 0.027506 0.020237
v 0.034301 0.043407 0.018973
v 0.036960 -0.000000 0.017960
v 0.043603 -0.000000 0.015917
v 0.040439 0.008849 0.017723
v 0.044534 0.007286 0.015607
v 0.043650 0.019945 0.017480
v 0.046351 0.018669 0.015962
v 0.049508 0.031074 0.018112
v 0.025289 -0.000000 0.017029
v 0.032595 -0.000000 0.017132
v 0.025122 0.008398 0.016627
v 0.030147 0.008573 0.016768
v 0.022348 0.019853 0.015859
v 0.025397 0.020599 0.017091
v 0.019469 0.031782 0.016434
v 0.027333 -0.000000 0.019925
v 0.032499 -0.000000 0.019297
v 0.027491 0.005525 0.020112
v 0.031278 0.006244 0.019590
v 0.023285 0.013076 0.022310
v 0.025079 0.014828 0.022363
v 0.016750 0.020494 0.024096
v -0.017554 0.007216 0.034542
v -0.020237 -0.000000 0.040335
v -0.004690 0.003798 0.036835
v 0.002981 0.005769 0.036588
v 0.007659 0.006432 0.027438
v -0.014811 -0.000000 0.028703
v -0.009192 0.003798 0.024464
v -0.003157 0.005769 0.019722
v 0.006308 0.006432 0.023725
v -0.015119 0.003798 0.021599
v -0.015366 0.005769 0.013928
v -0.024516 0.006432 0.009250
v -0.027490 0.003798 0.026101
v -0.032232 0.005769 0.020066
v -0.028229 0.006432 0.010601
v -0.023305 -0.000000 0.031795
v -0.030377 0.003798 0.032174
v -0.038048 0.005769 0.032421
v -0.042725 0.006432 0.041571
v -0.025874 0.003798 0.044545
v -0.031909 0.005769 0.049287
v -0.041374 0.006432 0.045284
v -0.019849 0.003798 0.047422
v -0.019602 0.005769 0.055093
v -0.010452 0.006432 0.059771
v -0.011742 -0.000000 0.037243
v -0.007478 0.003798 0.042919
v -0.002736 0.005769 0.048954
v -0.006739 0.006432 0.058419
v -0.050659 0.032184 0.047555
v -0.035296 0.036902 0.038950
v -0.035759 0.035371 0.038920
v -0.034675 0.035256 0.039957
v -0.034180 0.036782 0.039973
v -0.020785 0.031913 0.028793
v -0.022030 0.029587 0.029172
v -0.020345 0.030234 0.031021
v -0.019073 0.032175 0.030381
v -0.012587 0.016936 0.018213
v -0.013937 0.015838 0.020570
v -0.011951 0.015958 0.023280
v -0.010426 0.017208 0.020959
v -0.009607 -0.000000 0.014005
v -0.013536 -0.000000 0.018002
v -0.010561 -0.000000 0.022609
v -0.006609 -0.000000 0.018625

vt 0.117022 0.858050
vt 0.882978 0.858050
vt 0.882978 0.141949
vt 0.117022 0.141949
vt 0.000000 0.648694
vt 1.000000 0.648694
vt 1.000000 0.000000
vt 0.000000 0.000000
vt 0.882978 0.934034
vt 0.117022 0.934034
vt 0.858051 0.962744
vt 0.141949 0.962744
vt 0.000000 0.333333
vt 1.000000 0.333333
vt 0.000000 0.666667
vt 1.000000 0.666667
vt 0.500000 1.000000
vt 0.625000 0.750000
vt 0.375000 0.750000
vt 0.750000 0.500000
vt 0.250000 0.500000
vt 0.875000 0.250000
vt 0.125000 0.250000
vt 0.000000 0.500000
vt 0.000000 1.000000
vt 0.500000 0.500000
vt 0.250000 1.000000
vt 1.000000 0.500000
vt 0.750000 1.000000
vt 0.333333 1.000000
vt 0.333333 0.000000
vt 0.666667 1.000000
vt 0.666667 0.000000
vt 1.000000 1.000000

vn 0.000000 1.000000 0.000000
vn 0.511952 0.235579 -0.826080
vn 0.454409 0.000000 -0.890793
vn -0.697513 0.000000 -0.716573
vn -0.811870 0.003935 0.583825
vn -0.676923 0.002740 0.736049
vn -0.595305 -0.000000 0.803500
vn -0.812488 -0.000000 0.582978
vn 0.844878 -0.000000 0.534960
vn 0.537244 0.456317 -0.709326
vn 0.712467 0.166339 -0.681705
vn -0.811238 0.007871 0.584663
vn 0.571875 0.683168 0.454138
vn 0.962859 0.000000 -0.270004
vn 0.811445 0.246834 -0.529745
vn 0.019479 0.999617 -0.019648
vn -0.321094 -0.000000 0.947047
vn -0.250509 -0.020981 0.967887
vn -0.192298 -0.024121 0.981040
vn -0.371716 0.007254 0.928318
vn -0.433660 0.032236 0.900500
vn 0.394448 -0.083339 0.915131
vn 0.352231 -0.064553 0.933684
vn 0.409850 -0.177145 0.894786
vn 0.381420 -0.251252 0.889602
vn -0.092335 0.004106 0.995720
vn -0.020352 0.041933 0.998913
vn -0.255513 -0.081332 0.963378
vn -0.344459 -0.128005 0.930034
vn 0.148222 -0.110293 0.982785
vn 0.129570 -0.028755 0.991153
vn 0.137390 -0.166245 0.976466
vn 0.108745 -0.141189 0.983992
vn -0.524650 0.165880 -0.835000
vn -0.521323 0.173811 -0.835471
vn -0.030789 -0.997764 0.059319
vn 0.090915 -0.974958 -0.202957
vn 0.477170 -0.129347 0.869240
vn 0.448253 -0.154869 0.880389
vn 0.009156 0.999727 0.021484
vn -0.142990 0.952969 0.267216
vn -0.642169 0.093361 -0.760857
vn -0.360474 -0.818211 0.447872
vn 0.619371 -0.046133 0.783742
vn 0.354985 0.843788 -0.402502
vn -0.757442 0.038945 -0.651740
vn -0.716479 -0.388698 0.579286
vn 0.734374 0.034954 0.677845
vn 0.672042 0.473898 -0.569017
vn -0.772470 0.051191 -0.632984
vn -0.822464 -0.103281 0.559363
vn 0.748008 0.057526 0.661192
vn 0.785540 0.263635 -0.559843
vn -0.799332 0.527796 0.287228
vn 0.289741 0.531362 0.796056
vn 0.795756 0.533863 -0.285942
vn -0.289335 0.533251 -0.794940
vn -0.156741 0.929534 0.333763
vn -0.355900 0.925564 0.129097
vn -0.334694 0.929425 -0.155397
vn -0.164464 0.984565 0.059860
vn -0.082552 0.996134 0.030046
vn 0.334585 0.929400 0.155785
vn 0.129153 0.925962 0.354843
vn 0.059860 0.984565 0.164464
vn 0.030046 0.996134 0.082552
vn 0.156602 0.929713 -0.333330
vn 0.355675 0.925662 -0.129016
vn 0.164464 0.984565 -0.059860
vn 0.082552 0.996134 -0.030046
vn -0.129043 0.926093 -0.354542
vn -0.059860 0.984565 -0.164464
vn -0.030046 0.996134 -0.082552

usemtl Stones
f 9/4/1 10/3/1 12/2/1 11/1/1
f 1/8/3 2/7/3 6/6/2 5/5/2
f 2/8/4 4/7/4 8/6/4 6/5/4
f 4/8/8 3/7/7 7/6/6 8/5/5
f 13/8/9 14/7/9 15/6/9 16/5/9
f 9/10/10 5/5/11 6/6/2 10/9/10
f 10/12/4 6/5/4 8/6/4 12/11/4
f 12/10/12 8/5/5 7/6/6 11/9/12
f 11/12/13 7/5/13 5/6/13 9/11/13
f 1/7/14 5/6/15 15/6/14 14/7/14
f 5/6/16 7/5/16 16/5/16 15/6/16
f 7/5/6 3/8/7 13/8/17 16/5/17

usemtl Grass
f 17/8/19 18/7/19 20/14/18 19/13/18
f 19/13/18 20/14/18 22/16/20 21/15/20
f 21/15/20 22/16/20 23/17/21
f 24/8/23 25/7/23 27/14/22 26/13/22
f 26/13/22 27/14/22 29/16/24 28/15/24
f 28/15/24 29/16/24 30/17/25
f 31/8/27 32/7/27 34/14/26 33/13/26
f 33/13/26 34/14/26 36/16/28 35/15/28
f 35/15/28 36/16/28 37/17/29
f 38/8/31 39/7/31 41/14/30 40/13/30
f 40/13/30 41/14/30 43/16/32 42/15/32
f 42/15/32 43/16/32 44/17/33
f 74/17/35 75/19/34 76/18/34
f 74/17/37 76/19/36 77/18/36
f 74/17/39 77/19/38 78/18/38
f 74/17/41 78/19/40 75/18/40
f 75/19/34 79/21/42 80/20/42 76/18/34
f 76/19/36 80/21/43 81/20/43 77/18/36
f 77/19/38 81/21/44 82/20/44 78/18/38
f 78/19/40 82/21/45 79/20/45 75/18/40
f 79/21/42 83/23/46 84/22/46 80/20/42
f 80/21/43 84/23/47 85/22/47 81/20/43
f 81/21/44 85/23/48 86/22/48 82/20/44
f 82/21/45 86/23/49 83/22/49 79/20/45
f 83/23/46 87/8/50 88/7/50 84/22/46
f 84/23/47 88/8/51 89/7/51 85/22/47
f 85/23/48 89/8/52 90/7/52 86/22/48
f 86/23/49 90/8/53 87/7/53 83/22/49

usemtl Flowers_White
f 45/25/54 60/24/54 46/21/54
f 45/27/55 46/21/55 70/26/55
f 45/17/56 70/26/56 50/20/56
f 45/29/57 50/20/57 60/28/57

usemtl Flowers_Yellow
f 70/8/60 47/31/59 51/30/59 50/25/58
f 47/31/59 48/33/61 52/32/61 51/30/59
f 48/33/61 49/7/62 53/34/62 52/32/61
f 50/8/58 54/31/64 57/30/64 60/25/63
f 54/31/64 55/33/65 58/32/65 57/30/64
f 55/33/65 56/7/66 59/34/66 58/32/65
f 60/8/63 61/31/68 64/30/68 46/25/67
f 61/31/68 62/33/69 65/32/69 64/30/68
f 62/33/69 63/7/70 66/34/70 65/32/69
f 46/8/67 67/31/71 71/30/71 70/25/60
f 67/31/71 68/33/72 72/32/72 71/30/71
f 68/33/72 69/7/73 73/34/73 72/32/72

usemtl default

