# WaveFront *.obj file (generated by Cheetah3D)

mtllib TreeFir1.mtl

g Tree_Fir_1
v 0.003815 0.000000 -0.003915
v 0.000313 0.000000 -0.007811
v -0.003348 0.000000 -0.005998
v -0.006025 0.000000 -0.000696
v -0.004057 -0.000000 0.003474
v 0.000085 -0.000000 0.005264
v 0.005723 -0.000000 0.004322
v 0.007949 0.000000 -0.002645
v 0.003801 0.032507 -0.003801
v 0.000307 0.033138 -0.005452
v -0.003534 0.033465 -0.004825
v -0.005613 0.033594 -0.002175
v -0.004483 0.033814 0.000983
v -0.000766 0.033428 0.002499
v 0.003254 0.032644 0.001859
v 0.005174 0.032520 -0.000772
v 0.001554 0.067412 -0.005546
v -0.001126 0.067787 -0.006694
v -0.003844 0.068316 -0.005746
v -0.005367 0.068256 -0.003304
v -0.004437 0.067973 -0.000749
v -0.001508 0.067604 0.000550
v 0.001503 0.067374 -0.000201
v 0.002731 0.067296 -0.002837
v -0.001194 0.107945 -0.003402
v -0.003379 0.108422 -0.004201
v -0.005653 0.108861 -0.003710
v -0.006839 0.109035 -0.002214
v -0.006061 0.108984 -0.000566
v -0.003682 0.108518 0.000228
v -0.001217 0.108030 -0.000232
v -0.000223 0.107865 -0.001757
v -0.004011 0.197307 -0.002856
v -0.003202 0.107845 -0.016532
v -0.015289 0.108005 -0.011357
v -0.018307 0.108102 0.001600
v -0.010225 0.107710 0.011777
v 0.002864 0.107584 0.012618
v 0.011134 0.109120 0.002513
v 0.008308 0.108325 -0.010341
v -0.003127 0.165090 -0.002167
v -0.010821 0.107565 -0.007388
v -0.003494 0.108010 -0.010388
v 0.003162 0.108086 -0.006587
v 0.005080 0.108345 0.000932
v 0.000255 0.108135 0.006895
v -0.007502 0.107821 0.006186
v -0.012370 0.107429 0.000264
v -0.029303 0.070799 -0.030975
v -0.003068 0.071496 -0.040871
v -0.003995 0.070892 -0.027664
v -0.019296 0.070676 -0.021700
v 0.003340 0.075798 -0.046712
v 0.031208 0.076048 -0.031047
v 0.018585 0.076073 -0.021874
v 0.002094 0.074979 -0.031615
v 0.034693 0.075232 -0.021505
v 0.039016 0.074415 0.007142
v 0.026465 0.074666 0.003468
v 0.023886 0.074421 -0.013484
v 0.038836 0.073063 0.014025
v 0.016467 0.072131 0.038240
v 0.011335 0.072840 0.024501
v 0.023825 0.073107 0.009813
v 0.008119 0.067314 0.037873
v -0.018939 0.065655 0.035676
v -0.012344 0.065866 0.024744
v 0.003688 0.066536 0.026073
v -0.024901 0.069879 0.036767
v -0.044803 0.070106 0.007108
v -0.028802 0.071173 0.004524
v -0.016123 0.071252 0.022043
v -0.050295 0.072489 -0.001124
v -0.041587 0.074264 -0.029681
v -0.031248 0.074026 -0.020340
v -0.036527 0.073416 -0.003398
v -0.026549 0.065551 -0.033743
v -0.005528 0.066127 -0.041372
v -0.006363 0.065582 -0.033192
v -0.020557 0.065734 -0.027964
v 0.006469 0.071215 -0.047471
v 0.030168 0.071844 -0.034197
v 0.021191 0.070505 -0.027582
v 0.006326 0.070044 -0.037108
v 0.037428 0.069912 -0.018463
v 0.040861 0.069609 0.003908
v 0.032989 0.069468 0.001434
v 0.030117 0.070079 -0.013876
v 0.038139 0.067799 0.017443
v 0.019752 0.067346 0.037274
v 0.016251 0.067355 0.027890
v 0.028260 0.067137 0.014221
v 0.004912 0.061009 0.039090
v -0.015945 0.059325 0.037400
v -0.012121 0.059593 0.030870
v 0.002096 0.060714 0.032143
v -0.027711 0.064192 0.035522
v -0.044954 0.064355 0.009931
v -0.032773 0.065876 0.008014
v -0.021480 0.065360 0.024517
v -0.050964 0.067512 -0.005773
v -0.044575 0.068960 -0.028458
v -0.038036 0.069019 -0.021840
v -0.042084 0.067955 -0.006803
v 0.011524 0.167377 -0.000898
v 0.006329 0.167528 -0.013621
v -0.007217 0.167640 -0.015682
v -0.016907 0.167268 -0.006752
v -0.017183 0.167154 0.006471
v -0.007263 0.168719 0.014004
v 0.005715 0.167885 0.010209
v -0.003177 0.232597 -0.000686
v 0.002471 0.167098 -0.008326
v 0.005313 0.167551 -0.001679
v 0.002168 0.167640 0.005804
v -0.005420 0.167915 0.007961
v -0.011610 0.167704 0.003135
v -0.011735 0.167378 -0.004692
v -0.004991 0.166970 -0.009645
v 0.015158 0.134769 -0.021927
v 0.024459 0.134304 -0.007145
v 0.016310 0.134965 -0.006144
v 0.010969 0.133871 -0.014868
v 0.030426 0.136710 -0.000670
v 0.022690 0.136898 0.020065
v 0.015164 0.136528 0.012923
v 0.020036 0.136737 0.000174
v 0.018756 0.133910 0.029894
v -0.000595 0.132969 0.036798
v 0.000055 0.133583 0.027375
v 0.011220 0.133684 0.022835
v -0.010720 0.134533 0.033305
v -0.030185 0.134741 0.021468
v -0.021247 0.134976 0.016389
v -0.010084 0.135087 0.022663
v -0.028158 0.134730 0.010913
v -0.030587 0.134731 -0.007424
v -0.022319 0.134896 -0.003922
v -0.020872 0.135063 0.006939
v -0.032488 0.133221 -0.014171
v -0.016405 0.134077 -0.030048
v -0.013179 0.133767 -0.020427
v -0.022361 0.133489 -0.010194
v -0.011278 0.133568 -0.031936
v 0.014409 0.133432 -0.028966
v 0.007894 0.134126 -0.018781
v -0.007164 0.133370 -0.020113
v 0.016023 0.130354 -0.018700
v 0.021498 0.130216 -0.009559
v 0.017867 0.130370 -0.008724
v 0.013930 0.130126 -0.015767
v 0.028577 0.132687 0.001223
v 0.022525 0.133164 0.016521
v 0.018404 0.132397 0.012501
v 0.022631 0.132431 0.001869
v 0.015717 0.129950 0.029315
v 0.002594 0.129330 0.034568
v 0.002842 0.129281 0.029592
v 0.011908 0.129248 0.025868
v -0.012284 0.130259 0.031199
v -0.026605 0.130461 0.022737
v -0.021429 0.130762 0.019612
v -0.012300 0.130652 0.025294
v -0.027065 0.130834 0.008413
v -0.028931 0.130301 -0.003663
v -0.025064 0.130741 -0.002218
v -0.023717 0.130631 0.006292
v -0.029041 0.129121 -0.014936
v -0.017560 0.129737 -0.026448
v -0.016056 0.128958 -0.020741
v -0.023299 0.129058 -0.013000
v -0.008950 0.129076 -0.030341
v 0.011106 0.129595 -0.028597
v 0.006994 0.129565 -0.021820
v -0.005687 0.128722 -0.022908
v -0.003765 0.107914 0.001709
v -0.002507 0.167312 -0.004275

vt 0.750000 0.250000
vt 0.875000 0.250000
vt 0.875000 0.000000
vt 0.750000 0.000000
vt -0.125000 0.250000
vt 0.000000 0.250000
vt 0.000000 0.000000
vt -0.125000 0.000000
vt 0.125000 0.250000
vt 0.125000 0.000000
vt 0.250000 0.250000
vt 0.250000 0.000000
vt 0.375000 0.250000
vt 0.375000 0.000000
vt 0.500000 0.250000
vt 0.500000 0.000000
vt 0.625000 0.250000
vt 0.625000 0.000000
vt 0.750000 0.500000
vt 0.875000 0.500000
vt -0.125000 0.500000
vt 0.000000 0.500000
vt 0.125000 0.500000
vt 0.250000 0.500000
vt 0.375000 0.500000
vt 0.500000 0.500000
vt 0.625000 0.500000
vt 0.750000 0.750000
vt 0.875000 0.750000
vt -0.125000 0.750000
vt 0.000000 0.750000
vt 0.125000 0.750000
vt 0.250000 0.750000
vt 0.375000 0.750000
vt 0.500000 0.750000
vt 0.625000 0.750000
vt 0.518306 1.000000
vt 0.187500 1.000000
vt 0.892857 0.000000
vt 0.739885 0.000000
vt 0.406274 0.000000
vt 0.410695 0.000000
vt 0.526894 1.000000
vt 0.178571 1.000000
vt 0.035714 0.000000
vt -0.107143 0.000000
vt 0.178571 0.000000
vt 0.321429 0.000000
vt 0.464286 0.000000
vt 0.607143 0.000000
vt 0.418888 0.000000
vt 0.148855 0.000000
vt 0.143241 0.000000
vt 0.627870 0.000000

vn 0.663475 0.026407 -0.747732
vn 0.520717 0.006153 -0.853707
vn 0.622661 0.029648 -0.781930
vn 0.618631 0.040034 -0.784661
vn -0.047303 -0.001442 -0.998880
vn -0.593222 -0.001033 -0.805038
vn -0.622560 0.026756 -0.782115
vn -0.306807 0.049517 -0.950483
vn -0.696532 0.011354 -0.717436
vn -0.837974 -0.008616 -0.545642
vn -0.858273 0.000555 -0.513194
vn -0.931104 0.020399 0.364184
vn -0.714636 0.041068 0.698290
vn -0.705139 0.047209 0.707496
vn -0.921055 0.022704 0.388771
vn -0.603172 0.047496 0.796196
vn -0.104134 0.068045 0.992233
vn -0.112639 0.078510 0.990529
vn 0.185245 0.075173 0.979813
vn 0.167895 0.086142 0.982034
vn 0.888144 0.079747 0.452593
vn 0.915659 0.077262 0.394461
vn 0.787474 0.046243 -0.614611
vn 0.614520 0.050414 -0.787289
vn 0.696151 0.047741 -0.716306
vn 0.075416 0.016606 -0.997014
vn 0.133920 0.007007 -0.990967
vn -0.572377 -0.006718 -0.819963
vn -0.478355 -0.001553 -0.878165
vn -0.820186 -0.014616 -0.571911
vn -0.934203 -0.011409 0.356559
vn -0.377113 0.015113 0.926044
vn -0.087257 0.029236 0.995757
vn 0.210310 0.040753 0.976785
vn 0.869833 0.068766 0.488531
vn 0.904708 0.059855 -0.421806
vn 0.662248 0.054213 -0.747321
vn 0.065642 0.038398 -0.997104
vn -0.554320 0.016641 -0.832138
vn -0.803757 0.004539 -0.594941
vn -0.916124 -0.004423 0.400870
vn -0.565687 0.017288 0.824439
vn -0.070596 0.017786 0.997346
vn 0.446114 0.033736 0.894340
vn 0.861328 0.048937 0.505687
vn 0.879299 0.055368 -0.473041
vn 0.381195 0.022978 -0.924209
vn -0.246040 0.019282 -0.969068
vn -0.526337 0.017978 -0.850086
vn -0.903443 0.032047 0.427509
vn -0.785850 -0.008701 0.618356
vn -0.062400 0.034408 0.997458
vn -0.339969 0.008169 0.940401
vn 0.203965 0.026047 0.978632
vn 0.838952 0.042201 0.542566
vn 0.697950 0.041427 0.714948
vn 0.641151 0.024908 -0.767010
vn 0.046504 -0.998918 -0.000867
vn 0.055345 -0.998453 0.005357
vn 0.047330 -0.998841 0.008745
vn 0.045557 -0.998942 0.006203
vn -0.380950 0.225522 -0.896670
vn -0.353727 0.382952 -0.853361
vn -0.945724 0.237244 -0.222086
vn -0.861262 0.464430 -0.206233
vn -0.755363 0.241481 0.609191
vn -0.541802 0.470645 0.696379
vn -0.725992 0.407016 0.554322
vn -0.059854 0.242701 0.968253
vn -0.072832 0.382239 0.921189
vn 0.733037 0.239989 0.636445
vn 0.664601 0.436172 0.606679
vn 0.949040 0.223205 -0.222491
vn 0.881133 0.436474 -0.181919
vn 0.455526 0.216116 -0.863591
vn 0.416244 0.460910 -0.783775
vn 0.123262 -0.944342 0.304999
vn 0.002284 -0.999640 -0.026727
vn 0.087041 -0.991194 -0.099794
vn -0.310630 -0.949889 0.034920
vn -0.004892 -0.999714 -0.023430
vn 0.029847 -0.999353 0.020083
vn 0.097796 -0.923414 -0.371137
vn 0.079054 -0.996839 0.007897
vn 0.353747 -0.898122 -0.261228
vn 0.090661 -0.992864 -0.077475
vn 0.347499 -0.936628 0.044423
vn 0.051466 -0.997310 -0.052187
vn -0.332501 0.403104 -0.852614
vn -0.126488 0.518168 -0.845874
vn -0.519610 0.518106 -0.679391
vn 0.968419 -0.242610 0.057485
vn 0.997281 -0.040029 0.061870
vn 0.295673 -0.601889 0.741827
vn 0.347181 -0.403460 0.846572
vn -0.630449 -0.376366 0.678883
vn -0.672095 -0.129838 0.728993
vn 0.393584 0.567685 -0.723066
vn 0.574561 0.554758 -0.601766
vn 0.177397 0.516949 -0.837433
vn 0.568973 -0.321048 0.757098
vn 0.586095 -0.100720 0.803958
vn -0.355583 -0.670550 0.651094
vn -0.403233 -0.543533 0.736189
vn -0.661144 -0.575090 0.481830
vn -0.929510 -0.358922 -0.084774
vn -0.989308 -0.124831 -0.075408
vn 0.842061 0.523193 -0.131158
vn 0.839748 0.538183 0.071988
vn 0.749133 0.553054 -0.364597
vn -0.260778 -0.359323 0.896037
vn -0.268217 -0.092763 0.958882
vn -0.721469 -0.680307 0.129091
vn -0.805343 -0.551695 -0.216922
vn -0.522677 -0.403162 -0.751179
vn -0.574864 -0.190377 -0.795794
vn 0.634752 0.479872 0.605651
vn 0.443630 0.498677 0.744657
vn 0.751049 0.537720 0.383123
vn -0.880853 -0.341194 0.328154
vn -0.926590 -0.102122 0.361942
vn -0.596423 -0.617236 -0.513127
vn -0.661414 -0.492197 -0.565928
vn 0.269483 -0.302634 -0.914216
vn 0.267068 -0.100165 -0.958458
vn -0.090433 0.374825 0.922674
vn -0.429970 0.425618 0.796225
vn 0.152549 0.494023 0.855962
vn -0.822519 -0.298480 -0.484120
vn -0.865042 -0.108015 -0.489934
vn 0.100012 -0.571318 -0.814613
vn 0.094679 -0.411088 -0.906666
vn 0.447059 -0.438110 -0.779870
vn 0.890502 -0.306555 -0.336201
vn 0.923474 -0.102630 -0.369679
vn -0.743820 0.425110 0.515764
vn -0.780430 0.530669 0.330635
vn -0.140189 -0.253809 -0.957041
vn -0.175335 -0.028081 -0.984108
vn 0.667869 -0.562403 -0.487497
vn 0.736413 -0.403368 -0.543130
vn 0.848293 -0.259814 0.461406
vn 0.870321 -0.002136 0.492480
vn -0.817416 0.536335 -0.210183
vn -0.730409 0.525753 -0.435989
vn -0.848396 0.528535 0.029593
vn 0.635789 -0.331570 -0.697018
vn 0.661225 -0.114566 -0.741388
vn 0.708344 -0.684714 0.171512
vn 0.793554 -0.573665 0.202933
vn 0.167757 -0.458007 0.872976
vn 0.178179 -0.231416 0.956399
vn -0.341318 0.267988 -0.900935
vn 0.898989 -0.435028 0.050691
vn -0.547811 -0.598423 0.584632
vn 0.431110 0.450357 -0.781871
vn 0.522815 -0.524992 0.671600
vn -0.298814 -0.780371 0.549301
vn -0.815370 -0.572030 -0.089184
vn 0.902720 0.410673 -0.128237
vn -0.233764 -0.598914 0.765935
vn -0.444360 -0.595792 -0.669012
vn 0.686470 0.334398 0.645707
vn -0.781922 -0.559662 0.274548
vn -0.517924 -0.728298 -0.448706
vn 0.260321 -0.492103 -0.830703
vn -0.094482 0.227244 0.969244
vn -0.748643 -0.477567 -0.459852
vn 0.818531 -0.497054 -0.287999
vn -0.795749 0.280126 0.536947
vn -0.097625 -0.466105 -0.879327
vn 0.768710 -0.499863 0.399026
vn -0.887808 0.394650 -0.236743
vn 0.578750 -0.532093 -0.618001
vn 0.147536 -0.657846 0.738561
vn 0.000256 -0.998776 0.049463
vn 0.012045 -0.998692 0.049691
vn -0.001515 -0.998396 0.056592
vn 0.906856 0.205604 -0.367884
vn 0.870428 0.287884 -0.399348
vn 0.148666 0.213650 -0.965532
vn 0.134100 0.320486 -0.937713
vn -0.890027 0.223939 -0.397118
vn -0.816082 0.304899 -0.490966
vn -0.655756 0.324668 -0.681597
vn -0.958702 0.283463 0.023209
vn -0.874607 0.329291 -0.355850
vn -0.611937 0.214241 0.761337
vn -0.560004 0.356952 0.747651
vn 0.627297 0.212345 0.749272
vn 0.513330 0.342681 0.786805
vn 0.278534 0.383352 0.880602
vn 0.845947 0.360592 0.392869
vn 0.709969 0.329902 0.622180
vn 0.012412 -0.999923 -0.000694
vn 0.084213 -0.995175 0.050355
vn 0.053182 -0.996383 0.066278
vn 0.024503 -0.997737 -0.062607
vn 0.034385 -0.999294 0.015143
vn -0.043356 -0.996685 -0.068848
vn 0.043637 -0.998750 -0.024384
vn 0.866752 0.061149 -0.494976
vn 0.053020 -0.339833 0.938990
vn 0.005855 -0.158929 0.987273
vn -0.763338 -0.446960 0.466413
vn -0.821851 -0.322042 0.469947
vn -0.789729 -0.293252 -0.538823
vn -0.829579 -0.093984 -0.550424
vn 0.792929 0.514738 0.326050
vn 0.691487 0.454290 0.561664
vn -0.646542 -0.353385 0.676094
vn -0.709072 -0.154139 0.688083
vn -0.804240 -0.500661 -0.320213
vn -0.840694 -0.424946 -0.335641
vn -0.610292 -0.495612 -0.617991
vn -0.041737 -0.222343 -0.974075
vn -0.004226 -0.036137 -0.999338
vn 0.259709 0.554914 0.790330
vn 0.018758 0.453347 0.891137
vn 0.485308 0.459028 0.744157
vn -0.892607 -0.436143 -0.114159
vn -0.954771 -0.256261 -0.150806
vn -0.301871 -0.538119 -0.786957
vn -0.295792 -0.497983 -0.815181
vn 0.685832 -0.258564 -0.680279
vn 0.714914 -0.137979 -0.685463
vn -0.534829 0.154896 0.830641
vn -0.310382 0.461764 0.830925
vn -0.451821 -0.381950 -0.806209
vn -0.483154 -0.201592 -0.852011
vn 0.453647 -0.510422 -0.730530
vn 0.492143 -0.430113 -0.756834
vn 0.970881 -0.225418 0.081094
vn 0.988042 -0.044883 0.147506
vn -0.993570 0.034825 0.107730
vn 0.369520 -0.347032 -0.861988
vn 0.381004 -0.143569 -0.913359
vn 0.898570 -0.428205 -0.095980
vn 0.952625 -0.295402 -0.072404
vn 0.486045 -0.224350 0.844646
vn 0.495984 -0.044358 0.867198
vn -0.634235 0.437705 -0.637306
vn 0.899683 -0.299828 -0.317291
vn 0.935473 -0.117978 -0.333123
vn 0.651790 -0.409341 0.638443
vn 0.645932 -0.346274 0.680343
vn -0.344789 -0.244782 0.906202
vn -0.366096 -0.035639 0.929894
vn 0.116347 0.097501 -0.988411
vn 0.798284 -0.287057 0.529473
vn 0.829431 -0.047135 0.556617
vn -0.071766 -0.423311 0.903138
vn -0.099691 -0.302766 0.947837
vn -0.916347 -0.225834 0.330616
vn -0.942137 -0.044420 0.332273
vn 0.820628 -0.251373 -0.513207
vn 0.098209 -0.508068 0.855700
vn -0.690291 -0.563368 0.453999
vn -0.717161 -0.480371 -0.504899
vn 0.887861 -0.304021 0.345360
vn -0.555724 -0.537170 0.634523
vn -0.761916 -0.572721 -0.302449
vn -0.077716 -0.400385 -0.913045
vn 0.345670 -0.319353 0.882341
vn -0.796912 -0.599641 -0.073223
vn -0.307213 -0.576940 -0.756809
vn 0.646179 -0.375164 -0.664609
vn -0.506257 -0.201366 0.838544
vn -0.404399 -0.548706 -0.731699
vn 0.411239 -0.586329 -0.697926
vn 0.917508 -0.397546 0.011659
vn -0.946437 -0.291545 0.138776
vn 0.341714 -0.535167 -0.772546
vn 0.825542 -0.551966 -0.117530
vn 0.460064 -0.396937 0.794218
vn -0.636704 -0.395380 -0.662030
vn 0.832764 -0.471303 -0.290480
vn 0.653890 -0.470048 0.592860
vn -0.308050 -0.442970 0.841951
vn 0.101522 -0.239492 -0.965576
vn 0.719823 -0.509965 0.470947
vn -0.042598 -0.536529 0.842806
vn -0.859787 -0.399666 0.317858
vn 0.044608 -0.998916 0.013272
vn 0.043785 -0.999034 0.003661
vn 0.037658 -0.999266 -0.007091
vn 0.049904 -0.998650 0.014411
vn 0.002027 -0.999102 0.042331
vn 0.017632 -0.999097 0.038669
vn -0.011533 -0.998721 0.049228
vn -0.013578 -0.998850 0.045982
vn -0.009487 -0.998577 0.052473

usemtl Tree_Fir_Wood
f 1/4/4 2/3/3 10/2/2 9/1/1
f 2/8/8 3/7/7 11/6/6 10/5/5
f 3/7/7 4/10/11 12/9/10 11/6/9
f 4/10/15 5/12/14 13/11/13 12/9/12
f 5/12/14 6/14/18 14/13/17 13/11/16
f 6/14/18 7/16/20 15/15/19 14/13/17
f 7/16/22 8/18/22 16/17/21 15/15/21
f 8/18/24 1/4/4 9/1/1 16/17/23
f 9/1/1 10/2/27 18/20/26 17/19/25
f 10/5/5 11/6/29 19/22/28 18/21/26
f 11/6/6 12/9/10 20/23/30 19/22/28
f 12/9/12 13/11/12 21/24/31 20/23/31
f 13/11/16 14/13/17 22/25/33 21/24/32
f 14/13/17 15/15/19 23/26/34 22/25/33
f 15/15/21 16/17/21 24/27/35 23/26/35
f 16/17/23 9/1/1 17/19/25 24/27/36
f 17/19/25 18/20/26 26/29/38 25/28/37
f 18/21/26 19/22/28 27/31/39 26/30/38
f 19/22/28 20/23/30 28/32/40 27/31/39
f 20/23/31 21/24/31 29/33/41 28/32/41
f 21/24/32 22/25/33 30/34/43 29/33/42
f 22/25/33 23/26/34 31/35/44 30/34/43
f 23/26/35 24/27/35 32/36/45 31/35/45
f 24/27/36 17/19/25 25/28/37 32/36/46
f 25/28/37 26/29/38 33/37/47
f 26/30/38 27/31/39 33/38/48
f 27/31/39 28/32/40 33/38/49
f 28/32/41 29/33/51 33/38/50
f 29/33/53 30/34/43 33/38/52
f 30/34/43 31/35/54 33/38/52
f 31/35/56 32/36/45 33/38/55
f 32/36/46 25/28/37 33/37/57

usemtl Tree_Fir_Foliage
f 176/42/61 47/41/60 48/40/59 42/39/58
f 34/4/63 35/39/63 41/43/62
f 35/46/65 36/45/65 41/44/64
f 36/45/68 37/47/67 41/44/66
f 37/47/70 38/48/70 41/44/69
f 38/48/72 39/49/72 41/44/71
f 39/49/74 40/50/74 41/44/73
f 40/50/76 34/4/76 41/43/75
f 77/39/78 78/4/78 79/4/77 80/39/77
f 81/4/79 82/51/79 83/51/79 84/4/79
f 85/51/81 86/52/81 87/52/80 88/51/80
f 89/52/82 90/53/82 91/53/82 92/52/82
f 93/53/84 94/41/84 95/41/83 96/53/83
f 97/41/86 98/40/86 99/40/85 100/41/85
f 101/40/88 102/39/88 103/39/87 104/40/87
f 35/39/91 34/4/90 50/4/89 49/39/89
f 34/4/93 43/4/93 51/4/92 50/4/92
f 43/4/95 42/39/95 52/39/94 51/4/94
f 42/39/97 35/39/97 49/39/96 52/39/96
f 34/4/100 40/51/99 54/51/98 53/4/98
f 40/51/102 44/51/102 55/51/101 54/51/101
f 44/51/105 43/4/104 56/4/103 55/51/103
f 43/4/107 34/4/107 53/4/106 56/4/106
f 40/51/110 39/52/109 58/52/108 57/51/108
f 39/52/112 45/52/112 59/52/111 58/52/111
f 45/52/114 44/51/105 60/51/113 59/52/113
f 44/51/116 40/51/116 57/51/115 60/51/115
f 39/52/119 38/53/118 62/53/117 61/52/117
f 38/53/121 46/53/121 63/53/120 62/53/120
f 46/53/123 45/52/114 64/52/122 63/53/122
f 45/52/125 39/52/125 61/52/124 64/52/124
f 38/53/128 37/41/127 66/41/126 65/53/126
f 37/41/130 47/41/130 67/41/129 66/41/129
f 47/41/133 46/53/132 68/53/131 67/41/131
f 46/53/135 38/53/135 65/53/134 68/53/134
f 37/41/67 36/40/137 70/40/136 69/41/136
f 36/40/139 48/40/139 71/40/138 70/40/138
f 48/40/141 47/41/133 72/41/140 71/40/140
f 47/41/143 37/41/143 69/41/142 72/41/142
f 36/40/146 35/39/145 74/39/144 73/40/144
f 35/39/148 42/39/148 75/39/147 74/39/147
f 42/39/150 48/40/150 76/40/149 75/39/149
f 48/40/152 36/40/152 73/40/151 76/40/151
f 49/39/89 50/4/89 78/4/153 77/39/153
f 50/4/92 51/4/92 79/4/154 78/4/154
f 51/4/94 52/39/94 80/39/77 79/4/77
f 52/39/96 49/39/96 77/39/155 80/39/155
f 53/4/98 54/51/98 82/51/156 81/4/156
f 54/51/101 55/51/101 83/51/157 82/51/157
f 55/51/103 56/4/103 84/4/158 83/51/158
f 56/4/106 53/4/106 81/4/159 84/4/159
f 57/51/108 58/52/108 86/52/160 85/51/160
f 58/52/111 59/52/111 87/52/161 86/52/161
f 59/52/113 60/51/113 88/51/80 87/52/80
f 60/51/115 57/51/115 85/51/162 88/51/162
f 61/52/117 62/53/117 90/53/163 89/52/163
f 62/53/120 63/53/120 91/53/164 90/53/164
f 63/53/122 64/52/122 92/52/165 91/53/165
f 64/52/124 61/52/124 89/52/166 92/52/166
f 65/53/126 66/41/126 94/41/167 93/53/167
f 66/41/129 67/41/129 95/41/168 94/41/168
f 67/41/131 68/53/131 96/53/83 95/41/83
f 68/53/134 65/53/134 93/53/169 96/53/169
f 69/41/136 70/40/136 98/40/170 97/41/170
f 70/40/138 71/40/138 99/40/171 98/40/171
f 71/40/140 72/41/140 100/41/85 99/40/85
f 72/41/142 69/41/142 97/41/172 100/41/172
f 73/40/144 74/39/144 102/39/173 101/40/173
f 74/39/147 75/39/147 103/39/174 102/39/174
f 75/39/149 76/40/149 104/40/87 103/39/87
f 76/40/151 73/40/151 101/40/175 104/40/175
f 119/40/178 113/39/177 177/54/176
f 105/4/180 106/39/180 112/43/179
f 106/46/182 107/45/182 112/44/181
f 107/45/185 108/47/184 112/44/183
f 108/47/187 109/48/186 112/44/183
f 109/48/189 110/49/189 112/44/188
f 110/49/192 111/50/191 112/44/190
f 111/50/194 105/4/193 112/43/190
f 148/39/195 149/4/195 150/4/195 151/39/195
f 152/4/196 153/51/196 154/51/196 155/4/196
f 156/51/197 157/52/197 158/52/197 159/51/197
f 160/52/198 161/53/198 162/53/198 163/52/198
f 164/53/199 165/41/199 166/41/199 167/53/199
f 168/41/200 169/40/200 170/40/200 171/41/200
f 172/40/201 173/39/201 174/39/201 175/40/201
f 106/39/180 105/4/180 121/4/202 120/39/202
f 105/4/204 114/4/204 122/4/203 121/4/203
f 114/4/206 113/39/206 123/39/205 122/4/205
f 113/39/208 106/39/208 120/39/207 123/39/207
f 105/4/193 111/51/210 125/51/209 124/4/209
f 111/51/212 115/51/212 126/51/211 125/51/211
f 115/51/215 114/4/214 127/4/213 126/51/213
f 114/4/217 105/4/217 124/4/216 127/4/216
f 111/51/220 110/52/219 129/52/218 128/51/218
f 110/52/222 116/52/222 130/52/221 129/52/221
f 116/52/224 115/51/215 131/51/223 130/52/223
f 115/51/226 111/51/226 128/51/225 131/51/225
f 110/52/228 109/53/189 133/53/227 132/52/227
f 109/53/230 117/53/230 134/53/229 133/53/229
f 117/53/232 116/52/232 135/52/231 134/53/231
f 116/52/234 110/52/234 132/52/233 135/52/233
f 109/53/186 108/41/186 137/41/235 136/53/235
f 108/41/237 118/41/237 138/41/236 137/41/236
f 118/41/239 117/53/239 139/53/238 138/41/238
f 117/53/241 109/53/241 136/53/240 139/53/240
f 108/41/184 107/40/185 141/40/242 140/41/242
f 107/40/244 119/40/244 142/40/243 141/40/243
f 119/40/246 118/41/246 143/41/245 142/40/245
f 118/41/248 108/41/248 140/41/247 143/41/247
f 107/40/182 106/39/182 145/39/249 144/40/249
f 106/39/251 113/39/251 146/39/250 145/39/250
f 113/39/253 119/40/253 147/40/252 146/39/252
f 119/40/255 107/40/255 144/40/254 147/40/254
f 120/39/202 121/4/202 149/4/256 148/39/256
f 121/4/203 122/4/203 150/4/257 149/4/257
f 122/4/205 123/39/205 151/39/258 150/4/258
f 123/39/207 120/39/207 148/39/259 151/39/259
f 124/4/260 125/51/260 153/51/260 152/4/260
f 125/51/211 126/51/211 154/51/261 153/51/261
f 126/51/213 127/4/213 155/4/262 154/51/262
f 127/4/216 124/4/216 152/4/263 155/4/263
f 128/51/264 129/52/264 157/52/264 156/51/264
f 129/52/221 130/52/221 158/52/265 157/52/265
f 130/52/223 131/51/223 159/51/266 158/52/266
f 131/51/225 128/51/225 156/51/267 159/51/267
f 132/52/227 133/53/227 161/53/268 160/52/268
f 133/53/229 134/53/229 162/53/269 161/53/269
f 134/53/231 135/52/231 163/52/270 162/53/270
f 135/52/233 132/52/233 160/52/271 163/52/271
f 136/53/235 137/41/235 165/41/272 164/53/272
f 137/41/236 138/41/236 166/41/273 165/41/273
f 138/41/238 139/53/238 167/53/274 166/41/274
f 139/53/240 136/53/240 164/53/275 167/53/275
f 140/41/276 141/40/276 169/40/276 168/41/276
f 141/40/243 142/40/243 170/40/277 169/40/277
f 142/40/245 143/41/245 171/41/278 170/40/278
f 143/41/247 140/41/247 168/41/279 171/41/279
f 144/40/249 145/39/249 173/39/280 172/40/280
f 145/39/250 146/39/250 174/39/281 173/39/281
f 146/39/252 147/40/252 175/40/282 174/39/282
f 147/40/254 144/40/254 172/40/283 175/40/283
f 46/53/284 47/41/60 176/42/61
f 43/4/286 44/51/285 176/42/61 42/39/58
f 176/42/61 44/51/285 45/52/287 46/53/284
f 114/4/289 115/51/288 177/54/176 113/39/177
f 116/52/291 117/53/290 177/54/176 115/51/288
f 117/53/290 118/41/292 119/40/178 177/54/176

usemtl default

