# WaveFront *.obj file (generated by Cheetah3D)

mtllib Tree22.mtl

g Tree_Type_2_2
v 0.021600 0.000000 -0.011232
v 0.004847 0.000000 -0.023775
v -0.016623 0.000000 -0.012473
v -0.018770 -0.000000 0.011376
v -0.001831 -0.000000 0.020321
v 0.021483 -0.000000 0.009895
v 0.022988 0.051005 -0.010374
v 0.013938 0.050773 -0.018402
v 0.003207 0.046220 -0.014157
v 0.000455 0.043888 -0.003407
v 0.007700 0.051622 0.001640
v 0.017218 0.048429 0.000123
v 0.007715 0.099385 -0.006587
v 0.002161 0.091429 -0.013511
v -0.008980 0.094613 -0.015615
v -0.008044 0.094149 -0.005502
v -0.004402 0.095692 0.006393
v 0.003660 0.097214 0.006379
v 0.015182 0.167379 -0.000898
v 0.011540 0.166580 -0.009059
v 0.005960 0.162072 -0.013505
v 0.001852 0.159922 -0.008554
v 0.005096 0.163169 -0.001940
v 0.011406 0.166147 0.002592
v 0.007157 0.196526 0.001974
v 0.007269 0.195651 -0.002828
v 0.003547 0.192369 -0.006042
v -0.002503 0.190973 -0.003264
v -0.001222 0.192532 0.003027
v 0.004449 0.193059 0.005489
v 0.004947 0.109608 -0.000999
v 0.001962 0.110591 -0.007286
v -0.002146 0.113478 -0.007281
v -0.003294 0.115335 -0.002056
v -0.001144 0.114138 0.003863
v 0.003280 0.111877 0.003859
v 0.029260 0.142649 0.000114
v 0.027679 0.142885 -0.005170
v 0.023534 0.144630 -0.005584
v 0.021573 0.147335 0.000152
v 0.023692 0.146742 0.004481
v 0.027773 0.144868 0.004894
v 0.038090 0.174206 -0.000740
v 0.036695 0.175546 -0.003152
v 0.034564 0.179117 -0.002712
v 0.033380 0.181232 -0.000700
v 0.034620 0.179729 0.001452
v 0.037245 0.176594 0.001012
v 0.052975 0.210769 0.000463
v 0.032572 0.399226 0.003671
v 0.093755 0.246038 -0.036002
v -0.055270 0.246296 -0.064011
v 0.008413 0.247728 0.091534
v 0.042129 0.396656 0.013783
v 0.052910 0.368935 0.032097
v 0.067010 0.330311 0.024086
v 0.094878 0.280258 0.000491
v 0.044920 0.393158 -0.010177
v 0.049326 0.378049 -0.023944
v 0.039478 0.346389 -0.051299
v -0.022559 0.297069 -0.068592
v 0.019375 0.400091 0.003910
v -0.000172 0.385508 0.010056
v -0.019905 0.358631 0.023787
v -0.034742 0.299160 0.061739
v 0.061216 0.217299 -0.082184
v 0.008076 0.217489 -0.087545
v -0.029987 0.218253 -0.089310
v -0.056087 0.224416 -0.066135
v 0.095821 0.229423 -0.021225
v 0.098205 0.214756 0.002312
v 0.091356 0.210179 0.037758
v 0.057371 0.229379 0.080362
v -0.087709 0.221732 0.005355
v -0.057941 0.223550 0.039522
v -0.029026 0.223317 0.067643
v -0.012481 0.230434 0.092996
v 0.050135 0.394948 0.003336
v 0.069695 0.355255 0.009997
v 0.067184 0.362969 -0.019650
v 0.090534 0.289486 -0.038281
v 0.061597 0.291647 -0.076305
v 0.017741 0.301243 -0.083792
v 0.032368 0.406534 -0.007490
v 0.024484 0.362398 -0.035901
v 0.001703 0.377243 -0.006853
v -0.050945 0.291454 -0.046698
v -0.058458 0.307942 -0.009474
v -0.063988 0.298374 0.034590
v 0.027762 0.397796 0.020014
v 0.007132 0.380283 0.035611
v 0.033871 0.365270 0.042768
v 0.003452 0.308915 0.072022
v 0.039181 0.292429 0.070717
v 0.071982 0.291819 0.038993
v 0.061727 0.202712 -0.061592
v 0.055300 0.198485 -0.020268
v -0.000920 0.189574 -0.061854
v 0.055284 0.182638 0.053291
v -0.002977 0.179185 0.027335
v -0.060545 0.185936 -0.007529
v 0.004376 0.141524 -0.004860
v 0.005945 0.139907 -0.007481
v 0.004126 0.137845 -0.009576
v 0.000739 0.137400 -0.009049
v -0.000829 0.139017 -0.006428
v 0.000989 0.141079 -0.004333
v -0.001133 0.158873 -0.015107
v 0.000678 0.157006 -0.018135
v -0.001422 0.154624 -0.020554
v -0.005333 0.154110 -0.019945
v -0.007145 0.155978 -0.016918
v -0.005045 0.158359 -0.014499
v -0.015062 0.170144 -0.028215
v -0.013791 0.169437 -0.030610
v -0.015265 0.168270 -0.032687
v -0.018010 0.167810 -0.032370
v -0.019282 0.168517 -0.029975
v -0.017808 0.169684 -0.027898
v -0.036934 0.224939 -0.043059

vt 0.750000 0.250000
vt 0.916667 0.250000
vt 0.916667 0.000000
vt 0.750000 0.000000
vt -0.083333 0.250000
vt 0.083333 0.250000
vt 0.083333 0.000000
vt -0.083333 0.000000
vt 0.250000 0.250000
vt 0.250000 0.000000
vt 0.416667 0.250000
vt 0.416667 0.000000
vt 0.583333 0.250000
vt 0.583333 0.000000
vt 0.750000 0.500000
vt 0.916667 0.500000
vt -0.083333 0.500000
vt 0.083333 0.500000
vt 0.250000 0.500000
vt 0.416667 0.500000
vt 0.583333 0.500000
vt 0.750000 0.750000
vt 0.916667 0.750000
vt -0.083333 0.750000
vt 0.083333 0.750000
vt 0.250000 0.750000
vt 0.416667 0.750000
vt 0.583333 0.750000
vt 0.750000 1.000000
vt 0.916667 1.000000
vt -0.083333 1.000000
vt 0.083333 1.000000
vt 0.250000 1.000000
vt 0.416667 1.000000
vt 0.583333 1.000000
vt 0.750000 0.333333
vt 0.916667 0.333333
vt -0.083333 0.333333
vt 0.083333 0.333333
vt 0.250000 0.333333
vt 0.416667 0.333333
vt 0.583333 0.333333
vt 0.750000 0.666667
vt 0.916667 0.666667
vt -0.083333 0.666667
vt 0.083333 0.666667
vt 0.250000 0.666667
vt 0.416667 0.666667
vt 0.583333 0.666667
vt 0.541667 1.000000
vt 0.166667 1.000000
vt 0.833333 0.878365
vt 0.500000 0.878365
vt 0.666667 1.000000
vt 0.666667 0.857734
vt 0.500000 0.756731
vt 0.833333 0.756731
vt 0.603162 0.721036
vt 0.500000 0.635096
vt 0.730171 0.721036
vt 0.833333 0.635096
vt 0.583210 0.523277
vt 0.500000 0.513461
vt 0.666667 0.526874
vt 0.750123 0.523277
vt 0.833333 0.513461
vt 0.560200 0.338792
vt 0.500000 0.391827
vt 0.629646 0.308164
vt 0.703687 0.308164
vt 0.773133 0.338792
vt 0.833333 0.391827
vt 0.166667 0.878365
vt -0.166667 0.878365
vt 0.000000 1.000000
vt 1.000000 0.857734
vt 0.000000 0.857734
vt 0.166667 0.756731
vt 0.936496 0.721036
vt 0.063504 0.721036
vt -0.063504 0.721036
vt 0.166667 0.635096
vt 0.916544 0.523277
vt 1.000000 0.526874
vt 0.000000 0.526874
vt 0.083456 0.523277
vt 0.166667 0.513461
vt 0.893533 0.338792
vt 0.962980 0.308164
vt 0.037020 0.308164
vt -0.037020 0.308164
vt 0.106467 0.338792
vt 0.166667 0.391827
vt 0.333333 1.000000
vt 0.333333 0.857734
vt 0.269829 0.721036
vt 0.396838 0.721036
vt 0.249877 0.523277
vt 0.333333 0.526874
vt 0.416790 0.523277
vt 0.226867 0.338792
vt 0.296313 0.308164
vt 0.370354 0.308164
vt 0.439800 0.338792
vt 0.500000 0.249560
vt 0.391378 0.156948
vt 0.608621 0.156948
vt 0.184247 0.183547
vt 0.000000 0.081299
vt 0.815753 0.183547
vt 1.000000 0.081299

vn 0.625743 0.122848 -0.770295
vn 0.410683 0.091864 -0.907139
vn 0.623358 -0.016315 -0.781766
vn -0.278543 0.091279 -0.956076
vn -0.447728 0.166912 -0.878453
vn -0.989464 0.089758 -0.113594
vn -0.919323 0.379338 -0.104634
vn -0.703155 0.122928 0.700330
vn -0.551377 0.418816 0.721510
vn 0.220296 0.073058 0.972693
vn 0.489402 0.134849 0.861569
vn 0.352382 0.238790 0.904879
vn 0.943288 0.133745 0.303843
vn 0.981441 0.045111 0.186380
vn 0.765197 0.099013 -0.636137
vn 0.648647 0.060462 -0.758684
vn 0.137806 -0.003932 -0.990451
vn 0.029126 0.061079 -0.997708
vn -0.989260 -0.014518 -0.145443
vn -0.985688 -0.014127 0.167987
vn -0.989769 -0.005590 0.142572
vn -0.955563 -0.082420 0.283029
vn -0.742809 0.036720 0.668495
vn -0.884887 0.009392 0.465712
vn -0.131498 0.014834 0.991206
vn 0.906927 0.057228 0.417382
vn 0.813087 0.184532 0.552120
vn 0.914798 0.088032 -0.394201
vn 0.716637 0.108690 -0.688925
vn 0.604216 0.056601 -0.794808
vn 0.429829 0.115595 -0.895480
vn 0.484417 0.050987 -0.873350
vn -0.849743 0.145201 -0.506807
vn -0.995538 0.061181 -0.071836
vn -0.998886 0.046588 0.007458
vn -0.981692 0.041248 0.185955
vn -0.932986 -0.031544 0.358528
vn -0.883641 -0.012321 0.468003
vn -0.393935 -0.051059 0.917719
vn -0.377431 -0.057674 0.924240
vn 0.817887 0.002454 0.575373
vn 0.928234 0.240428 -0.283860
vn 0.755312 0.261357 -0.600996
vn 0.807175 0.149009 -0.571195
vn 0.483509 0.248071 -0.839452
vn -0.623211 0.092662 -0.776545
vn -0.890461 -0.224514 0.395819
vn -0.704303 -0.238000 0.668814
vn -0.817754 -0.103516 0.566182
vn -0.441122 -0.225457 0.868666
vn -0.599379 -0.116973 0.791872
vn 0.690964 0.111161 0.714292
vn 0.832059 -0.404658 -0.379381
vn 0.750666 -0.557290 -0.354863
vn 0.051412 0.036362 -0.998015
vn 0.057118 0.013728 -0.998273
vn -0.760875 0.438268 -0.478529
vn -0.689145 0.578564 -0.436283
vn -0.776014 0.429178 0.462179
vn -0.734299 0.547380 0.401471
vn 0.011684 0.046562 0.998847
vn -0.044103 0.007999 0.998995
vn 0.793431 -0.379801 0.475624
vn 0.699421 -0.532464 0.476752
vn 0.826328 -0.265167 -0.496859
vn 0.013148 0.085039 -0.996291
vn -0.184537 0.198776 -0.962514
vn -0.692457 0.345687 -0.633248
vn -0.728215 0.354492 0.586547
vn 0.093734 0.022939 0.995333
vn 0.295572 -0.085416 0.951494
vn 0.766069 -0.254681 0.590149
vn 0.751885 -0.286581 -0.593751
vn -0.300840 0.266827 -0.915586
vn -0.370691 0.235868 -0.898306
vn -0.643920 0.401546 0.651252
vn 0.406375 -0.172642 0.897248
vn 0.470644 -0.126540 0.873202
vn 0.777150 0.615360 0.131795
vn 0.867478 0.426621 0.255885
vn 0.769349 0.011284 -0.638729
vn 0.803754 -0.116008 -0.583542
vn -0.030107 -0.616781 -0.786558
vn -0.055120 -0.559338 -0.827105
vn -0.789202 -0.596737 -0.145139
vn -0.857494 -0.460806 -0.228826
vn -0.775455 0.007792 0.631355
vn -0.790725 0.080888 0.606804
vn 0.022880 0.644829 0.763984
vn 0.063579 0.522437 0.850304
vn 0.768916 0.617077 0.167288
vn 0.737482 0.155688 -0.657177
vn -0.042830 -0.455343 -0.889285
vn -0.806696 -0.551284 -0.212900
vn -0.769591 -0.084100 0.632975
vn 0.023183 0.539551 0.841634
vn 0.845403 0.425062 0.323444
vn 0.754858 0.172844 -0.632703
vn -0.077750 -0.208180 -0.974996
vn -0.865463 -0.353165 -0.355314
vn -0.783084 -0.102772 0.613366
vn 0.062883 0.284254 0.956685
vn 0.377396 0.869756 -0.317956
vn 0.270120 0.957448 0.101626
vn 0.163493 0.982147 -0.093050
vn 0.819699 0.500239 0.279023
vn 0.627359 0.431418 0.648305
vn 0.512515 0.767147 0.385763
vn 0.263619 0.918954 -0.293305
vn 0.361792 0.882058 -0.301796
vn 0.142265 0.989798 0.007745
vn 0.637292 0.577637 -0.510092
vn 0.823862 0.556706 -0.106438
vn 0.582422 0.738325 -0.340088
vn 0.941034 0.245205 0.233089
vn 0.837119 0.241600 0.490777
vn 0.836421 0.534553 0.121046
vn 0.636092 0.508799 0.580095
vn 0.907041 0.386988 -0.165881
vn 0.941577 0.316358 0.115542
vn 0.819218 0.573414 0.008776
vn 0.542166 0.589128 -0.599153
vn 0.663534 0.499626 -0.556863
vn 0.640866 0.727895 -0.243845
vn 0.427828 0.459942 -0.778085
vn 0.559445 0.480099 -0.675667
vn 0.450643 0.619429 -0.642828
vn 0.911217 0.408109 -0.055949
vn 0.950995 0.281987 0.126851
vn 0.875532 0.282418 0.392025
vn 0.993607 0.098511 0.055143
vn 0.481143 0.595552 -0.643288
vn 0.627613 0.588616 -0.509542
vn 0.817517 0.528402 -0.229037
vn 0.937748 0.219063 -0.269518
vn 0.908901 -0.231919 -0.346574
vn 0.225534 0.391801 -0.891979
vn 0.313900 0.340998 -0.886108
vn 0.629430 0.309087 -0.712940
vn 0.401113 0.260504 -0.878206
vn 0.695621 0.405641 -0.592930
vn -0.511078 0.482311 -0.711460
vn -0.268263 0.472124 -0.839722
vn -0.308301 0.655621 -0.689284
vn 0.208751 0.598752 -0.773252
vn 0.321085 0.685882 -0.653047
vn 0.959689 -0.233108 -0.157029
vn 0.878707 -0.349485 -0.325167
vn 0.981700 -0.158832 0.105059
vn 0.070152 0.309369 -0.948351
vn 0.406536 0.563823 -0.718910
vn 0.246185 -0.690446 -0.680203
vn 0.851350 -0.362964 -0.378761
vn -0.127635 0.166269 -0.977785
vn 0.164061 0.235888 -0.957831
vn 0.212517 0.242147 -0.946679
vn 0.082928 -0.212908 -0.973547
vn -0.568540 0.182791 -0.802091
vn -0.276468 0.261856 -0.924661
vn -0.432065 0.400110 -0.808227
vn -0.410234 0.159149 -0.897987
vn -0.296154 0.307527 -0.904279
vn -0.293254 0.103194 -0.950449
vn -0.414421 0.208153 -0.885961
vn -0.107442 0.987923 -0.111648
vn 0.336373 0.613132 -0.714788
vn 0.523028 0.333280 0.784453
vn -0.671969 0.740563 -0.004874
vn -0.605181 0.643162 -0.469146
vn -0.394327 0.911590 -0.116235
vn -0.342853 0.590464 -0.730618
vn -0.142886 0.655031 -0.741969
vn 0.297383 0.599706 -0.742911
vn 0.046803 0.638981 -0.767797
vn -0.285144 0.557970 -0.779334
vn 0.376557 0.620380 -0.687992
vn -0.686901 0.552070 -0.472636
vn -0.461245 0.653693 -0.599949
vn -0.697733 0.711417 -0.083989
vn -0.713105 0.581294 -0.391891
vn -0.809795 0.581579 -0.077443
vn -0.732460 0.655645 -0.183390
vn -0.481776 0.661574 -0.574640
vn -0.574390 0.674797 -0.463384
vn -0.664347 0.648303 -0.371950
vn -0.420605 0.589025 -0.690029
vn -0.572226 0.600533 -0.558496
vn -0.767896 0.622311 0.151871
vn -0.750498 0.651881 0.108647
vn -0.774120 0.590323 -0.228598
vn -0.788918 0.607080 -0.095198
vn -0.475450 0.404749 0.781106
vn -0.778945 0.322554 0.537777
vn -0.567989 0.551138 0.611257
vn -0.879772 0.472696 -0.050587
vn -0.899697 0.304287 -0.312977
vn -0.545536 -0.297342 -0.783567
vn -0.798020 -0.246407 -0.549953
vn -0.411821 -0.019999 -0.911045
vn -0.622230 0.528950 0.577098
vn -0.760521 0.633197 0.143766
vn -0.583133 0.660540 0.472909
vn -0.935605 -0.298756 -0.188117
vn -0.983088 -0.096421 -0.155697
vn -0.757037 0.131246 0.640054
vn -0.743818 0.550909 0.378463
vn -0.846726 -0.487873 -0.212214
vn -0.755252 -0.009177 0.655370
vn -0.735514 -0.180983 0.652889
vn -0.724139 0.180734 0.665551
vn -0.438899 0.316003 0.841136
vn -0.608796 0.115788 0.784832
vn -0.024181 0.113177 0.993281
vn -0.264742 0.119360 0.956904
vn 0.196846 0.967421 0.159208
vn -0.065736 0.995161 0.073025
vn -0.294709 0.918563 0.263416
vn -0.591686 0.786165 0.178473
vn -0.256829 0.962511 0.087241
vn 0.260760 0.595373 0.759957
vn 0.404760 0.776583 0.482791
vn -0.607887 0.648472 0.458211
vn -0.726749 0.593565 0.345712
vn -0.619428 0.782653 0.061342
vn 0.397476 0.385720 0.832606
vn -0.084658 0.467809 0.879766
vn 0.799297 0.183302 0.572298
vn 0.575110 0.417578 0.703475
vn -0.264436 0.359471 0.894904
vn -0.313601 0.407735 0.857559
vn -0.377562 0.626368 0.681990
vn -0.423769 0.312364 0.850205
vn 0.416406 0.268828 0.868526
vn 0.119685 0.446663 0.886661
vn 0.098937 0.462824 0.880912
vn 0.324814 0.389918 0.861661
vn 0.296862 0.385475 0.873660
vn 0.825408 0.155453 0.542712
vn 0.541518 0.327009 0.774482
vn 0.481494 0.381930 0.788856
vn 0.956028 0.159775 0.245930
vn 0.592145 0.635027 0.496089
vn 0.396351 0.686032 0.610136
vn 0.027278 0.676749 0.735708
vn -0.262334 0.194746 0.945122
vn 0.026789 -0.240460 0.970289
vn -0.392303 0.251771 0.884709
vn 0.812257 0.505175 0.291610
vn 0.532021 0.529302 0.660904
vn -0.181975 -0.463042 0.867454
vn -0.217826 -0.269439 0.938059
vn 0.901326 0.228811 0.367774
vn 0.784585 0.233632 0.574319
vn 0.773358 0.123607 0.621802
vn 0.839509 0.189473 0.509238
vn 0.668537 0.298451 0.681165
vn 0.979944 0.042726 0.194641
vn 0.914574 0.373731 0.154530
vn 0.841686 0.208235 0.498199
vn 0.979526 -0.045530 0.196103
vn 0.957386 -0.116113 -0.264441
vn 0.972047 -0.205032 -0.114397
vn 0.984384 0.068652 0.162093
vn 0.896814 -0.303159 -0.322209
vn 0.698698 -0.661927 -0.271429
vn 0.548741 -0.820328 -0.161076
vn 0.207259 -0.906374 -0.368145
vn 0.055402 -0.814116 -0.578054
vn 0.317836 -0.941905 -0.108606
vn 0.465423 -0.877939 -0.112272
vn 0.441694 -0.806982 -0.392028
vn 0.034767 -0.919232 -0.392179
vn -0.217348 -0.619350 -0.754430
vn 0.390501 -0.474385 0.788966
vn 0.324389 -0.364896 0.872710
vn 0.609181 -0.417650 0.674142
vn 0.357428 -0.913010 -0.196618
vn 0.113184 -0.982912 -0.145167
vn -0.347684 -0.862283 -0.368217
vn -0.322393 -0.748140 -0.579956
vn -0.481513 -0.788673 -0.382283
vn -0.697787 -0.573273 -0.429478
vn 0.036521 -0.103455 0.993963
vn 0.185085 -0.299521 0.935965
vn 0.051982 -0.687219 0.724589
vn -0.001706 -0.540542 0.841315
vn -0.352928 -0.770940 0.530182
vn -0.095801 -0.712908 0.694683
vn -0.147258 -0.720318 0.677832
vn -0.387477 -0.722124 0.573061
vn -0.496033 -0.684612 0.534095
vn -0.499222 -0.648746 0.574375
vn -0.503125 -0.661223 0.556461
vn -0.571711 -0.625115 0.531392
vn -0.813468 -0.376163 -0.443589
vn -0.597898 -0.665241 -0.447182
vn -0.867553 -0.050636 -0.494760
vn -0.735265 0.030599 -0.677089

usemtl Tree_Type_2_Wood
f 1/4/3 2/3/3 8/2/2 7/1/1
f 2/8/5 3/7/5 9/6/4 8/5/4
f 3/7/7 4/10/7 10/9/6 9/6/6
f 4/10/9 5/12/9 11/11/8 10/9/8
f 5/12/12 6/14/12 12/13/11 11/11/10
f 6/14/14 1/4/14 7/1/13 12/13/13
f 7/1/1 8/2/1 14/16/16 13/15/15
f 8/5/18 9/6/4 15/18/17 14/17/17
f 9/6/6 10/9/21 16/19/20 15/18/19
f 10/9/24 11/11/8 17/20/23 16/19/22
f 11/11/10 12/13/10 18/21/25 17/20/25
f 12/13/27 7/1/13 13/15/26 18/21/26
f 13/15/15 14/16/16 20/23/29 19/22/28
f 14/17/32 15/18/17 21/25/31 20/24/30
f 15/18/19 16/19/35 22/26/34 21/25/33
f 16/19/20 17/20/38 23/27/37 22/26/36
f 17/20/40 18/21/25 24/28/39 23/27/39
f 18/21/26 13/15/26 19/22/41 24/28/41
f 19/22/28 20/23/44 26/30/43 25/29/42
f 20/24/29 21/25/31 27/32/45 26/31/43
f 21/25/33 22/26/33 28/33/46 27/32/46
f 22/26/36 23/27/49 29/34/48 28/33/47
f 23/27/51 24/28/39 30/35/50 29/34/48
f 24/28/41 19/22/41 25/29/52 30/35/52
f 31/4/54 32/3/54 38/37/53 37/36/53
f 32/8/56 33/7/56 39/39/55 38/38/55
f 33/7/58 34/10/58 40/40/57 39/39/57
f 34/10/60 35/12/60 41/41/59 40/40/59
f 35/12/62 36/14/62 42/42/61 41/41/61
f 36/14/64 31/4/64 37/36/63 42/42/63
f 37/36/53 38/37/53 44/44/65 43/43/65
f 38/38/55 39/39/55 45/46/67 44/45/66
f 39/39/57 40/40/57 46/47/68 45/46/68
f 40/40/59 41/41/59 47/48/69 46/47/69
f 41/41/61 42/42/61 48/49/71 47/48/70
f 42/42/63 37/36/63 43/43/72 48/49/72
f 43/43/65 44/44/65 49/50/73
f 44/45/66 45/46/67 49/51/74
f 45/46/75 46/47/68 49/51/74
f 46/47/69 47/48/69 49/51/76
f 47/48/70 48/49/71 49/51/77
f 48/49/78 43/43/72 49/50/77
f 102/4/80 103/3/80 109/37/79 108/36/79
f 103/8/82 104/7/82 110/39/81 109/38/81
f 104/7/84 105/10/84 111/40/83 110/39/83
f 105/10/86 106/12/86 112/41/85 111/40/85
f 106/12/88 107/14/88 113/42/87 112/41/87
f 107/14/90 102/4/90 108/36/89 113/42/89
f 108/36/79 109/37/79 115/44/91 114/43/91
f 109/38/81 110/39/81 116/46/92 115/45/92
f 110/39/83 111/40/83 117/47/93 116/46/93
f 111/40/85 112/41/85 118/48/94 117/47/94
f 112/41/87 113/42/87 119/49/95 118/48/95
f 113/42/89 108/36/89 114/43/96 119/49/96
f 114/43/91 115/44/91 120/50/97
f 115/45/92 116/46/92 120/51/98
f 116/46/93 117/47/93 120/51/99
f 117/47/94 118/48/94 120/51/100
f 118/48/95 119/49/95 120/51/101
f 119/49/96 114/43/96 120/50/102

usemtl Tree_Type_2_Foliage
f 50/54/105 54/53/104 58/52/103
f 54/53/108 55/56/107 78/55/106
f 54/53/111 78/55/110 58/52/109
f 58/52/114 78/55/113 59/57/112
f 55/56/107 56/59/116 79/58/115
f 55/56/118 79/58/115 78/55/117
f 78/55/121 79/58/120 80/60/119
f 78/55/124 80/60/123 59/57/122
f 59/57/127 80/60/126 60/61/125
f 56/59/130 57/63/129 81/62/128
f 56/59/116 81/62/131 79/58/115
f 79/58/134 81/62/133 82/64/132
f 79/58/115 82/64/136 80/60/135
f 80/60/126 82/64/138 83/65/137
f 80/60/141 83/65/140 60/61/139
f 60/61/144 83/65/143 61/66/142
f 57/63/146 51/68/146 66/67/145
f 57/63/149 66/67/148 81/62/147
f 81/62/151 66/67/145 67/69/150
f 81/62/153 67/69/152 82/64/136
f 82/64/155 67/69/150 68/70/154
f 82/64/155 68/70/157 83/65/156
f 83/65/160 68/70/159 69/71/158
f 83/65/162 69/71/158 61/66/161
f 61/66/161 69/71/164 52/72/163
f 50/75/105 58/74/109 62/73/165
f 58/52/103 59/57/127 84/76/166
f 58/74/167 84/77/167 62/73/167
f 62/73/170 84/77/169 63/78/168
f 59/57/173 60/61/172 85/79/171
f 59/57/176 85/79/175 84/76/174
f 84/77/178 85/81/171 86/80/177
f 84/77/169 86/80/180 63/78/179
f 63/78/182 86/80/180 64/82/181
f 60/61/144 61/66/184 87/83/183
f 60/61/144 87/83/183 85/79/171
f 85/79/186 87/83/183 88/84/185
f 85/81/171 88/85/187 86/80/177
f 86/80/190 88/85/189 89/86/188
f 86/80/180 89/86/191 64/82/181
f 64/82/194 89/86/193 65/87/192
f 61/66/184 52/72/196 74/88/195
f 61/66/199 74/88/198 87/83/197
f 87/83/202 74/88/201 75/89/200
f 87/83/204 75/89/204 88/84/203
f 88/85/206 75/91/200 76/90/205
f 88/85/203 76/90/207 89/86/207
f 89/86/210 76/90/209 77/92/208
f 89/86/210 77/92/212 65/87/211
f 65/87/211 77/92/214 53/93/213
f 50/94/105 62/73/216 54/53/215
f 62/73/219 63/78/218 90/95/217
f 62/73/216 90/95/217 54/53/111
f 54/53/221 90/95/220 55/56/107
f 63/78/168 64/82/223 91/96/222
f 63/78/224 91/96/222 90/95/217
f 90/95/220 91/96/226 92/97/225
f 90/95/220 92/97/225 55/56/107
f 55/56/228 92/97/225 56/59/227
f 64/82/194 65/87/230 93/98/229
f 64/82/194 93/98/232 91/96/231
f 91/96/235 93/98/234 94/99/233
f 91/96/226 94/99/237 92/97/236
f 92/97/225 94/99/239 95/100/238
f 92/97/240 95/100/238 56/59/116
f 56/59/116 95/100/238 57/63/241
f 65/87/244 53/93/243 73/101/242
f 65/87/247 73/101/246 93/98/245
f 93/98/249 73/101/242 72/102/248
f 93/98/251 72/102/250 94/99/250
f 94/99/253 72/102/248 71/103/252
f 94/99/256 71/103/255 95/100/254
f 95/100/259 71/103/258 70/104/257
f 95/100/238 70/104/257 57/63/260
f 57/63/263 70/104/262 51/68/261
f 51/68/261 70/104/264 66/67/148
f 70/104/264 71/103/266 96/105/265
f 70/104/264 96/105/265 66/67/148
f 66/67/268 96/105/267 67/69/152
f 71/103/266 72/102/270 97/106/269
f 71/103/266 97/106/269 96/105/271
f 96/105/267 97/106/269 98/107/272
f 96/105/267 98/107/272 67/69/152
f 67/69/152 98/107/272 68/70/273
f 72/102/276 73/101/275 99/108/274
f 72/102/270 99/108/277 97/106/269
f 97/106/269 99/108/277 100/109/278
f 97/106/269 100/109/278 98/107/272
f 98/107/272 100/111/278 101/110/279
f 98/107/272 101/110/281 68/70/280
f 68/70/280 101/110/281 69/71/282
f 73/101/284 53/93/213 77/92/283
f 73/101/284 77/92/286 99/108/285
f 99/108/289 77/92/288 76/90/287
f 99/108/289 76/90/287 100/109/290
f 100/109/290 76/90/292 75/91/291
f 100/111/290 75/89/291 101/110/293
f 101/110/293 75/89/291 74/88/294
f 101/110/296 74/88/198 69/71/295
f 69/71/298 74/88/297 52/72/196

usemtl default

