# WaveFront *.obj file (generated by Cheetah3D)

mtllib Tree11.mtl

g Tree_Type_1_1
v 0.016023 0.000000 -0.001474
v 0.008404 0.000000 -0.014669
v -0.006832 0.000000 -0.014669
v -0.014450 0.000000 -0.001474
v -0.006832 -0.000000 0.011721
v 0.008404 -0.000000 0.011721
v 0.011491 0.036014 -0.001474
v 0.006836 0.036014 -0.009536
v -0.002473 0.036014 -0.009536
v -0.007127 0.036014 -0.001474
v -0.002473 0.036014 0.006588
v 0.006836 0.036014 0.006588
v -0.002805 0.061397 -0.001474
v -0.006625 0.061397 -0.008091
v -0.014265 0.061397 -0.008091
v -0.018085 0.061397 -0.001474
v -0.014265 0.061397 0.005143
v -0.006625 0.061397 0.005143
v 0.003815 0.093084 -0.001474
v 0.000132 0.093084 -0.007852
v -0.007232 0.093084 -0.007852
v -0.010915 0.093084 -0.001474
v -0.007232 0.093084 0.004904
v 0.000132 0.093084 0.004904
v 0.006451 0.123521 -0.001474
v 0.001451 0.123521 -0.010135
v -0.008550 0.123521 -0.010135
v -0.013551 0.123521 -0.001474
v -0.008550 0.123521 0.007187
v 0.001451 0.123521 0.007187
v 0.042035 0.123865 -0.009740
v -0.034782 0.138199 -0.032209
v -0.017235 0.137599 0.044569
v 0.011398 0.258912 0.014505
v 0.015693 0.227493 0.012591
v 0.032500 0.200498 0.009630
v 0.048138 0.160485 -0.003081
v -0.000921 0.263475 -0.005141
v -0.010134 0.236382 -0.016940
v -0.017904 0.199659 -0.022300
v -0.008918 0.179575 -0.029663
v -0.011998 0.263679 0.013599
v -0.023390 0.236977 0.020408
v -0.025619 0.208418 0.028380
v -0.009329 0.183091 0.040141
v 0.036122 0.130168 -0.025067
v 0.020665 0.117421 -0.037565
v 0.005128 0.115753 -0.044247
v -0.012091 0.120888 -0.045847
v -0.025300 0.135495 -0.042186
v 0.043439 0.121263 0.003090
v 0.040605 0.118926 0.015211
v 0.030849 0.113777 0.028119
v 0.016218 0.116008 0.039581
v -0.002803 0.122243 0.045811
v -0.043074 0.121935 -0.018686
v -0.049267 0.115853 0.000106
v -0.044655 0.117599 0.015402
v -0.038116 0.116227 0.027361
v -0.028461 0.119171 0.037415
v 0.013036 0.263762 0.006535
v 0.010788 0.262192 -0.002440
v 0.021569 0.209900 -0.003130
v 0.013019 0.221232 -0.011738
v 0.000727 0.210470 -0.019856
v 0.043134 0.166322 -0.015782
v 0.033149 0.157091 -0.032163
v 0.018644 0.159672 -0.036440
v 0.002136 0.162256 -0.038523
v -0.008342 0.253723 -0.005092
v -0.016194 0.263113 0.008176
v -0.025184 0.220914 -0.009588
v -0.027001 0.231202 -0.002829
v -0.026888 0.222893 0.011996
v -0.023722 0.176594 -0.021043
v -0.027260 0.173573 -0.003546
v -0.028430 0.177524 0.012908
v -0.018809 0.179167 0.027306
v 0.007168 0.299242 0.009338
v 0.000573 0.258662 0.023818
v 0.010375 0.263371 0.021547
v -0.011832 0.226679 0.032842
v 0.001872 0.231914 0.030011
v 0.015859 0.226963 0.025567
v 0.007974 0.154736 0.044341
v 0.026589 0.151869 0.038037
v 0.039817 0.161184 0.028671
v 0.046690 0.160327 0.013358
v 0.036576 0.105647 -0.015645
v 0.033662 0.093595 -0.000217
v 0.021275 0.095295 -0.031007
v 0.018452 0.086148 0.019577
v 0.004221 0.079218 -0.006845
v -0.007296 0.084074 -0.032180
v -0.008178 0.100099 0.037367
v -0.018792 0.093751 0.019684
v -0.033421 0.085274 -0.001260
v -0.034687 0.100968 -0.025788

vt 0.750000 0.250000
vt 0.916667 0.250000
vt 0.916667 0.000000
vt 0.750000 0.000000
vt -0.083333 0.250000
vt 0.083333 0.250000
vt 0.083333 0.000000
vt -0.083333 0.000000
vt 0.250000 0.250000
vt 0.250000 0.000000
vt 0.416667 0.250000
vt 0.416667 0.000000
vt 0.583333 0.250000
vt 0.583333 0.000000
vt 0.750000 0.500000
vt 0.916667 0.500000
vt -0.083333 0.500000
vt 0.083333 0.500000
vt 0.250000 0.500000
vt 0.416667 0.500000
vt 0.583333 0.500000
vt 0.750000 0.750000
vt 0.916667 0.750000
vt -0.083333 0.750000
vt 0.083333 0.750000
vt 0.250000 0.750000
vt 0.416667 0.750000
vt 0.583333 0.750000
vt 0.750000 1.000000
vt 0.916667 1.000000
vt -0.083333 1.000000
vt 0.083333 1.000000
vt 0.250000 1.000000
vt 0.416667 1.000000
vt 0.583333 1.000000
vt 0.597511 0.789233
vt 0.500000 0.695913
vt 0.500000 0.797276
vt 0.595238 0.908233
vt 0.735822 0.789233
vt 0.833333 0.797276
vt 0.833333 0.695913
vt 0.578086 0.652585
vt 0.500000 0.594551
vt 0.666667 0.674859
vt 0.755247 0.652585
vt 0.833333 0.594551
vt 0.566635 0.488984
vt 0.500000 0.493189
vt 0.633316 0.486681
vt 0.700017 0.486681
vt 0.766698 0.488984
vt 0.833333 0.493189
vt 0.549514 0.346355
vt 0.500000 0.391827
vt 0.605594 0.315266
vt 0.666667 0.304087
vt 0.727740 0.315266
vt 0.783819 0.346355
vt 0.833333 0.391827
vt 0.930844 0.789233
vt 0.069156 0.789233
vt -0.069156 0.789233
vt 0.000000 0.887239
vt 0.166667 0.797276
vt 0.166667 0.695913
vt 0.911420 0.652585
vt 1.000000 0.674859
vt 0.000000 0.674859
vt 0.088580 0.652585
vt 0.166667 0.594551
vt 0.899969 0.488984
vt 0.966650 0.486681
vt 0.033350 0.486681
vt -0.033350 0.486681
vt 0.100031 0.488984
vt 0.166667 0.493189
vt 0.882848 0.346355
vt 0.938927 0.315266
vt 1.000000 0.304087
vt 0.000000 0.304087
vt 0.061073 0.315266
vt 0.117152 0.346355
vt 0.166667 0.391827
vt 0.264178 0.789233
vt 0.402489 0.789233
vt 0.244753 0.652585
vt 0.333333 0.674859
vt 0.421914 0.652585
vt 0.233302 0.488984
vt 0.299983 0.486681
vt 0.366684 0.486681
vt 0.433365 0.488984
vt 0.216181 0.346355
vt 0.272260 0.315266
vt 0.333333 0.304087
vt 0.394406 0.315266
vt 0.450486 0.346355
vt 0.500000 0.279066
vt 0.430844 0.210767
vt 0.569156 0.210767
vt 0.309449 0.167935
vt 0.500000 0.066686
vt 0.690551 0.167935
vt 0.174420 0.229741
vt 0.082346 0.138037
vt -0.082346 0.138037
vt 0.917654 0.138037
vt 0.825580 0.229741

vn 0.832018 0.277480 -0.480366
vn 0.860929 0.108333 -0.497057
vn 0.000000 0.099062 -0.995081
vn 0.000000 0.141107 -0.989994
vn -0.862384 -0.091614 -0.497897
vn -0.852903 0.173425 -0.492423
vn -0.862383 -0.091614 0.497898
vn -0.852902 0.173425 0.492424
vn 0.000000 0.099061 0.995081
vn 0.000000 0.141107 0.989994
vn 0.832018 0.277480 0.480366
vn 0.860929 0.108333 0.497058
vn 0.857862 0.136978 -0.495287
vn 0.000000 0.032196 -0.999482
vn -0.863106 -0.082039 -0.498315
vn -0.863106 -0.082039 0.498315
vn 0.000000 0.032196 0.999482
vn 0.857862 0.136978 0.495287
vn 0.859059 -0.126582 -0.495978
vn -0.000000 -0.033662 -0.999433
vn -0.864502 0.059293 -0.499121
vn -0.864502 0.059293 0.499121
vn 0.000000 -0.033662 0.999433
vn 0.859059 -0.126582 0.495978
vn 0.863599 -0.074801 -0.498599
vn -0.000000 -0.074801 -0.997199
vn -0.863599 -0.074801 -0.498600
vn -0.863599 -0.074801 0.498600
vn 0.000000 -0.074801 0.997199
vn 0.863599 -0.074801 0.498599
vn 0.989533 0.134433 0.052464
vn 0.961531 0.270533 0.047646
vn 0.977531 0.124371 0.170191
vn 0.988894 0.145956 0.028016
vn 0.953577 0.144591 -0.264167
vn 0.986956 0.153863 -0.047370
vn 0.245992 0.315443 -0.916506
vn 0.305363 0.275000 -0.911663
vn 0.212684 0.232725 -0.949002
vn 0.856867 0.392216 -0.334583
vn 0.889152 0.453732 -0.059469
vn 0.897708 0.396513 -0.192091
vn 0.656709 0.308826 -0.688011
vn 0.791559 0.429904 -0.434301
vn 0.919217 0.172830 -0.353793
vn 0.891712 0.241809 -0.382595
vn 0.190041 0.288066 -0.938564
vn 0.565748 0.338624 -0.751839
vn -0.372248 0.176047 -0.911284
vn 0.004784 0.252258 -0.967648
vn 0.879262 0.232067 -0.415985
vn 0.985337 0.059611 -0.159867
vn 0.842298 0.212305 -0.495439
vn 0.529803 0.283093 -0.799480
vn 0.812224 0.299753 -0.500440
vn 0.725995 0.285049 -0.625842
vn 0.730824 0.279542 -0.622698
vn 0.222613 0.245582 -0.943469
vn 0.467335 0.314200 -0.826363
vn -0.007033 0.278984 -0.960270
vn -0.440756 0.173560 -0.880688
vn -0.111555 0.243283 -0.963519
vn -0.501770 0.206612 -0.839963
vn -0.247589 0.235931 -0.939700
vn 0.848286 -0.080330 -0.523410
vn 0.958003 -0.111635 -0.264136
vn 0.648739 -0.135253 -0.748895
vn 0.813990 0.166822 -0.556408
vn 0.784075 0.058514 -0.617902
vn 0.877736 0.150029 -0.455050
vn 0.243391 -0.138603 -0.959974
vn 0.543338 0.156214 -0.824852
vn 0.418142 0.243475 -0.875144
vn -0.129619 -0.091751 -0.987310
vn -0.046317 -0.055339 -0.997393
vn -0.367350 0.186045 -0.911285
vn -0.464255 0.130728 -0.876001
vn -0.700849 0.130196 -0.701327
vn -0.521054 0.078601 -0.849897
vn -0.616559 0.431946 -0.658239
vn -0.662205 0.391281 -0.639049
vn -0.595400 0.449726 -0.665767
vn -0.586056 0.419451 -0.693253
vn -0.781008 0.395980 -0.482935
vn -0.618075 0.422803 0.662738
vn -0.878215 0.369502 0.303655
vn -0.622600 0.415011 0.663427
vn -0.764288 0.343536 0.545754
vn -0.802189 0.218385 -0.555698
vn -0.517464 0.350210 -0.780759
vn -0.750966 0.293004 -0.591776
vn -0.744876 0.254561 -0.616732
vn -0.986924 0.087435 0.135414
vn -0.995953 0.080311 -0.040355
vn -0.927880 0.287482 0.237474
vn -0.895798 0.443325 -0.031770
vn -0.914648 -0.008922 0.404152
vn -0.874367 0.291361 0.388061
vn -0.593660 0.127475 -0.794555
vn -0.831296 0.191963 -0.521629
vn -0.529110 0.176383 -0.830019
vn -0.980797 0.169530 -0.096423
vn -0.926122 0.215904 -0.309326
vn -0.841723 0.179800 -0.509091
vn -0.934529 0.209396 -0.287766
vn -0.958790 0.146519 0.243422
vn -0.872207 0.056253 0.485892
vn -0.998247 -0.047389 0.035461
vn -0.967788 -0.097551 0.232100
vn -0.784209 0.072414 0.616256
vn -0.805261 0.109563 0.582710
vn -0.730098 0.064396 0.680301
vn -0.902363 0.428382 -0.047216
vn -0.845899 0.522049 0.109180
vn -0.756649 -0.089765 -0.647630
vn -0.985130 0.076727 -0.153729
vn -0.919335 0.076346 -0.385998
vn -0.969774 0.209764 -0.124646
vn -0.932862 0.297285 0.203447
vn -0.936927 0.347923 -0.033427
vn -0.799444 0.242253 0.549729
vn -0.963499 0.112027 0.243147
vn -0.608636 0.034498 0.792699
vn -0.762169 0.213183 0.611270
vn -0.537060 -0.000310 0.843544
vn -0.650487 0.079138 0.755383
vn -0.203865 0.342921 0.916976
vn -0.576781 0.383171 0.721459
vn -0.418672 0.411505 0.809554
vn 0.176454 0.239316 0.954773
vn -0.227300 0.359826 0.904909
vn 0.990474 0.131101 0.042110
vn -0.347307 0.247672 0.904454
vn -0.685585 0.346118 0.640449
vn -0.249774 0.231033 0.940339
vn 0.257157 0.194544 0.946585
vn -0.149410 0.238780 0.959511
vn 0.350788 0.163285 0.922109
vn 0.919470 0.346804 0.185209
vn 0.856042 0.509139 -0.089269
vn 0.100663 0.055526 0.993370
vn -0.594606 0.037562 0.803140
vn 0.427333 0.050277 0.902695
vn 0.062107 0.171785 0.983175
vn -0.050863 0.227256 0.972506
vn 0.718431 0.058455 0.693137
vn 0.587752 0.028325 0.808545
vn 0.958876 0.114157 0.259856
vn 0.777743 0.032933 0.627719
vn -0.031310 -0.129200 0.991124
vn -0.137932 -0.049615 0.989198
vn -0.046849 0.087703 0.995044
vn -0.295323 0.131073 0.946364
vn 0.370459 -0.276954 0.886599
vn 0.708685 -0.314059 0.631769
vn 0.915606 -0.281504 0.287090
vn 0.979906 -0.199413 -0.004318
vn -0.599482 -0.794669 -0.095513
vn 0.916710 -0.376119 -0.134824
vn 0.888124 -0.328749 -0.321187
vn 0.870578 -0.283437 -0.402191
vn 0.804267 -0.585039 0.104329
vn 0.869088 -0.477775 0.128125
vn 0.597183 -0.602327 -0.529693
vn 0.761231 -0.646945 0.044610
vn 0.561229 -0.384025 -0.733176
vn 0.535734 -0.502797 0.678369
vn 0.544508 -0.644390 0.536910
vn 0.149673 -0.988599 0.016450
vn 0.242009 -0.909397 0.338274
vn 0.696531 -0.715280 0.056745
vn 0.530825 -0.791005 -0.304197
vn 0.285276 -0.942065 -0.176442
vn 0.562159 -0.804126 -0.193284
vn 0.144267 -0.854457 -0.499090
vn 0.474008 -0.738255 -0.479891
vn 0.033623 -0.556952 -0.829864
vn 0.469700 -0.467847 -0.748666
vn -0.081444 -0.390125 -0.917153
vn -0.092316 -0.466403 0.879742
vn 0.267645 -0.738919 0.618356
vn -0.002546 -0.562226 0.826980
vn -0.390961 -0.795456 0.463032
vn -0.259554 -0.704339 0.660710
vn 0.094035 -0.894512 0.437043
vn -0.001096 -0.984666 0.174444
vn -0.309963 -0.886186 0.344381
vn -0.131836 -0.938961 -0.317760
vn -0.293908 -0.954854 -0.043265
vn -0.713107 -0.374029 -0.592943
vn -0.571909 -0.770969 -0.280226
vn -0.417010 -0.756467 -0.503845
vn -0.211850 -0.502037 -0.838498
vn -0.185915 -0.136529 -0.973034
vn -0.548656 -0.132355 0.825505
vn -0.360154 0.033745 0.932283
vn -0.190162 -0.518514 0.833656
vn -0.583013 -0.634694 0.507208
vn -0.365498 -0.351981 0.861697
vn -0.286752 -0.596721 0.749464
vn -0.394233 -0.624885 0.673869
vn -0.715435 -0.562636 0.414239
vn -0.546749 -0.679837 0.488761
vn -0.913373 -0.393013 -0.106256
vn -0.799569 -0.382121 0.463327
vn -0.825044 -0.507781 0.247911
vn -0.965822 -0.219347 -0.138112
vn -0.807033 -0.575959 -0.130263
vn -0.818272 -0.005878 -0.574801
vn -0.985050 -0.100654 -0.139805
vn -0.603897 0.051561 -0.795393
vn -0.682628 -0.025352 -0.730326

usemtl Tree_Type_1_Wood
f 1/4/2 2/3/2 8/2/1 7/1/1
f 2/8/4 3/7/4 9/6/3 8/5/3
f 3/7/6 4/10/6 10/9/5 9/6/5
f 4/10/8 5/12/8 11/11/7 10/9/7
f 5/12/10 6/14/10 12/13/9 11/11/9
f 6/14/12 1/4/12 7/1/11 12/13/11
f 7/1/1 8/2/1 14/16/13 13/15/13
f 8/5/3 9/6/3 15/18/14 14/17/14
f 9/6/5 10/9/5 16/19/15 15/18/15
f 10/9/7 11/11/7 17/20/16 16/19/16
f 11/11/9 12/13/9 18/21/17 17/20/17
f 12/13/11 7/1/11 13/15/18 18/21/18
f 13/15/13 14/16/13 20/23/19 19/22/19
f 14/17/14 15/18/14 21/25/20 20/24/20
f 15/18/15 16/19/15 22/26/21 21/25/21
f 16/19/16 17/20/16 23/27/22 22/26/22
f 17/20/17 18/21/17 24/28/23 23/27/23
f 18/21/18 13/15/18 19/22/24 24/28/24
f 19/22/19 20/23/19 26/30/25 25/29/25
f 20/24/20 21/25/20 27/32/26 26/31/26
f 21/25/21 22/26/21 28/33/27 27/32/27
f 22/26/22 23/27/22 29/34/28 28/33/28
f 23/27/23 24/28/23 30/35/29 29/34/29
f 24/28/24 19/22/24 25/29/30 30/35/30

usemtl Tree_Type_1_Foliage
f 34/38/33 35/37/32 61/36/31
f 34/38/33 61/36/31 79/39/34
f 79/39/34 61/36/36 62/40/35
f 79/39/37 62/40/38 38/41/37
f 38/41/37 62/40/38 39/42/39
f 35/37/32 36/44/41 63/43/40
f 35/37/32 63/43/42 61/36/31
f 61/36/45 63/43/44 64/45/43
f 61/36/36 64/45/46 62/40/35
f 62/40/38 64/45/48 65/46/47
f 62/40/38 65/46/47 39/42/39
f 39/42/50 65/46/47 40/47/49
f 36/44/41 37/49/52 66/48/51
f 36/44/41 66/48/53 63/43/40
f 63/43/44 66/48/55 67/50/54
f 63/43/40 67/50/57 64/45/56
f 64/45/48 67/50/54 68/51/58
f 64/45/59 68/51/58 65/46/47
f 65/46/47 68/51/58 69/52/60
f 65/46/47 69/52/62 40/47/61
f 40/47/61 69/52/64 41/53/63
f 37/49/52 31/55/66 46/54/65
f 37/49/52 46/54/65 66/48/53
f 66/48/68 46/54/65 47/56/67
f 66/48/70 47/56/67 67/50/69
f 67/50/72 47/56/67 48/57/71
f 67/50/73 48/57/71 68/51/58
f 68/51/58 48/57/71 49/58/74
f 68/51/58 49/58/75 69/52/60
f 69/52/62 49/58/74 50/59/76
f 69/52/62 50/59/77 41/53/63
f 41/53/63 50/59/79 32/60/78
f 38/41/82 39/42/81 70/61/80
f 38/41/82 70/61/80 79/39/83
f 79/64/83 70/63/80 71/62/84
f 79/64/87 71/62/86 42/65/85
f 42/65/85 71/62/86 43/66/88
f 39/42/90 40/47/61 72/67/89
f 39/42/81 72/67/89 70/61/80
f 70/61/80 72/67/92 73/68/91
f 70/63/80 73/69/91 71/62/84
f 71/62/86 73/69/94 74/70/93
f 71/62/96 74/70/93 43/66/95
f 43/66/98 74/70/93 44/71/97
f 40/47/61 41/53/63 75/72/99
f 40/47/101 75/72/100 72/67/89
f 72/67/104 75/72/103 76/73/102
f 72/67/89 76/73/102 73/68/105
f 73/69/94 76/75/102 77/74/106
f 73/69/94 77/74/106 74/70/93
f 74/70/93 77/74/106 78/76/107
f 74/70/93 78/76/109 44/71/108
f 44/71/112 78/76/111 45/77/110
f 41/53/114 32/60/114 56/78/113
f 41/53/63 56/78/115 75/72/99
f 75/72/103 56/78/117 57/79/116
f 75/72/103 57/79/118 76/73/102
f 76/73/102 57/79/120 58/80/119
f 76/75/102 58/81/119 77/74/106
f 77/74/106 58/81/122 59/82/121
f 77/74/106 59/82/121 78/76/111
f 78/76/111 59/82/121 60/83/123
f 78/76/111 60/83/124 45/77/110
f 45/77/126 60/83/123 33/84/125
f 42/65/85 43/66/128 80/85/127
f 42/65/85 80/85/127 79/39/129
f 79/39/131 80/85/127 81/86/130
f 79/39/34 81/86/132 34/38/33
f 34/38/33 81/86/132 35/37/32
f 43/66/134 44/71/112 82/87/133
f 43/66/128 82/87/135 80/85/127
f 80/85/127 82/87/137 83/88/136
f 80/85/127 83/88/136 81/86/130
f 81/86/130 83/88/136 84/89/138
f 81/86/132 84/89/139 35/37/32
f 35/37/32 84/89/139 36/44/41
f 44/71/140 45/77/140 85/90/140
f 44/71/142 85/90/141 82/87/137
f 82/87/144 85/90/141 86/91/143
f 82/87/145 86/91/143 83/88/136
f 83/88/136 86/91/143 87/92/146
f 83/88/136 87/92/147 84/89/138
f 84/89/139 87/92/149 88/93/148
f 84/89/139 88/93/148 36/44/41
f 36/44/41 88/93/148 37/49/52
f 45/77/152 33/84/151 55/94/150
f 45/77/153 55/94/150 85/90/141
f 85/90/141 55/94/150 54/95/154
f 85/90/141 54/95/154 86/91/143
f 86/91/143 54/95/154 53/96/155
f 86/91/143 53/96/155 87/92/146
f 87/92/146 53/96/155 52/97/156
f 87/92/149 52/97/156 88/93/148
f 88/93/148 52/97/156 51/98/157
f 88/93/148 51/98/157 37/49/52
f 37/49/52 51/98/157 31/55/66
f 31/55/158 51/98/158 46/54/158
f 51/98/157 52/97/156 89/99/159
f 51/98/157 89/99/160 46/54/65
f 46/54/65 89/99/161 47/56/67
f 52/97/156 53/96/155 90/100/162
f 52/97/156 90/100/163 89/99/160
f 89/99/160 90/100/165 91/101/164
f 89/99/161 91/101/166 47/56/67
f 47/56/67 91/101/166 48/57/71
f 53/96/155 54/95/154 92/102/167
f 53/96/155 92/102/168 90/100/162
f 90/100/171 92/102/170 93/103/169
f 90/100/174 93/103/173 91/101/172
f 91/101/176 93/103/173 94/104/175
f 91/101/178 94/104/177 48/57/71
f 48/57/71 94/104/179 49/58/74
f 54/95/154 55/94/150 95/105/180
f 54/95/154 95/105/182 92/102/181
f 92/102/185 95/105/184 96/106/183
f 92/102/185 96/106/183 93/103/186
f 93/103/186 96/106/183 97/107/187
f 93/103/169 97/108/189 94/104/188
f 94/104/192 97/108/191 98/109/190
f 94/104/193 98/109/190 49/58/74
f 49/58/194 98/109/190 50/59/79
f 55/94/150 33/84/196 60/83/195
f 55/94/150 60/83/195 95/105/197
f 95/105/200 60/83/199 59/82/198
f 95/105/201 59/82/198 96/106/183
f 96/106/183 59/82/198 58/81/202
f 96/106/183 58/81/202 97/107/203
f 97/108/206 58/80/205 57/79/204
f 97/108/208 57/79/207 98/109/190
f 98/109/190 57/79/210 56/78/209
f 98/109/190 56/78/209 50/59/211
f 50/59/212 56/78/209 32/60/78

usemtl default

